<ttFont>
    <TTGlyph name=".notdef" xMin="123" yMin="0" xMax="543" yMax="689">
      <contour>
        <pt x="123" y="689" on="1"/>
        <pt x="543" y="689" on="1"/>
        <pt x="543" y="0" on="1"/>
        <pt x="123" y="0" on="1"/>
      </contour>
      <contour>
        <pt x="489" y="52" on="1"/>
        <pt x="489" y="637" on="1"/>
        <pt x="178" y="637" on="1"/>
        <pt x="178" y="52" on="1"/>
      </contour>
      <contour>
        <pt x="231" y="497" on="1"/>
        <pt x="231" y="517" on="0"/>
        <pt x="295" y="536" on="0"/>
        <pt x="324" y="536" on="1"/>
        <pt x="388" y="536" on="0"/>
        <pt x="435" y="466" on="0"/>
        <pt x="435" y="421" on="1"/>
        <pt x="435" y="369" on="0"/>
        <pt x="390" y="310" on="0"/>
        <pt x="340" y="303" on="1"/>
        <pt x="340" y="258" on="1"/>
        <pt x="340" y="247" on="0"/>
        <pt x="324" y="234" on="0"/>
        <pt x="315" y="234" on="1"/>
        <pt x="305" y="234" on="0"/>
        <pt x="290" y="247" on="0"/>
        <pt x="290" y="258" on="1"/>
        <pt x="290" y="342" on="1"/>
        <pt x="344" y="345" on="0"/>
        <pt x="381" y="379" on="0"/>
        <pt x="381" y="419" on="1"/>
        <pt x="381" y="448" on="0"/>
        <pt x="357" y="488" on="0"/>
        <pt x="320" y="488" on="1"/>
        <pt x="304" y="488" on="0"/>
        <pt x="281" y="483" on="0"/>
        <pt x="268" y="477" on="1"/>
        <pt x="264" y="476" on="0"/>
        <pt x="258" y="474" on="0"/>
        <pt x="255" y="474" on="1"/>
        <pt x="244" y="474" on="0"/>
        <pt x="231" y="487" on="0"/>
      </contour>
      <contour>
        <pt x="280" y="170" on="1"/>
        <pt x="280" y="185" on="0"/>
        <pt x="300" y="205" on="0"/>
        <pt x="315" y="205" on="1"/>
        <pt x="330" y="205" on="0"/>
        <pt x="350" y="185" on="0"/>
        <pt x="350" y="170" on="1"/>
        <pt x="350" y="154" on="0"/>
        <pt x="330" y="133" on="0"/>
        <pt x="315" y="133" on="1"/>
        <pt x="300" y="133" on="0"/>
        <pt x="280" y="154" on="0"/>
      </contour>
    </TTGlyph>
    <TTGlyph name="A" xMin="17" yMin="0" xMax="548" yMax="685">
      <contour>
        <pt x="282" y="637" on="1"/>
        <pt x="153" y="238" on="1"/>
        <pt x="410" y="238" on="1"/>
      </contour>
      <contour>
        <pt x="486" y="0" on="1"/>
        <pt x="426" y="188" on="1"/>
        <pt x="137" y="188" on="1"/>
        <pt x="76" y="0" on="1"/>
        <pt x="17" y="0" on="1"/>
        <pt x="246" y="685" on="1"/>
        <pt x="319" y="685" on="1"/>
        <pt x="548" y="0" on="1"/>
      </contour>
    </TTGlyph>
    <TTGlyph name="AE" xMin="0" yMin="0" xMax="737" yMax="685">
      <contour>
        <pt x="302" y="638" on="1"/>
        <pt x="149" y="234" on="1"/>
        <pt x="403" y="234" on="1"/>
      </contour>
      <contour>
        <pt x="461" y="0" on="1"/>
        <pt x="415" y="184" on="1"/>
        <pt x="130" y="184" on="1"/>
        <pt x="60" y="0" on="1"/>
        <pt x="0" y="0" on="1"/>
        <pt x="268" y="685" on="1"/>
        <pt x="689" y="685" on="1"/>
        <pt x="682" y="636" on="1"/>
        <pt x="357" y="636" on="1"/>
        <pt x="423" y="379" on="1"/>
        <pt x="681" y="379" on="1"/>
        <pt x="681" y="330" on="1"/>
        <pt x="436" y="330" on="1"/>
        <pt x="508" y="49" on="1"/>
        <pt x="737" y="49" on="1"/>
        <pt x="737" y="0" on="1"/>
      </contour>
    </TTGlyph>
    <TTGlyph name="AEacute" xMin="0" yMin="0" xMax="737" yMax="887">
      <component glyphName="AE" x="0" y="0" flags="0x204"/>
      <component glyphName="acute.case" x="323" y="0" flags="0x4"/>
    </TTGlyph>
    <TTGlyph name="Aacute" xMin="17" yMin="0" xMax="548" yMax="887">
      <component glyphName="A" x="0" y="0" flags="0x204"/>
      <component glyphName="acute.case" x="150" y="0" flags="0x4"/>
    </TTGlyph>
    <TTGlyph name="Abreve" xMin="17" yMin="0" xMax="548" yMax="873">
      <component glyphName="A" x="0" y="0" flags="0x204"/>
      <component glyphName="breve.case" x="123" y="0" flags="0x4"/>
    </TTGlyph>
    <TTGlyph name="Acircumflex" xMin="17" yMin="0" xMax="548" yMax="893">
      <component glyphName="A" x="0" y="0" flags="0x204"/>
      <component glyphName="circumflex.case" x="105" y="0" flags="0x4"/>
    </TTGlyph>
    <TTGlyph name="Adieresis" xMin="17" yMin="0" xMax="548" yMax="867">
      <component glyphName="A" x="0" y="0" flags="0x204"/>
      <component glyphName="dieresis.case" x="118" y="0" flags="0x4"/>
    </TTGlyph>
    <TTGlyph name="Agrave" xMin="17" yMin="0" xMax="548" yMax="887">
      <component glyphName="A" x="0" y="0" flags="0x204"/>
      <component glyphName="grave.case" x="138" y="0" flags="0x4"/>
    </TTGlyph>
    <TTGlyph name="Alpha" xMin="17" yMin="0" xMax="548" yMax="685">
      <component glyphName="A" x="0" y="0" flags="0x204"/>
    </TTGlyph>
    <TTGlyph name="Alphatonos" xMin="17" yMin="0" xMax="548" yMax="697">
      <component glyphName="A" x="0" y="0" flags="0x204"/>
      <component glyphName="tonos.case" x="16" y="0" flags="0x4"/>
    </TTGlyph>
    <TTGlyph name="Amacron" xMin="17" yMin="0" xMax="548" yMax="845">
      <component glyphName="A" x="0" y="0" flags="0x204"/>
      <component glyphName="macron.case" x="132" y="-3" flags="0x4"/>
    </TTGlyph>
    <TTGlyph name="Aogonek" xMin="17" yMin="-217" xMax="548" yMax="685">
      <component glyphName="A" x="0" y="0" flags="0x204"/>
      <component glyphName="ogonek" x="358" y="0" flags="0x4"/>
    </TTGlyph>
    <TTGlyph name="Aring" xMin="17" yMin="0" xMax="548" yMax="946">
      <component glyphName="A" x="0" y="0" flags="0x204"/>
      <component glyphName="ring.case" x="154" y="0" flags="0x4"/>
    </TTGlyph>
    <TTGlyph name="Atilde" xMin="17" yMin="0" xMax="548" yMax="884">
      <component glyphName="A" x="0" y="0" flags="0x204"/>
      <component glyphName="tilde.case" x="102" y="0" flags="0x4"/>
    </TTGlyph>
    <TTGlyph name="B" xMin="111" yMin="0" xMax="544" yMax="685">
      <contour>
        <pt x="111" y="685" on="1"/>
        <pt x="264" y="685" on="1"/>
        <pt x="380" y="685" on="0"/>
        <pt x="512" y="601" on="0"/>
        <pt x="512" y="514" on="1"/>
        <pt x="512" y="448" on="0"/>
        <pt x="439" y="373" on="0"/>
        <pt x="386" y="363" on="1"/>
        <pt x="448" y="356" on="0"/>
        <pt x="544" y="278" on="0"/>
        <pt x="544" y="190" on="1"/>
        <pt x="544" y="93" on="0"/>
        <pt x="410" y="0" on="0"/>
        <pt x="298" y="0" on="1"/>
        <pt x="111" y="0" on="1"/>
      </contour>
      <contour>
        <pt x="170" y="636" on="1"/>
        <pt x="170" y="384" on="1"/>
        <pt x="309" y="384" on="1"/>
        <pt x="371" y="384" on="0"/>
        <pt x="451" y="450" on="0"/>
        <pt x="451" y="510" on="1"/>
        <pt x="451" y="579" on="0"/>
        <pt x="356" y="636" on="0"/>
        <pt x="270" y="636" on="1"/>
      </contour>
      <contour>
        <pt x="170" y="49" on="1"/>
        <pt x="298" y="49" on="1"/>
        <pt x="382" y="49" on="0"/>
        <pt x="482" y="114" on="0"/>
        <pt x="482" y="190" on="1"/>
        <pt x="482" y="268" on="0"/>
        <pt x="386" y="336" on="0"/>
        <pt x="316" y="336" on="1"/>
        <pt x="170" y="336" on="1"/>
      </contour>
    </TTGlyph>
    <TTGlyph name="Beta" xMin="111" yMin="0" xMax="544" yMax="685">
      <component glyphName="B" x="0" y="0" flags="0x204"/>
    </TTGlyph>
    <TTGlyph name="C" xMin="66" yMin="-11" xMax="527" yMax="696">
      <contour>
        <pt x="66" y="343" on="1"/>
        <pt x="66" y="430" on="0"/>
        <pt x="110" y="563" on="0"/>
        <pt x="185" y="651" on="0"/>
        <pt x="286" y="696" on="0"/>
        <pt x="343" y="696" on="1"/>
        <pt x="403" y="696" on="0"/>
        <pt x="482" y="662" on="0"/>
        <pt x="519" y="633" on="1"/>
        <pt x="487" y="594" on="1"/>
        <pt x="453" y="621" on="0"/>
        <pt x="389" y="646" on="0"/>
        <pt x="347" y="646" on="1"/>
        <pt x="257" y="646" on="0"/>
        <pt x="128" y="506" on="0"/>
        <pt x="128" y="343" on="1"/>
        <pt x="128" y="188" on="0"/>
        <pt x="254" y="41" on="0"/>
        <pt x="344" y="41" on="1"/>
        <pt x="397" y="41" on="0"/>
        <pt x="465" y="75" on="0"/>
        <pt x="495" y="99" on="1"/>
        <pt x="527" y="59" on="1"/>
        <pt x="496" y="31" on="0"/>
        <pt x="405" y="-11" on="0"/>
        <pt x="342" y="-11" on="1"/>
        <pt x="224" y="-11" on="0"/>
        <pt x="66" y="171" on="0"/>
      </contour>
    </TTGlyph>
    <TTGlyph name="Cacute" xMin="66" yMin="-11" xMax="527" yMax="887">
      <component glyphName="C" x="0" y="0" flags="0x204"/>
      <component glyphName="acute.case" x="211" y="0" flags="0x4"/>
    </TTGlyph>
    <TTGlyph name="Cacute.loclPLK" xMin="66" yMin="-11" xMax="527" yMax="908">
      <component glyphName="C" x="0" y="0" flags="0x204"/>
      <component glyphName="acute.case.loclPLK" x="211" y="0" flags="0x4"/>
    </TTGlyph>
    <TTGlyph name="Ccaron" xMin="66" yMin="-11" xMax="527" yMax="887">
      <component glyphName="C" x="0" y="0" flags="0x204"/>
      <component glyphName="caron.case" x="170" y="0" flags="0x4"/>
    </TTGlyph>
    <TTGlyph name="Ccedilla" xMin="66" yMin="-227" xMax="527" yMax="696">
      <component glyphName="cedilla.case" x="236" y="0" flags="0x4"/>
      <component glyphName="C" x="0" y="0" flags="0x204"/>
    </TTGlyph>
    <TTGlyph name="Ccircumflex" xMin="66" yMin="-11" xMax="527" yMax="893">
      <component glyphName="C" x="0" y="0" flags="0x204"/>
      <component glyphName="circumflex.case" x="167" y="0" flags="0x4"/>
    </TTGlyph>
    <TTGlyph name="Cdotaccent" xMin="66" yMin="-11" xMax="527" yMax="878">
      <component glyphName="dotaccent.case" x="271" y="0" flags="0x4"/>
      <component glyphName="C" x="0" y="0" flags="0x204"/>
    </TTGlyph>
    <TTGlyph name="Chi" xMin="11" yMin="0" xMax="503" yMax="685">
      <component glyphName="X" x="0" y="0" flags="0x204"/>
    </TTGlyph>
    <TTGlyph name="D" xMin="111" yMin="0" xMax="565" yMax="685">
      <contour>
        <pt x="111" y="685" on="1"/>
        <pt x="247" y="685" on="1"/>
        <pt x="306" y="685" on="0"/>
        <pt x="421" y="659" on="0"/>
        <pt x="510" y="586" on="0"/>
        <pt x="565" y="453" on="0"/>
        <pt x="565" y="348" on="1"/>
        <pt x="565" y="242" on="0"/>
        <pt x="508" y="106" on="0"/>
        <pt x="420" y="29" on="0"/>
        <pt x="310" y="0" on="0"/>
        <pt x="258" y="0" on="1"/>
        <pt x="111" y="0" on="1"/>
      </contour>
      <contour>
        <pt x="503" y="348" on="1"/>
        <pt x="503" y="442" on="0"/>
        <pt x="459" y="556" on="0"/>
        <pt x="389" y="617" on="0"/>
        <pt x="299" y="636" on="0"/>
        <pt x="254" y="636" on="1"/>
        <pt x="170" y="636" on="1"/>
        <pt x="170" y="49" on="1"/>
        <pt x="261" y="49" on="1"/>
        <pt x="305" y="49" on="0"/>
        <pt x="393" y="73" on="0"/>
        <pt x="461" y="139" on="0"/>
        <pt x="503" y="256" on="0"/>
      </contour>
    </TTGlyph>
    <TTGlyph name="Dcaron" xMin="111" yMin="0" xMax="565" yMax="887">
      <component glyphName="D" x="0" y="0" flags="0x204"/>
      <component glyphName="caron.case" x="125" y="0" flags="0x4"/>
    </TTGlyph>
    <TTGlyph name="Dcroat" xMin="23" yMin="0" xMax="568" yMax="685">
      <component glyphName="Eth" x="0" y="0" flags="0x204"/>
    </TTGlyph>
    <TTGlyph name="Delta" xMin="17" yMin="0" xMax="558" yMax="685">
      <contour>
        <pt x="251" y="685" on="1"/>
        <pt x="325" y="685" on="1"/>
        <pt x="558" y="0" on="1"/>
        <pt x="17" y="0" on="1"/>
      </contour>
      <contour>
        <pt x="481" y="50" on="1"/>
        <pt x="287" y="636" on="1"/>
        <pt x="92" y="50" on="1"/>
      </contour>
    </TTGlyph>
    <TTGlyph name="E" xMin="111" yMin="0" xMax="465" yMax="685">
      <contour>
        <pt x="111" y="685" on="1"/>
        <pt x="458" y="685" on="1"/>
        <pt x="451" y="636" on="1"/>
        <pt x="170" y="636" on="1"/>
        <pt x="170" y="380" on="1"/>
        <pt x="413" y="380" on="1"/>
        <pt x="413" y="331" on="1"/>
        <pt x="170" y="331" on="1"/>
        <pt x="170" y="49" on="1"/>
        <pt x="465" y="49" on="1"/>
        <pt x="465" y="0" on="1"/>
        <pt x="111" y="0" on="1"/>
      </contour>
    </TTGlyph>
    <TTGlyph name="Eacute" xMin="111" yMin="0" xMax="465" yMax="887">
      <component glyphName="E" x="0" y="0" flags="0x204"/>
      <component glyphName="acute.case" x="156" y="0" flags="0x4"/>
    </TTGlyph>
    <TTGlyph name="Ebreve" xMin="111" yMin="0" xMax="465" yMax="873">
      <component glyphName="E" x="0" y="0" flags="0x204"/>
      <component glyphName="breve.case" x="129" y="0" flags="0x4"/>
    </TTGlyph>
    <TTGlyph name="Ecaron" xMin="111" yMin="0" xMax="465" yMax="887">
      <component glyphName="E" x="0" y="0" flags="0x204"/>
      <component glyphName="caron.case" x="114" y="0" flags="0x4"/>
    </TTGlyph>
    <TTGlyph name="Ecircumflex" xMin="111" yMin="0" xMax="465" yMax="893">
      <component glyphName="circumflex.case" x="112" y="0" flags="0x4"/>
      <component glyphName="E" x="0" y="0" flags="0x204"/>
    </TTGlyph>
    <TTGlyph name="Edieresis" xMin="111" yMin="0" xMax="465" yMax="867">
      <component glyphName="E" x="0" y="0" flags="0x204"/>
      <component glyphName="dieresis.case" x="125" y="0" flags="0x4"/>
    </TTGlyph>
    <TTGlyph name="Edotaccent" xMin="111" yMin="0" xMax="465" yMax="878">
      <component glyphName="dotaccent.case" x="216" y="0" flags="0x4"/>
      <component glyphName="E" x="0" y="0" flags="0x204"/>
    </TTGlyph>
    <TTGlyph name="Egrave" xMin="111" yMin="0" xMax="465" yMax="887">
      <component glyphName="grave.case" x="145" y="0" flags="0x4"/>
      <component glyphName="E" x="0" y="0" flags="0x204"/>
    </TTGlyph>
    <TTGlyph name="Emacron" xMin="111" yMin="0" xMax="465" yMax="845">
      <component glyphName="E" x="0" y="0" flags="0x204"/>
      <component glyphName="macron.case" x="139" y="-3" flags="0x4"/>
    </TTGlyph>
    <TTGlyph name="Eng" xMin="111" yMin="-203" xMax="561" yMax="685">
      <contour>
        <pt x="422" y="-203" on="1"/>
        <pt x="406" y="-164" on="1"/>
        <pt x="457" y="-139" on="0"/>
        <pt x="509" y="-77" on="0"/>
        <pt x="511" y="0" on="1"/>
        <pt x="482" y="0" on="1"/>
        <pt x="161" y="619" on="1"/>
        <pt x="159" y="619" on="1"/>
        <pt x="162" y="584" on="0"/>
        <pt x="167" y="477" on="0"/>
        <pt x="167" y="385" on="1"/>
        <pt x="167" y="0" on="1"/>
        <pt x="111" y="0" on="1"/>
        <pt x="111" y="685" on="1"/>
        <pt x="189" y="685" on="1"/>
        <pt x="511" y="65" on="1"/>
        <pt x="513" y="65" on="1"/>
        <pt x="512" y="87" on="0"/>
        <pt x="505" y="201" on="0"/>
        <pt x="505" y="267" on="1"/>
        <pt x="505" y="685" on="1"/>
        <pt x="561" y="685" on="1"/>
        <pt x="561" y="18" on="1"/>
        <pt x="561" y="-86" on="0"/>
        <pt x="492" y="-170" on="0"/>
      </contour>
    </TTGlyph>
    <TTGlyph name="Eogonek" xMin="111" yMin="-217" xMax="465" yMax="685">
      <component glyphName="ogonek" x="262" y="0" flags="0x4"/>
      <component glyphName="E" x="0" y="0" flags="0x204"/>
    </TTGlyph>
    <TTGlyph name="Epsilon" xMin="111" yMin="0" xMax="465" yMax="685">
      <component glyphName="E" x="0" y="0" flags="0x204"/>
    </TTGlyph>
    <TTGlyph name="Epsilontonos" xMin="-21" yMin="0" xMax="465" yMax="697">
      <component glyphName="E" x="0" y="0" flags="0x204"/>
      <component glyphName="tonos.case" x="-51" y="0" flags="0x4"/>
    </TTGlyph>
    <TTGlyph name="Eta" xMin="111" yMin="0" xMax="559" yMax="685">
      <component glyphName="H" x="0" y="0" flags="0x204"/>
    </TTGlyph>
    <TTGlyph name="Etatonos" xMin="-21" yMin="0" xMax="559" yMax="697">
      <component glyphName="H" x="0" y="0" flags="0x204"/>
      <component glyphName="tonos.case" x="-51" y="0" flags="0x4"/>
    </TTGlyph>
    <TTGlyph name="Eth" xMin="23" yMin="0" xMax="568" yMax="685">
      <contour>
        <pt x="261" y="0" on="1"/>
        <pt x="114" y="0" on="1"/>
        <pt x="114" y="330" on="1"/>
        <pt x="23" y="330" on="1"/>
        <pt x="23" y="376" on="1"/>
        <pt x="114" y="376" on="1"/>
        <pt x="114" y="685" on="1"/>
        <pt x="250" y="685" on="1"/>
        <pt x="309" y="685" on="0"/>
        <pt x="424" y="659" on="0"/>
        <pt x="513" y="586" on="0"/>
        <pt x="568" y="453" on="0"/>
        <pt x="568" y="348" on="1"/>
        <pt x="568" y="242" on="0"/>
        <pt x="511" y="106" on="0"/>
        <pt x="423" y="29" on="0"/>
        <pt x="313" y="0" on="0"/>
      </contour>
      <contour>
        <pt x="173" y="49" on="1"/>
        <pt x="264" y="49" on="1"/>
        <pt x="308" y="49" on="0"/>
        <pt x="396" y="73" on="0"/>
        <pt x="464" y="139" on="0"/>
        <pt x="506" y="256" on="0"/>
        <pt x="506" y="348" on="1"/>
        <pt x="506" y="442" on="0"/>
        <pt x="462" y="556" on="0"/>
        <pt x="392" y="617" on="0"/>
        <pt x="302" y="636" on="0"/>
        <pt x="257" y="636" on="1"/>
        <pt x="173" y="636" on="1"/>
        <pt x="173" y="376" on="1"/>
        <pt x="349" y="376" on="1"/>
        <pt x="349" y="330" on="1"/>
        <pt x="173" y="330" on="1"/>
      </contour>
    </TTGlyph>
    <TTGlyph name="Euro" xMin="34" yMin="-11" xMax="533" yMax="696">
      <contour>
        <pt x="507" y="28" on="1"/>
        <pt x="476" y="11" on="0"/>
        <pt x="404" y="-11" on="0"/>
        <pt x="360" y="-11" on="1"/>
        <pt x="261" y="-11" on="0"/>
        <pt x="133" y="121" on="0"/>
        <pt x="117" y="252" on="1"/>
        <pt x="34" y="252" on="1"/>
        <pt x="45" y="295" on="1"/>
        <pt x="115" y="295" on="1"/>
        <pt x="115" y="398" on="1"/>
        <pt x="34" y="398" on="1"/>
        <pt x="45" y="441" on="1"/>
        <pt x="118" y="441" on="1"/>
        <pt x="140" y="566" on="0"/>
        <pt x="274" y="696" on="0"/>
        <pt x="364" y="696" on="1"/>
        <pt x="413" y="696" on="0"/>
        <pt x="493" y="668" on="0"/>
        <pt x="533" y="642" on="1"/>
        <pt x="509" y="600" on="1"/>
        <pt x="471" y="625" on="0"/>
        <pt x="407" y="646" on="0"/>
        <pt x="365" y="646" on="1"/>
        <pt x="298" y="646" on="0"/>
        <pt x="198" y="547" on="0"/>
        <pt x="179" y="441" on="1"/>
        <pt x="451" y="441" on="1"/>
        <pt x="441" y="398" on="1"/>
        <pt x="175" y="398" on="1"/>
        <pt x="175" y="295" on="1"/>
        <pt x="421" y="295" on="1"/>
        <pt x="411" y="252" on="1"/>
        <pt x="177" y="252" on="1"/>
        <pt x="190" y="139" on="0"/>
        <pt x="290" y="39" on="0"/>
        <pt x="368" y="39" on="1"/>
        <pt x="412" y="39" on="0"/>
        <pt x="476" y="64" on="0"/>
        <pt x="507" y="82" on="1"/>
      </contour>
    </TTGlyph>
    <TTGlyph name="Euro.lf" xMin="36" yMin="-11" xMax="535" yMax="676">
      <contour>
        <pt x="509" y="28" on="1"/>
        <pt x="478" y="11" on="0"/>
        <pt x="406" y="-11" on="0"/>
        <pt x="362" y="-11" on="1"/>
        <pt x="263" y="-11" on="0"/>
        <pt x="136" y="117" on="0"/>
        <pt x="119" y="242" on="1"/>
        <pt x="36" y="242" on="1"/>
        <pt x="47" y="285" on="1"/>
        <pt x="117" y="285" on="1"/>
        <pt x="117" y="388" on="1"/>
        <pt x="36" y="388" on="1"/>
        <pt x="47" y="431" on="1"/>
        <pt x="120" y="431" on="1"/>
        <pt x="142" y="548" on="0"/>
        <pt x="276" y="676" on="0"/>
        <pt x="366" y="676" on="1"/>
        <pt x="415" y="676" on="0"/>
        <pt x="495" y="649" on="0"/>
        <pt x="535" y="622" on="1"/>
        <pt x="511" y="580" on="1"/>
        <pt x="473" y="605" on="0"/>
        <pt x="409" y="627" on="0"/>
        <pt x="367" y="627" on="1"/>
        <pt x="300" y="627" on="0"/>
        <pt x="201" y="530" on="0"/>
        <pt x="181" y="431" on="1"/>
        <pt x="453" y="431" on="1"/>
        <pt x="443" y="388" on="1"/>
        <pt x="177" y="388" on="1"/>
        <pt x="177" y="285" on="1"/>
        <pt x="423" y="285" on="1"/>
        <pt x="413" y="242" on="1"/>
        <pt x="179" y="242" on="1"/>
        <pt x="192" y="136" on="0"/>
        <pt x="292" y="39" on="0"/>
        <pt x="370" y="39" on="1"/>
        <pt x="414" y="39" on="0"/>
        <pt x="478" y="64" on="0"/>
        <pt x="509" y="82" on="1"/>
      </contour>
    </TTGlyph>
    <TTGlyph name="Euro.osf" xMin="36" yMin="-11" xMax="535" yMax="676">
      <component glyphName="Euro.lf" x="0" y="0" flags="0x204"/>
    </TTGlyph>
    <TTGlyph name="Euro.tosf" xMin="50" yMin="-11" xMax="540" yMax="676">
      <contour>
        <pt x="513" y="28" on="1"/>
        <pt x="482" y="11" on="0"/>
        <pt x="414" y="-11" on="0"/>
        <pt x="371" y="-11" on="1"/>
        <pt x="272" y="-11" on="0"/>
        <pt x="149" y="117" on="0"/>
        <pt x="133" y="242" on="1"/>
        <pt x="50" y="242" on="1"/>
        <pt x="61" y="285" on="1"/>
        <pt x="131" y="285" on="1"/>
        <pt x="131" y="388" on="1"/>
        <pt x="50" y="388" on="1"/>
        <pt x="61" y="431" on="1"/>
        <pt x="134" y="431" on="1"/>
        <pt x="156" y="548" on="0"/>
        <pt x="285" y="676" on="0"/>
        <pt x="375" y="676" on="1"/>
        <pt x="423" y="676" on="0"/>
        <pt x="501" y="649" on="0"/>
        <pt x="540" y="622" on="1"/>
        <pt x="515" y="580" on="1"/>
        <pt x="478" y="605" on="0"/>
        <pt x="417" y="627" on="0"/>
        <pt x="376" y="627" on="1"/>
        <pt x="309" y="627" on="0"/>
        <pt x="214" y="530" on="0"/>
        <pt x="195" y="431" on="1"/>
        <pt x="461" y="431" on="1"/>
        <pt x="451" y="388" on="1"/>
        <pt x="191" y="388" on="1"/>
        <pt x="191" y="285" on="1"/>
        <pt x="431" y="285" on="1"/>
        <pt x="421" y="242" on="1"/>
        <pt x="193" y="242" on="1"/>
        <pt x="206" y="136" on="0"/>
        <pt x="301" y="39" on="0"/>
        <pt x="379" y="39" on="1"/>
        <pt x="422" y="39" on="0"/>
        <pt x="483" y="64" on="0"/>
        <pt x="513" y="82" on="1"/>
      </contour>
    </TTGlyph>
    <TTGlyph name="F" xMin="111" yMin="0" xMax="452" yMax="685">
      <contour>
        <pt x="111" y="685" on="1"/>
        <pt x="452" y="685" on="1"/>
        <pt x="445" y="636" on="1"/>
        <pt x="170" y="636" on="1"/>
        <pt x="170" y="367" on="1"/>
        <pt x="408" y="367" on="1"/>
        <pt x="408" y="319" on="1"/>
        <pt x="170" y="319" on="1"/>
        <pt x="170" y="0" on="1"/>
        <pt x="111" y="0" on="1"/>
      </contour>
    </TTGlyph>
    <TTGlyph name="G" xMin="66" yMin="-11" xMax="552" yMax="696">
      <contour>
        <pt x="66" y="345" on="1"/>
        <pt x="66" y="433" on="0"/>
        <pt x="115" y="565" on="0"/>
        <pt x="194" y="652" on="0"/>
        <pt x="297" y="696" on="0"/>
        <pt x="350" y="696" on="1"/>
        <pt x="411" y="696" on="0"/>
        <pt x="498" y="662" on="0"/>
        <pt x="540" y="628" on="1"/>
        <pt x="504" y="591" on="1"/>
        <pt x="468" y="619" on="0"/>
        <pt x="397" y="646" on="0"/>
        <pt x="351" y="646" on="1"/>
        <pt x="311" y="646" on="0"/>
        <pt x="231" y="613" on="0"/>
        <pt x="167" y="541" on="0"/>
        <pt x="128" y="426" on="0"/>
        <pt x="128" y="345" on="1"/>
        <pt x="128" y="188" on="0"/>
        <pt x="248" y="39" on="0"/>
        <pt x="349" y="39" on="1"/>
        <pt x="392" y="39" on="0"/>
        <pt x="462" y="57" on="0"/>
        <pt x="493" y="75" on="1"/>
        <pt x="493" y="319" on="1"/>
        <pt x="359" y="319" on="1"/>
        <pt x="352" y="369" on="1"/>
        <pt x="552" y="369" on="1"/>
        <pt x="552" y="45" on="1"/>
        <pt x="507" y="19" on="0"/>
        <pt x="404" y="-11" on="0"/>
        <pt x="346" y="-11" on="1"/>
        <pt x="221" y="-11" on="0"/>
        <pt x="66" y="168" on="0"/>
      </contour>
    </TTGlyph>
    <TTGlyph name="Gamma" xMin="111" yMin="0" xMax="498" yMax="685">
      <component glyphName="uni0413" x="0" y="0" flags="0x204"/>
    </TTGlyph>
    <TTGlyph name="Gbreve" xMin="66" yMin="-11" xMax="552" yMax="873">
      <component glyphName="G" x="0" y="0" flags="0x204"/>
      <component glyphName="breve.case" x="192" y="0" flags="0x4"/>
    </TTGlyph>
    <TTGlyph name="Gcircumflex" xMin="66" yMin="-11" xMax="552" yMax="893">
      <component glyphName="circumflex.case" x="174" y="0" flags="0x4"/>
      <component glyphName="G" x="0" y="0" flags="0x204"/>
    </TTGlyph>
    <TTGlyph name="Gcommaaccent" xMin="66" yMin="-279" xMax="552" yMax="696">
      <component glyphName="uni0326.case" x="260" y="0" flags="0x4"/>
      <component glyphName="G" x="0" y="0" flags="0x204"/>
    </TTGlyph>
    <TTGlyph name="Gdotaccent" xMin="66" yMin="-11" xMax="552" yMax="878">
      <component glyphName="dotaccent.case" x="279" y="0" flags="0x4"/>
      <component glyphName="G" x="0" y="0" flags="0x204"/>
    </TTGlyph>
    <TTGlyph name="H" xMin="111" yMin="0" xMax="559" yMax="685">
      <contour>
        <pt x="559" y="0" on="1"/>
        <pt x="500" y="0" on="1"/>
        <pt x="500" y="335" on="1"/>
        <pt x="170" y="335" on="1"/>
        <pt x="170" y="0" on="1"/>
        <pt x="111" y="0" on="1"/>
        <pt x="111" y="685" on="1"/>
        <pt x="170" y="685" on="1"/>
        <pt x="170" y="386" on="1"/>
        <pt x="500" y="386" on="1"/>
        <pt x="500" y="685" on="1"/>
        <pt x="559" y="685" on="1"/>
      </contour>
    </TTGlyph>
    <TTGlyph name="Hbar" xMin="46" yMin="0" xMax="621" yMax="685">
      <contour>
        <pt x="174" y="386" on="1"/>
        <pt x="504" y="386" on="1"/>
        <pt x="504" y="514" on="1"/>
        <pt x="174" y="514" on="1"/>
      </contour>
      <contour>
        <pt x="174" y="335" on="1"/>
        <pt x="174" y="0" on="1"/>
        <pt x="115" y="0" on="1"/>
        <pt x="115" y="514" on="1"/>
        <pt x="46" y="514" on="1"/>
        <pt x="46" y="557" on="1"/>
        <pt x="115" y="557" on="1"/>
        <pt x="115" y="685" on="1"/>
        <pt x="174" y="685" on="1"/>
        <pt x="174" y="557" on="1"/>
        <pt x="504" y="557" on="1"/>
        <pt x="504" y="685" on="1"/>
        <pt x="563" y="685" on="1"/>
        <pt x="563" y="557" on="1"/>
        <pt x="621" y="557" on="1"/>
        <pt x="621" y="514" on="1"/>
        <pt x="563" y="514" on="1"/>
        <pt x="563" y="0" on="1"/>
        <pt x="504" y="0" on="1"/>
        <pt x="504" y="335" on="1"/>
      </contour>
    </TTGlyph>
    <TTGlyph name="Hcircumflex" xMin="111" yMin="0" xMax="559" yMax="893">
      <component glyphName="H" x="0" y="0" flags="0x204"/>
      <component glyphName="circumflex.case" x="156" y="0" flags="0x4"/>
    </TTGlyph>
    <TTGlyph name="I" xMin="111" yMin="0" xMax="171" yMax="685">
      <contour>
        <pt x="111" y="685" on="1"/>
        <pt x="171" y="685" on="1"/>
        <pt x="171" y="0" on="1"/>
        <pt x="111" y="0" on="1"/>
      </contour>
    </TTGlyph>
    <TTGlyph name="IJ" xMin="111" yMin="-118" xMax="467" yMax="685">
      <component glyphName="I" x="0" y="0" flags="0x204"/>
      <component glyphName="J" x="282" y="0" flags="0x4"/>
    </TTGlyph>
    <TTGlyph name="Iacute" xMin="38" yMin="0" xMax="251" yMax="887">
      <component glyphName="I" x="0" y="0" flags="0x204"/>
      <component glyphName="acute.case" x="8" y="0" flags="0x4"/>
    </TTGlyph>
    <TTGlyph name="Ibreve" xMin="11" yMin="0" xMax="271" yMax="873">
      <component glyphName="I" x="0" y="0" flags="0x204"/>
      <component glyphName="breve.case" x="-19" y="0" flags="0x4"/>
    </TTGlyph>
    <TTGlyph name="Icircumflex" xMin="-7" yMin="0" xMax="287" yMax="893">
      <component glyphName="I" x="0" y="0" flags="0x204"/>
      <component glyphName="circumflex.case" x="-37" y="0" flags="0x4"/>
    </TTGlyph>
    <TTGlyph name="Idieresis" xMin="6" yMin="0" xMax="273" yMax="867">
      <component glyphName="I" x="0" y="0" flags="0x204"/>
      <component glyphName="dieresis.case" x="-24" y="0" flags="0x4"/>
    </TTGlyph>
    <TTGlyph name="Idotaccent" xMin="98" yMin="0" xMax="184" yMax="878">
      <component glyphName="I" x="0" y="0" flags="0x204"/>
      <component glyphName="dotaccent.case" x="68" y="0" flags="0x4"/>
    </TTGlyph>
    <TTGlyph name="Igrave" xMin="26" yMin="0" xMax="239" yMax="887">
      <component glyphName="I" x="0" y="0" flags="0x204"/>
      <component glyphName="grave.case" x="-4" y="0" flags="0x4"/>
    </TTGlyph>
    <TTGlyph name="Imacron" xMin="21" yMin="0" xMax="261" yMax="845">
      <component glyphName="I" x="0" y="0" flags="0x204"/>
      <component glyphName="macron.case" x="-9" y="-3" flags="0x4"/>
    </TTGlyph>
    <TTGlyph name="Iogonek" xMin="-4" yMin="-217" xMax="171" yMax="685">
      <component glyphName="I" x="0" y="0" flags="0x204"/>
      <component glyphName="ogonek" x="-1" y="0" flags="0x4"/>
    </TTGlyph>
    <TTGlyph name="Iota" xMin="111" yMin="0" xMax="171" yMax="685">
      <component glyphName="I" x="0" y="0" flags="0x204"/>
    </TTGlyph>
    <TTGlyph name="Iotadieresis" xMin="6" yMin="0" xMax="273" yMax="867">
      <component glyphName="I" x="0" y="0" flags="0x204"/>
      <component glyphName="dieresis.case" x="-24" y="0" flags="0x4"/>
    </TTGlyph>
    <TTGlyph name="Iotatonos" xMin="-21" yMin="0" xMax="171" yMax="697">
      <component glyphName="I" x="0" y="0" flags="0x204"/>
      <component glyphName="tonos.case" x="-51" y="0" flags="0x4"/>
    </TTGlyph>
    <TTGlyph name="Itilde" xMin="-9" yMin="0" xMax="291" yMax="884">
      <component glyphName="I" x="0" y="0" flags="0x204"/>
      <component glyphName="tilde.case" x="-39" y="0" flags="0x4"/>
    </TTGlyph>
    <TTGlyph name="J" xMin="13" yMin="-118" xMax="185" yMax="685">
      <contour>
        <pt x="126" y="685" on="1"/>
        <pt x="185" y="685" on="1"/>
        <pt x="185" y="91" on="1"/>
        <pt x="185" y="1" on="0"/>
        <pt x="113" y="-86" on="0"/>
        <pt x="29" y="-118" on="1"/>
        <pt x="13" y="-75" on="1"/>
        <pt x="81" y="-45" on="0"/>
        <pt x="126" y="25" on="0"/>
        <pt x="126" y="94" on="1"/>
      </contour>
    </TTGlyph>
    <TTGlyph name="Jcircumflex" xMin="7" yMin="-118" xMax="301" yMax="893">
      <component glyphName="J" x="0" y="0" flags="0x204"/>
      <component glyphName="circumflex.case" x="-23" y="0" flags="0x4"/>
    </TTGlyph>
    <TTGlyph name="K" xMin="111" yMin="0" xMax="546" yMax="685">
      <contour>
        <pt x="111" y="685" on="1"/>
        <pt x="170" y="685" on="1"/>
        <pt x="170" y="0" on="1"/>
        <pt x="111" y="0" on="1"/>
      </contour>
      <contour>
        <pt x="461" y="685" on="1"/>
        <pt x="529" y="685" on="1"/>
        <pt x="244" y="370" on="1"/>
        <pt x="546" y="0" on="1"/>
        <pt x="474" y="0" on="1"/>
        <pt x="174" y="367" on="1"/>
      </contour>
    </TTGlyph>
    <TTGlyph name="Kappa" xMin="111" yMin="0" xMax="546" yMax="685">
      <component glyphName="K" x="0" y="0" flags="0x204"/>
    </TTGlyph>
    <TTGlyph name="Kcommaaccent" xMin="111" yMin="-279" xMax="546" yMax="685">
      <component glyphName="uni0326.case" x="227" y="0" flags="0x4"/>
      <component glyphName="K" x="0" y="0" flags="0x204"/>
    </TTGlyph>
    <TTGlyph name="L" xMin="111" yMin="0" xMax="457" yMax="685">
      <contour>
        <pt x="111" y="685" on="1"/>
        <pt x="170" y="685" on="1"/>
        <pt x="170" y="53" on="1"/>
        <pt x="457" y="53" on="1"/>
        <pt x="448" y="0" on="1"/>
        <pt x="111" y="0" on="1"/>
      </contour>
    </TTGlyph>
    <TTGlyph name="Lacute" xMin="38" yMin="0" xMax="457" yMax="887">
      <component glyphName="acute.case" x="8" y="0" flags="0x4"/>
      <component glyphName="L" x="0" y="0" flags="0x204"/>
    </TTGlyph>
    <TTGlyph name="Lambda" xMin="17" yMin="0" xMax="548" yMax="685">
      <contour>
        <pt x="246" y="685" on="1"/>
        <pt x="319" y="685" on="1"/>
        <pt x="548" y="0" on="1"/>
        <pt x="486" y="0" on="1"/>
        <pt x="282" y="637" on="1"/>
        <pt x="76" y="0" on="1"/>
        <pt x="17" y="0" on="1"/>
      </contour>
    </TTGlyph>
    <TTGlyph name="Lcaron" xMin="111" yMin="0" xMax="457" yMax="691">
      <component glyphName="caron.alt" x="178" y="0" flags="0x4"/>
      <component glyphName="L" x="0" y="0" flags="0x204"/>
    </TTGlyph>
    <TTGlyph name="Lcommaaccent" xMin="111" yMin="-279" xMax="457" yMax="685">
      <component glyphName="uni0326.case" x="202" y="0" flags="0x4"/>
      <component glyphName="L" x="0" y="0" flags="0x204"/>
    </TTGlyph>
    <TTGlyph name="Ldot" xMin="111" yMin="0" xMax="457" yMax="685">
      <component glyphName="L" x="0" y="0" flags="0x204"/>
      <component glyphName="dotaccent" x="296" y="-342" flags="0x4"/>
    </TTGlyph>
    <TTGlyph name="Lslash" xMin="33" yMin="0" xMax="467" yMax="685">
      <contour>
        <pt x="459" y="0" on="1"/>
        <pt x="122" y="0" on="1"/>
        <pt x="122" y="282" on="1"/>
        <pt x="57" y="242" on="1"/>
        <pt x="33" y="280" on="1"/>
        <pt x="122" y="335" on="1"/>
        <pt x="122" y="685" on="1"/>
        <pt x="181" y="685" on="1"/>
        <pt x="181" y="372" on="1"/>
        <pt x="362" y="485" on="1"/>
        <pt x="386" y="446" on="1"/>
        <pt x="181" y="319" on="1"/>
        <pt x="181" y="53" on="1"/>
        <pt x="467" y="53" on="1"/>
      </contour>
    </TTGlyph>
    <TTGlyph name="M" xMin="69" yMin="0" xMax="701" yMax="685">
      <contour>
        <pt x="552" y="685" on="1"/>
        <pt x="635" y="685" on="1"/>
        <pt x="701" y="0" on="1"/>
        <pt x="644" y="0" on="1"/>
        <pt x="612" y="329" on="1"/>
        <pt x="604" y="411" on="0"/>
        <pt x="589" y="581" on="0"/>
        <pt x="586" y="628" on="1"/>
        <pt x="413" y="81" on="1"/>
        <pt x="357" y="81" on="1"/>
        <pt x="178" y="628" on="1"/>
        <pt x="177" y="577" on="0"/>
        <pt x="162" y="409" on="0"/>
        <pt x="155" y="331" on="1"/>
        <pt x="125" y="0" on="1"/>
        <pt x="69" y="0" on="1"/>
        <pt x="134" y="685" on="1"/>
        <pt x="216" y="685" on="1"/>
        <pt x="386" y="150" on="1"/>
      </contour>
    </TTGlyph>
    <TTGlyph name="Mu" xMin="69" yMin="0" xMax="701" yMax="685">
      <component glyphName="M" x="0" y="0" flags="0x204"/>
    </TTGlyph>
    <TTGlyph name="N" xMin="111" yMin="0" xMax="561" yMax="685">
      <contour>
        <pt x="505" y="685" on="1"/>
        <pt x="561" y="685" on="1"/>
        <pt x="561" y="0" on="1"/>
        <pt x="484" y="0" on="1"/>
        <pt x="159" y="620" on="1"/>
        <pt x="162" y="585" on="0"/>
        <pt x="167" y="477" on="0"/>
        <pt x="167" y="385" on="1"/>
        <pt x="167" y="0" on="1"/>
        <pt x="111" y="0" on="1"/>
        <pt x="111" y="685" on="1"/>
        <pt x="187" y="685" on="1"/>
        <pt x="513" y="65" on="1"/>
        <pt x="512" y="87" on="0"/>
        <pt x="505" y="201" on="0"/>
        <pt x="505" y="267" on="1"/>
      </contour>
    </TTGlyph>
    <TTGlyph name="Nacute" xMin="111" yMin="0" xMax="561" yMax="887">
      <component glyphName="acute.case" x="212" y="0" flags="0x4"/>
      <component glyphName="N" x="0" y="0" flags="0x204"/>
    </TTGlyph>
    <TTGlyph name="Nacute.loclPLK" xMin="111" yMin="0" xMax="561" yMax="908">
      <component glyphName="N" x="0" y="0" flags="0x204"/>
      <component glyphName="acute.case.loclPLK" x="212" y="0" flags="0x4"/>
    </TTGlyph>
    <TTGlyph name="Ncaron" xMin="111" yMin="0" xMax="561" yMax="887">
      <component glyphName="N" x="0" y="0" flags="0x204"/>
      <component glyphName="caron.case" x="171" y="0" flags="0x4"/>
    </TTGlyph>
    <TTGlyph name="Ncommaaccent" xMin="111" yMin="-279" xMax="561" yMax="685">
      <component glyphName="uni0326.case" x="257" y="0" flags="0x4"/>
      <component glyphName="N" x="0" y="0" flags="0x204"/>
    </TTGlyph>
    <TTGlyph name="Ntilde" xMin="111" yMin="0" xMax="561" yMax="884">
      <component glyphName="tilde.case" x="165" y="0" flags="0x4"/>
      <component glyphName="N" x="0" y="0" flags="0x204"/>
    </TTGlyph>
    <TTGlyph name="Nu" xMin="111" yMin="0" xMax="561" yMax="685">
      <component glyphName="N" x="0" y="0" flags="0x204"/>
    </TTGlyph>
    <TTGlyph name="O" xMin="66" yMin="-11" xMax="625" yMax="696">
      <contour>
        <pt x="66" y="341" on="1"/>
        <pt x="66" y="510" on="0"/>
        <pt x="223" y="696" on="0"/>
        <pt x="345" y="696" on="1"/>
        <pt x="470" y="696" on="0"/>
        <pt x="625" y="514" on="0"/>
        <pt x="625" y="342" on="1"/>
        <pt x="625" y="174" on="0"/>
        <pt x="471" y="-11" on="0"/>
        <pt x="345" y="-11" on="1"/>
        <pt x="222" y="-11" on="0"/>
        <pt x="66" y="171" on="0"/>
      </contour>
      <contour>
        <pt x="563" y="342" on="1"/>
        <pt x="563" y="497" on="0"/>
        <pt x="444" y="646" on="0"/>
        <pt x="345" y="646" on="1"/>
        <pt x="249" y="646" on="0"/>
        <pt x="128" y="496" on="0"/>
        <pt x="128" y="341" on="1"/>
        <pt x="128" y="188" on="0"/>
        <pt x="250" y="39" on="0"/>
        <pt x="345" y="39" on="1"/>
        <pt x="445" y="39" on="0"/>
        <pt x="563" y="188" on="0"/>
      </contour>
    </TTGlyph>
    <TTGlyph name="OE" xMin="66" yMin="-11" xMax="823" yMax="696">
      <contour>
        <pt x="543" y="347" on="1"/>
        <pt x="543" y="498" on="0"/>
        <pt x="427" y="646" on="0"/>
        <pt x="335" y="646" on="1"/>
        <pt x="246" y="646" on="0"/>
        <pt x="128" y="496" on="0"/>
        <pt x="128" y="341" on="1"/>
        <pt x="128" y="188" on="0"/>
        <pt x="248" y="39" on="0"/>
        <pt x="335" y="39" on="1"/>
        <pt x="428" y="39" on="0"/>
        <pt x="543" y="190" on="0"/>
      </contour>
      <contour>
        <pt x="823" y="0" on="1"/>
        <pt x="403" y="0" on="1"/>
        <pt x="387" y="-5" on="0"/>
        <pt x="352" y="-11" on="0"/>
        <pt x="334" y="-11" on="1"/>
        <pt x="219" y="-11" on="0"/>
        <pt x="66" y="171" on="0"/>
        <pt x="66" y="341" on="1"/>
        <pt x="66" y="510" on="0"/>
        <pt x="220" y="696" on="0"/>
        <pt x="334" y="696" on="1"/>
        <pt x="353" y="696" on="0"/>
        <pt x="390" y="690" on="0"/>
        <pt x="406" y="685" on="1"/>
        <pt x="816" y="685" on="1"/>
        <pt x="809" y="636" on="1"/>
        <pt x="491" y="636" on="1"/>
        <pt x="541" y="598" on="0"/>
        <pt x="600" y="468" on="0"/>
        <pt x="604" y="380" on="1"/>
        <pt x="772" y="380" on="1"/>
        <pt x="772" y="331" on="1"/>
        <pt x="605" y="331" on="1"/>
        <pt x="603" y="233" on="0"/>
        <pt x="542" y="89" on="0"/>
        <pt x="489" y="49" on="1"/>
        <pt x="823" y="49" on="1"/>
      </contour>
    </TTGlyph>
    <TTGlyph name="Oacute" xMin="66" yMin="-11" xMax="625" yMax="887">
      <component glyphName="acute.case" x="206" y="0" flags="0x4"/>
      <component glyphName="O" x="0" y="0" flags="0x204"/>
    </TTGlyph>
    <TTGlyph name="Oacute.loclPLK" xMin="66" yMin="-11" xMax="625" yMax="908">
      <component glyphName="O" x="0" y="0" flags="0x204"/>
      <component glyphName="acute.case.loclPLK" x="206" y="0" flags="0x4"/>
    </TTGlyph>
    <TTGlyph name="Obreve" xMin="66" yMin="-11" xMax="625" yMax="873">
      <component glyphName="O" x="0" y="0" flags="0x204"/>
      <component glyphName="breve.case" x="179" y="0" flags="0x4"/>
    </TTGlyph>
    <TTGlyph name="Ocircumflex" xMin="66" yMin="-11" xMax="625" yMax="893">
      <component glyphName="circumflex.case" x="161" y="0" flags="0x4"/>
      <component glyphName="O" x="0" y="0" flags="0x204"/>
    </TTGlyph>
    <TTGlyph name="Odieresis" xMin="66" yMin="-11" xMax="625" yMax="867">
      <component glyphName="O" x="0" y="0" flags="0x204"/>
      <component glyphName="dieresis.case" x="175" y="0" flags="0x4"/>
    </TTGlyph>
    <TTGlyph name="Ograve" xMin="66" yMin="-11" xMax="625" yMax="887">
      <component glyphName="grave.case" x="195" y="0" flags="0x4"/>
      <component glyphName="O" x="0" y="0" flags="0x204"/>
    </TTGlyph>
    <TTGlyph name="Ohm" xMin="66" yMin="0" xMax="625" yMax="696">
      <component glyphName="Omega" x="0" y="0" flags="0x204"/>
    </TTGlyph>
    <TTGlyph name="Ohungarumlaut" xMin="66" yMin="-11" xMax="625" yMax="937">
      <component glyphName="hungarumlaut.case" x="218" y="0" flags="0x4"/>
      <component glyphName="O" x="0" y="0" flags="0x204"/>
    </TTGlyph>
    <TTGlyph name="Omacron" xMin="66" yMin="-11" xMax="625" yMax="845">
      <component glyphName="O" x="0" y="0" flags="0x204"/>
      <component glyphName="macron.case" x="189" y="-3" flags="0x4"/>
    </TTGlyph>
    <TTGlyph name="Omega" xMin="66" yMin="0" xMax="625" yMax="696">
      <contour>
        <pt x="66" y="345" on="1"/>
        <pt x="66" y="511" on="0"/>
        <pt x="223" y="696" on="0"/>
        <pt x="345" y="696" on="1"/>
        <pt x="470" y="696" on="0"/>
        <pt x="625" y="515" on="0"/>
        <pt x="625" y="346" on="1"/>
        <pt x="625" y="227" on="0"/>
        <pt x="553" y="89" on="0"/>
        <pt x="481" y="52" on="1"/>
        <pt x="603" y="52" on="1"/>
        <pt x="603" y="0" on="1"/>
        <pt x="405" y="0" on="1"/>
        <pt x="405" y="51" on="1"/>
        <pt x="483" y="79" on="0"/>
        <pt x="563" y="222" on="0"/>
        <pt x="563" y="346" on="1"/>
        <pt x="563" y="498" on="0"/>
        <pt x="444" y="646" on="0"/>
        <pt x="345" y="646" on="1"/>
        <pt x="249" y="646" on="0"/>
        <pt x="128" y="497" on="0"/>
        <pt x="128" y="345" on="1"/>
        <pt x="128" y="219" on="0"/>
        <pt x="211" y="82" on="0"/>
        <pt x="286" y="51" on="1"/>
        <pt x="286" y="0" on="1"/>
        <pt x="88" y="0" on="1"/>
        <pt x="88" y="52" on="1"/>
        <pt x="208" y="52" on="1"/>
        <pt x="135" y="90" on="0"/>
        <pt x="66" y="228" on="0"/>
      </contour>
    </TTGlyph>
    <TTGlyph name="Omegatonos" xMin="2" yMin="0" xMax="625" yMax="697">
      <component glyphName="Omega" x="0" y="0" flags="0x204"/>
      <component glyphName="tonos.case" x="-28" y="0" flags="0x4"/>
    </TTGlyph>
    <TTGlyph name="Omicron" xMin="66" yMin="-11" xMax="625" yMax="696">
      <component glyphName="O" x="0" y="0" flags="0x204"/>
    </TTGlyph>
    <TTGlyph name="Omicrontonos" xMin="-4" yMin="-11" xMax="625" yMax="697">
      <component glyphName="O" x="0" y="0" flags="0x204"/>
      <component glyphName="tonos.case" x="-34" y="0" flags="0x4"/>
    </TTGlyph>
    <TTGlyph name="Oslash" xMin="66" yMin="-120" xMax="625" yMax="810">
      <contour>
        <pt x="128" y="341" on="1"/>
        <pt x="128" y="232" on="0"/>
        <pt x="189" y="96" on="0"/>
        <pt x="241" y="65" on="1"/>
        <pt x="411" y="637" on="1"/>
        <pt x="396" y="641" on="0"/>
        <pt x="363" y="646" on="0"/>
        <pt x="345" y="646" on="1"/>
        <pt x="249" y="646" on="0"/>
        <pt x="128" y="496" on="0"/>
      </contour>
      <contour>
        <pt x="345" y="39" on="1"/>
        <pt x="445" y="39" on="0"/>
        <pt x="563" y="188" on="0"/>
        <pt x="563" y="342" on="1"/>
        <pt x="563" y="454" on="0"/>
        <pt x="502" y="592" on="0"/>
        <pt x="449" y="622" on="1"/>
        <pt x="279" y="49" on="1"/>
        <pt x="294" y="44" on="0"/>
        <pt x="328" y="39" on="0"/>
      </contour>
      <contour>
        <pt x="345" y="-11" on="1"/>
        <pt x="325" y="-11" on="0"/>
        <pt x="286" y="-6" on="0"/>
        <pt x="267" y="-1" on="1"/>
        <pt x="234" y="-120" on="1"/>
        <pt x="183" y="-105" on="1"/>
        <pt x="221" y="17" on="1"/>
        <pt x="149" y="54" on="0"/>
        <pt x="66" y="218" on="0"/>
        <pt x="66" y="341" on="1"/>
        <pt x="66" y="510" on="0"/>
        <pt x="223" y="696" on="0"/>
        <pt x="345" y="696" on="1"/>
        <pt x="365" y="696" on="0"/>
        <pt x="404" y="691" on="0"/>
        <pt x="422" y="686" on="1"/>
        <pt x="456" y="810" on="1"/>
        <pt x="508" y="796" on="1"/>
        <pt x="468" y="669" on="1"/>
        <pt x="540" y="633" on="0"/>
        <pt x="625" y="467" on="0"/>
        <pt x="625" y="342" on="1"/>
        <pt x="625" y="174" on="0"/>
        <pt x="471" y="-11" on="0"/>
      </contour>
    </TTGlyph>
    <TTGlyph name="Oslashacute" xMin="66" yMin="-120" xMax="625" yMax="899">
      <component glyphName="Oslash" x="0" y="0" flags="0x204"/>
      <component glyphName="acute.case" x="206" y="12" flags="0x4"/>
    </TTGlyph>
    <TTGlyph name="Oslashacute.001" xMin="66" yMin="-120" xMax="625" yMax="899">
      <component glyphName="Oslash" x="0" y="0" flags="0x204"/>
      <component glyphName="acute.case" x="206" y="12" flags="0x4"/>
    </TTGlyph>
    <TTGlyph name="Otilde" xMin="66" yMin="-11" xMax="625" yMax="884">
      <component glyphName="O" x="0" y="0" flags="0x204"/>
      <component glyphName="tilde.case" x="159" y="0" flags="0x4"/>
    </TTGlyph>
    <TTGlyph name="P" xMin="111" yMin="0" xMax="525" yMax="685">
      <contour>
        <pt x="170" y="636" on="1"/>
        <pt x="170" y="316" on="1"/>
        <pt x="269" y="316" on="1"/>
        <pt x="354" y="316" on="0"/>
        <pt x="463" y="384" on="0"/>
        <pt x="463" y="479" on="1"/>
        <pt x="463" y="566" on="0"/>
        <pt x="361" y="636" on="0"/>
        <pt x="271" y="636" on="1"/>
      </contour>
      <contour>
        <pt x="269" y="267" on="1"/>
        <pt x="170" y="267" on="1"/>
        <pt x="170" y="0" on="1"/>
        <pt x="111" y="0" on="1"/>
        <pt x="111" y="685" on="1"/>
        <pt x="271" y="685" on="1"/>
        <pt x="390" y="685" on="0"/>
        <pt x="525" y="586" on="0"/>
        <pt x="525" y="480" on="1"/>
        <pt x="525" y="365" on="0"/>
        <pt x="379" y="267" on="0"/>
      </contour>
    </TTGlyph>
    <TTGlyph name="Phi" xMin="41" yMin="0" xMax="750" yMax="685">
      <contour>
        <pt x="424" y="0" on="1"/>
        <pt x="366" y="0" on="1"/>
        <pt x="366" y="70" on="1"/>
        <pt x="205" y="76" on="0"/>
        <pt x="41" y="222" on="0"/>
        <pt x="41" y="343" on="1"/>
        <pt x="41" y="471" on="0"/>
        <pt x="209" y="609" on="0"/>
        <pt x="366" y="614" on="1"/>
        <pt x="366" y="685" on="1"/>
        <pt x="424" y="685" on="1"/>
        <pt x="424" y="614" on="1"/>
        <pt x="586" y="609" on="0"/>
        <pt x="750" y="463" on="0"/>
        <pt x="750" y="344" on="1"/>
        <pt x="750" y="214" on="0"/>
        <pt x="581" y="76" on="0"/>
        <pt x="424" y="70" on="1"/>
      </contour>
      <contour>
        <pt x="101" y="343" on="1"/>
        <pt x="101" y="238" on="0"/>
        <pt x="236" y="121" on="0"/>
        <pt x="368" y="117" on="1"/>
        <pt x="368" y="568" on="1"/>
        <pt x="235" y="561" on="0"/>
        <pt x="101" y="453" on="0"/>
      </contour>
      <contour>
        <pt x="689" y="344" on="1"/>
        <pt x="689" y="448" on="0"/>
        <pt x="553" y="564" on="0"/>
        <pt x="422" y="568" on="1"/>
        <pt x="422" y="117" on="1"/>
        <pt x="555" y="124" on="0"/>
        <pt x="689" y="232" on="0"/>
      </contour>
    </TTGlyph>
    <TTGlyph name="Pi" xMin="111" yMin="0" xMax="554" yMax="685">
      <component glyphName="uni041F" x="0" y="0" flags="0x204"/>
    </TTGlyph>
    <TTGlyph name="Psi" xMin="41" yMin="0" xMax="629" yMax="685">
      <contour>
        <pt x="364" y="0" on="1"/>
        <pt x="305" y="0" on="1"/>
        <pt x="305" y="201" on="1"/>
        <pt x="175" y="208" on="0"/>
        <pt x="41" y="322" on="0"/>
        <pt x="41" y="426" on="1"/>
        <pt x="41" y="685" on="1"/>
        <pt x="99" y="685" on="1"/>
        <pt x="99" y="431" on="1"/>
        <pt x="99" y="344" on="0"/>
        <pt x="202" y="254" on="0"/>
        <pt x="306" y="250" on="1"/>
        <pt x="306" y="685" on="1"/>
        <pt x="363" y="685" on="1"/>
        <pt x="363" y="250" on="1"/>
        <pt x="466" y="254" on="0"/>
        <pt x="571" y="344" on="0"/>
        <pt x="571" y="431" on="1"/>
        <pt x="571" y="685" on="1"/>
        <pt x="629" y="685" on="1"/>
        <pt x="629" y="427" on="1"/>
        <pt x="629" y="320" on="0"/>
        <pt x="492" y="207" on="0"/>
        <pt x="364" y="201" on="1"/>
      </contour>
    </TTGlyph>
    <TTGlyph name="Q" xMin="66" yMin="-92" xMax="649" yMax="696">
      <contour>
        <pt x="610" y="-92" on="1"/>
        <pt x="554" y="-43" on="0"/>
        <pt x="436" y="-9" on="0"/>
        <pt x="345" y="-9" on="1"/>
        <pt x="222" y="-9" on="0"/>
        <pt x="66" y="171" on="0"/>
        <pt x="66" y="341" on="1"/>
        <pt x="66" y="510" on="0"/>
        <pt x="223" y="696" on="0"/>
        <pt x="345" y="696" on="1"/>
        <pt x="470" y="696" on="0"/>
        <pt x="625" y="514" on="0"/>
        <pt x="625" y="342" on="1"/>
        <pt x="625" y="201" on="0"/>
        <pt x="526" y="51" on="0"/>
        <pt x="451" y="23" on="1"/>
        <pt x="507" y="22" on="0"/>
        <pt x="609" y="-10" on="0"/>
        <pt x="649" y="-43" on="1"/>
      </contour>
      <contour>
        <pt x="563" y="342" on="1"/>
        <pt x="563" y="497" on="0"/>
        <pt x="444" y="646" on="0"/>
        <pt x="345" y="646" on="1"/>
        <pt x="249" y="646" on="0"/>
        <pt x="128" y="496" on="0"/>
        <pt x="128" y="341" on="1"/>
        <pt x="128" y="188" on="0"/>
        <pt x="250" y="39" on="0"/>
        <pt x="345" y="39" on="1"/>
        <pt x="445" y="39" on="0"/>
        <pt x="563" y="188" on="0"/>
      </contour>
    </TTGlyph>
    <TTGlyph name="R" xMin="111" yMin="0" xMax="556" yMax="685">
      <contour>
        <pt x="170" y="636" on="1"/>
        <pt x="170" y="356" on="1"/>
        <pt x="285" y="356" on="1"/>
        <pt x="366" y="356" on="0"/>
        <pt x="458" y="424" on="0"/>
        <pt x="458" y="499" on="1"/>
        <pt x="458" y="568" on="0"/>
        <pt x="373" y="636" on="0"/>
        <pt x="274" y="636" on="1"/>
      </contour>
      <contour>
        <pt x="485" y="0" on="1"/>
        <pt x="308" y="308" on="1"/>
        <pt x="170" y="308" on="1"/>
        <pt x="170" y="0" on="1"/>
        <pt x="111" y="0" on="1"/>
        <pt x="111" y="685" on="1"/>
        <pt x="277" y="685" on="1"/>
        <pt x="400" y="685" on="0"/>
        <pt x="520" y="589" on="0"/>
        <pt x="520" y="499" on="1"/>
        <pt x="520" y="423" on="0"/>
        <pt x="439" y="337" on="0"/>
        <pt x="367" y="318" on="1"/>
        <pt x="556" y="0" on="1"/>
      </contour>
    </TTGlyph>
    <TTGlyph name="Racute" xMin="111" yMin="0" xMax="556" yMax="887">
      <component glyphName="R" x="0" y="0" flags="0x204"/>
      <component glyphName="acute.case" x="161" y="0" flags="0x4"/>
    </TTGlyph>
    <TTGlyph name="Rcaron" xMin="111" yMin="0" xMax="556" yMax="887">
      <component glyphName="R" x="0" y="0" flags="0x204"/>
      <component glyphName="caron.case" x="119" y="0" flags="0x4"/>
    </TTGlyph>
    <TTGlyph name="Rcommaaccent" xMin="111" yMin="-279" xMax="556" yMax="685">
      <component glyphName="uni0326.case" x="227" y="0" flags="0x4"/>
      <component glyphName="R" x="0" y="0" flags="0x204"/>
    </TTGlyph>
    <TTGlyph name="Rho" xMin="111" yMin="0" xMax="525" yMax="685">
      <component glyphName="P" x="0" y="0" flags="0x204"/>
    </TTGlyph>
    <TTGlyph name="S" xMin="39" yMin="-11" xMax="485" yMax="696">
      <contour>
        <pt x="67" y="528" on="1"/>
        <pt x="67" y="600" on="0"/>
        <pt x="178" y="696" on="0"/>
        <pt x="267" y="696" on="1"/>
        <pt x="333" y="696" on="0"/>
        <pt x="423" y="656" on="0"/>
        <pt x="463" y="620" on="1"/>
        <pt x="428" y="582" on="1"/>
        <pt x="391" y="616" on="0"/>
        <pt x="316" y="646" on="0"/>
        <pt x="269" y="646" on="1"/>
        <pt x="206" y="646" on="0"/>
        <pt x="126" y="583" on="0"/>
        <pt x="126" y="530" on="1"/>
        <pt x="126" y="477" on="0"/>
        <pt x="195" y="418" on="0"/>
        <pt x="286" y="390" on="1"/>
        <pt x="379" y="362" on="0"/>
        <pt x="485" y="277" on="0"/>
        <pt x="485" y="187" on="1"/>
        <pt x="485" y="100" on="0"/>
        <pt x="360" y="-11" on="0"/>
        <pt x="258" y="-11" on="1"/>
        <pt x="189" y="-11" on="0"/>
        <pt x="81" y="35" on="0"/>
        <pt x="39" y="75" on="1"/>
        <pt x="74" y="113" on="1"/>
        <pt x="110" y="79" on="0"/>
        <pt x="197" y="39" on="0"/>
        <pt x="257" y="39" on="1"/>
        <pt x="329" y="39" on="0"/>
        <pt x="424" y="116" on="0"/>
        <pt x="424" y="185" on="1"/>
        <pt x="424" y="247" on="0"/>
        <pt x="353" y="312" on="0"/>
        <pt x="262" y="340" on="1"/>
        <pt x="160" y="371" on="0"/>
        <pt x="67" y="455" on="0"/>
      </contour>
    </TTGlyph>
    <TTGlyph name="Sacute" xMin="39" yMin="-11" xMax="485" yMax="887">
      <component glyphName="S" x="0" y="0" flags="0x204"/>
      <component glyphName="acute.case" x="139" y="0" flags="0x4"/>
    </TTGlyph>
    <TTGlyph name="Sacute.loclPLK" xMin="39" yMin="-11" xMax="485" yMax="908">
      <component glyphName="S" x="0" y="0" flags="0x204"/>
      <component glyphName="acute.case.loclPLK" x="139" y="0" flags="0x4"/>
    </TTGlyph>
    <TTGlyph name="Scaron" xMin="39" yMin="-11" xMax="485" yMax="887">
      <component glyphName="S" x="0" y="0" flags="0x204"/>
      <component glyphName="caron.case" x="97" y="0" flags="0x4"/>
    </TTGlyph>
    <TTGlyph name="Scedilla" xMin="39" yMin="-227" xMax="485" yMax="696">
      <component glyphName="cedilla.case" x="157" y="0" flags="0x4"/>
      <component glyphName="S" x="0" y="0" flags="0x204"/>
    </TTGlyph>
    <TTGlyph name="Scircumflex" xMin="39" yMin="-11" xMax="485" yMax="893">
      <component glyphName="S" x="0" y="0" flags="0x204"/>
      <component glyphName="circumflex.case" x="94" y="0" flags="0x4"/>
    </TTGlyph>
    <TTGlyph name="Scommaaccent" xMin="39" yMin="-279" xMax="485" yMax="696">
      <component glyphName="uni0326.case" x="184" y="0" flags="0x4"/>
      <component glyphName="S" x="0" y="0" flags="0x204"/>
    </TTGlyph>
    <TTGlyph name="Sigma" xMin="46" yMin="0" xMax="448" yMax="685">
      <contour>
        <pt x="46" y="685" on="1"/>
        <pt x="448" y="685" on="1"/>
        <pt x="448" y="635" on="1"/>
        <pt x="118" y="635" on="1"/>
        <pt x="332" y="357" on="1"/>
        <pt x="332" y="323" on="1"/>
        <pt x="118" y="50" on="1"/>
        <pt x="448" y="50" on="1"/>
        <pt x="448" y="0" on="1"/>
        <pt x="46" y="0" on="1"/>
        <pt x="46" y="43" on="1"/>
        <pt x="277" y="339" on="1"/>
        <pt x="46" y="642" on="1"/>
      </contour>
    </TTGlyph>
    <TTGlyph name="T" xMin="15" yMin="0" xMax="484" yMax="685">
      <contour>
        <pt x="15" y="685" on="1"/>
        <pt x="484" y="685" on="1"/>
        <pt x="477" y="633" on="1"/>
        <pt x="277" y="633" on="1"/>
        <pt x="277" y="0" on="1"/>
        <pt x="218" y="0" on="1"/>
        <pt x="218" y="633" on="1"/>
        <pt x="15" y="633" on="1"/>
      </contour>
    </TTGlyph>
    <TTGlyph name="Tau" xMin="15" yMin="0" xMax="484" yMax="685">
      <component glyphName="T" x="0" y="0" flags="0x204"/>
    </TTGlyph>
    <TTGlyph name="Tbar" xMin="15" yMin="-1" xMax="484" yMax="684">
      <contour>
        <pt x="402" y="338" on="1"/>
        <pt x="277" y="338" on="1"/>
        <pt x="277" y="-1" on="1"/>
        <pt x="218" y="-1" on="1"/>
        <pt x="218" y="338" on="1"/>
        <pt x="95" y="338" on="1"/>
        <pt x="95" y="384" on="1"/>
        <pt x="218" y="384" on="1"/>
        <pt x="218" y="632" on="1"/>
        <pt x="15" y="632" on="1"/>
        <pt x="15" y="684" on="1"/>
        <pt x="484" y="684" on="1"/>
        <pt x="477" y="632" on="1"/>
        <pt x="277" y="632" on="1"/>
        <pt x="277" y="384" on="1"/>
        <pt x="402" y="384" on="1"/>
      </contour>
    </TTGlyph>
    <TTGlyph name="Tcaron" xMin="15" yMin="0" xMax="484" yMax="887">
      <component glyphName="T" x="0" y="0" flags="0x204"/>
      <component glyphName="caron.case" x="68" y="0" flags="0x4"/>
    </TTGlyph>
    <TTGlyph name="Tcedilla" xMin="15" yMin="-227" xMax="484" yMax="685">
      <component glyphName="cedillaTcedilla" x="155" y="0" flags="0x4"/>
      <component glyphName="T" x="0" y="0" flags="0x204"/>
    </TTGlyph>
    <TTGlyph name="Theta" xMin="66" yMin="-11" xMax="625" yMax="696">
      <contour>
        <pt x="66" y="341" on="1"/>
        <pt x="66" y="510" on="0"/>
        <pt x="223" y="696" on="0"/>
        <pt x="345" y="696" on="1"/>
        <pt x="470" y="696" on="0"/>
        <pt x="625" y="514" on="0"/>
        <pt x="625" y="342" on="1"/>
        <pt x="625" y="174" on="0"/>
        <pt x="471" y="-11" on="0"/>
        <pt x="345" y="-11" on="1"/>
        <pt x="222" y="-11" on="0"/>
        <pt x="66" y="171" on="0"/>
      </contour>
      <contour>
        <pt x="563" y="342" on="1"/>
        <pt x="563" y="497" on="0"/>
        <pt x="444" y="646" on="0"/>
        <pt x="345" y="646" on="1"/>
        <pt x="249" y="646" on="0"/>
        <pt x="128" y="496" on="0"/>
        <pt x="128" y="341" on="1"/>
        <pt x="128" y="188" on="0"/>
        <pt x="250" y="39" on="0"/>
        <pt x="345" y="39" on="1"/>
        <pt x="445" y="39" on="0"/>
        <pt x="563" y="188" on="0"/>
      </contour>
      <contour>
        <pt x="216" y="375" on="1"/>
        <pt x="475" y="375" on="1"/>
        <pt x="475" y="327" on="1"/>
        <pt x="216" y="327" on="1"/>
      </contour>
    </TTGlyph>
    <TTGlyph name="Thorn" xMin="111" yMin="0" xMax="525" yMax="685">
      <contour>
        <pt x="170" y="514" on="1"/>
        <pt x="170" y="186" on="1"/>
        <pt x="269" y="186" on="1"/>
        <pt x="354" y="186" on="0"/>
        <pt x="463" y="256" on="0"/>
        <pt x="463" y="355" on="1"/>
        <pt x="463" y="443" on="0"/>
        <pt x="361" y="514" on="0"/>
        <pt x="271" y="514" on="1"/>
      </contour>
      <contour>
        <pt x="269" y="137" on="1"/>
        <pt x="170" y="137" on="1"/>
        <pt x="170" y="0" on="1"/>
        <pt x="111" y="0" on="1"/>
        <pt x="111" y="685" on="1"/>
        <pt x="170" y="685" on="1"/>
        <pt x="170" y="563" on="1"/>
        <pt x="271" y="563" on="1"/>
        <pt x="390" y="563" on="0"/>
        <pt x="525" y="463" on="0"/>
        <pt x="525" y="356" on="1"/>
        <pt x="525" y="237" on="0"/>
        <pt x="379" y="137" on="0"/>
      </contour>
    </TTGlyph>
    <TTGlyph name="TseHelper-cy" xMin="111" yMin="0" xMax="548" yMax="685">
      <contour>
        <pt x="548" y="685" on="1"/>
        <pt x="548" y="0" on="1"/>
        <pt x="111" y="0" on="1"/>
        <pt x="111" y="685" on="1"/>
        <pt x="170" y="685" on="1"/>
        <pt x="170" y="50" on="1"/>
        <pt x="489" y="50" on="1"/>
        <pt x="489" y="685" on="1"/>
      </contour>
    </TTGlyph>
    <TTGlyph name="U" xMin="101" yMin="-11" xMax="550" yMax="685">
      <contour>
        <pt x="491" y="685" on="1"/>
        <pt x="550" y="685" on="1"/>
        <pt x="550" y="214" on="1"/>
        <pt x="550" y="115" on="0"/>
        <pt x="438" y="-11" on="0"/>
        <pt x="325" y="-11" on="1"/>
        <pt x="212" y="-11" on="0"/>
        <pt x="101" y="115" on="0"/>
        <pt x="101" y="214" on="1"/>
        <pt x="101" y="685" on="1"/>
        <pt x="160" y="685" on="1"/>
        <pt x="160" y="218" on="1"/>
        <pt x="160" y="135" on="0"/>
        <pt x="240" y="40" on="0"/>
        <pt x="325" y="40" on="1"/>
        <pt x="412" y="40" on="0"/>
        <pt x="491" y="137" on="0"/>
        <pt x="491" y="218" on="1"/>
      </contour>
    </TTGlyph>
    <TTGlyph name="Uacute" xMin="101" yMin="-11" xMax="550" yMax="887">
      <component glyphName="U" x="0" y="0" flags="0x204"/>
      <component glyphName="acute.case" x="195" y="0" flags="0x4"/>
    </TTGlyph>
    <TTGlyph name="Ubreve" xMin="101" yMin="-11" xMax="550" yMax="873">
      <component glyphName="U" x="0" y="0" flags="0x204"/>
      <component glyphName="breve.case" x="168" y="0" flags="0x4"/>
    </TTGlyph>
    <TTGlyph name="Ucircumflex" xMin="101" yMin="-11" xMax="550" yMax="893">
      <component glyphName="circumflex.case" x="150" y="0" flags="0x4"/>
      <component glyphName="U" x="0" y="0" flags="0x204"/>
    </TTGlyph>
    <TTGlyph name="Udieresis" xMin="101" yMin="-11" xMax="550" yMax="867">
      <component glyphName="U" x="0" y="0" flags="0x204"/>
      <component glyphName="dieresis.case" x="163" y="0" flags="0x4"/>
    </TTGlyph>
    <TTGlyph name="Ugrave" xMin="101" yMin="-11" xMax="550" yMax="887">
      <component glyphName="grave.case" x="183" y="0" flags="0x4"/>
      <component glyphName="U" x="0" y="0" flags="0x204"/>
    </TTGlyph>
    <TTGlyph name="Uhungarumlaut" xMin="101" yMin="-11" xMax="550" yMax="937">
      <component glyphName="hungarumlaut.case" x="207" y="0" flags="0x4"/>
      <component glyphName="U" x="0" y="0" flags="0x204"/>
    </TTGlyph>
    <TTGlyph name="Umacron" xMin="101" yMin="-11" xMax="550" yMax="845">
      <component glyphName="U" x="0" y="0" flags="0x204"/>
      <component glyphName="macron.case" x="178" y="-3" flags="0x4"/>
    </TTGlyph>
    <TTGlyph name="Uogonek" xMin="101" yMin="-217" xMax="550" yMax="685">
      <component glyphName="U" x="0" y="0" flags="0x204"/>
      <component glyphName="ogonek.thin" x="234" y="0" flags="0x4"/>
    </TTGlyph>
    <TTGlyph name="Upsilon" xMin="13" yMin="0" xMax="508" yMax="685">
      <component glyphName="Y" x="0" y="0" flags="0x204"/>
    </TTGlyph>
    <TTGlyph name="Upsilondieresis" xMin="13" yMin="0" xMax="508" yMax="867">
      <component glyphName="Y" x="0" y="0" flags="0x204"/>
      <component glyphName="dieresis.case" x="96" y="0" flags="0x4"/>
    </TTGlyph>
    <TTGlyph name="Upsilontonos" xMin="-101" yMin="0" xMax="508" yMax="697">
      <component glyphName="Y" x="0" y="0" flags="0x204"/>
      <component glyphName="tonos.case" x="-131" y="0" flags="0x4"/>
    </TTGlyph>
    <TTGlyph name="Uring" xMin="101" yMin="-11" xMax="550" yMax="946">
      <component glyphName="ring.case" x="199" y="0" flags="0x4"/>
      <component glyphName="U" x="0" y="0" flags="0x204"/>
    </TTGlyph>
    <TTGlyph name="Utilde" xMin="101" yMin="-11" xMax="550" yMax="884">
      <component glyphName="U" x="0" y="0" flags="0x204"/>
      <component glyphName="tilde.case" x="148" y="0" flags="0x4"/>
    </TTGlyph>
    <TTGlyph name="V" xMin="17" yMin="0" xMax="529" yMax="685">
      <contour>
        <pt x="469" y="685" on="1"/>
        <pt x="529" y="685" on="1"/>
        <pt x="306" y="0" on="1"/>
        <pt x="240" y="0" on="1"/>
        <pt x="17" y="685" on="1"/>
        <pt x="80" y="685" on="1"/>
        <pt x="274" y="61" on="1"/>
      </contour>
    </TTGlyph>
    <TTGlyph name="W" xMin="31" yMin="0" xMax="778" yMax="685">
      <contour>
        <pt x="722" y="685" on="1"/>
        <pt x="778" y="685" on="1"/>
        <pt x="628" y="0" on="1"/>
        <pt x="554" y="0" on="1"/>
        <pt x="404" y="619" on="1"/>
        <pt x="254" y="0" on="1"/>
        <pt x="181" y="0" on="1"/>
        <pt x="31" y="685" on="1"/>
        <pt x="90" y="685" on="1"/>
        <pt x="221" y="54" on="1"/>
        <pt x="372" y="685" on="1"/>
        <pt x="437" y="685" on="1"/>
        <pt x="591" y="54" on="1"/>
      </contour>
    </TTGlyph>
    <TTGlyph name="Wacute" xMin="31" yMin="0" xMax="778" yMax="887">
      <component glyphName="acute.case" x="272" y="0" flags="0x4"/>
      <component glyphName="W" x="0" y="0" flags="0x204"/>
    </TTGlyph>
    <TTGlyph name="Wcircumflex" xMin="31" yMin="0" xMax="778" yMax="893">
      <component glyphName="circumflex.case" x="227" y="0" flags="0x4"/>
      <component glyphName="W" x="0" y="0" flags="0x204"/>
    </TTGlyph>
    <TTGlyph name="Wdieresis" xMin="31" yMin="0" xMax="778" yMax="867">
      <component glyphName="W" x="0" y="0" flags="0x204"/>
      <component glyphName="dieresis.case" x="240" y="0" flags="0x4"/>
    </TTGlyph>
    <TTGlyph name="Wgrave" xMin="31" yMin="0" xMax="778" yMax="887">
      <component glyphName="grave.case" x="260" y="0" flags="0x4"/>
      <component glyphName="W" x="0" y="0" flags="0x204"/>
    </TTGlyph>
    <TTGlyph name="X" xMin="11" yMin="0" xMax="503" yMax="685">
      <contour>
        <pt x="254" y="330" on="1"/>
        <pt x="74" y="0" on="1"/>
        <pt x="11" y="0" on="1"/>
        <pt x="219" y="368" on="1"/>
        <pt x="31" y="685" on="1"/>
        <pt x="98" y="685" on="1"/>
        <pt x="255" y="406" on="1"/>
        <pt x="411" y="685" on="1"/>
        <pt x="475" y="685" on="1"/>
        <pt x="289" y="371" on="1"/>
        <pt x="503" y="0" on="1"/>
        <pt x="436" y="0" on="1"/>
      </contour>
    </TTGlyph>
    <TTGlyph name="Xi" xMin="51" yMin="0" xMax="446" yMax="685">
      <contour>
        <pt x="51" y="685" on="1"/>
        <pt x="437" y="685" on="1"/>
        <pt x="429" y="631" on="1"/>
        <pt x="51" y="631" on="1"/>
      </contour>
      <contour>
        <pt x="109" y="382" on="1"/>
        <pt x="385" y="382" on="1"/>
        <pt x="385" y="328" on="1"/>
        <pt x="109" y="328" on="1"/>
      </contour>
      <contour>
        <pt x="51" y="56" on="1"/>
        <pt x="446" y="56" on="1"/>
        <pt x="446" y="0" on="1"/>
        <pt x="51" y="0" on="1"/>
      </contour>
    </TTGlyph>
    <TTGlyph name="Y" xMin="13" yMin="0" xMax="508" yMax="685">
      <contour>
        <pt x="445" y="685" on="1"/>
        <pt x="508" y="685" on="1"/>
        <pt x="291" y="268" on="1"/>
        <pt x="291" y="0" on="1"/>
        <pt x="232" y="0" on="1"/>
        <pt x="232" y="267" on="1"/>
        <pt x="13" y="685" on="1"/>
        <pt x="79" y="685" on="1"/>
        <pt x="263" y="319" on="1"/>
      </contour>
    </TTGlyph>
    <TTGlyph name="Yacute" xMin="13" yMin="0" xMax="508" yMax="887">
      <component glyphName="Y" x="0" y="0" flags="0x204"/>
      <component glyphName="acute.case" x="127" y="0" flags="0x4"/>
    </TTGlyph>
    <TTGlyph name="Ycircumflex" xMin="13" yMin="0" xMax="508" yMax="893">
      <component glyphName="Y" x="0" y="0" flags="0x204"/>
      <component glyphName="circumflex.case" x="83" y="0" flags="0x4"/>
    </TTGlyph>
    <TTGlyph name="Ydieresis" xMin="13" yMin="0" xMax="508" yMax="867">
      <component glyphName="Y" x="0" y="0" flags="0x204"/>
      <component glyphName="dieresis.case" x="96" y="0" flags="0x4"/>
    </TTGlyph>
    <TTGlyph name="Ygrave" xMin="13" yMin="0" xMax="508" yMax="887">
      <component glyphName="Y" x="0" y="0" flags="0x204"/>
      <component glyphName="grave.case" x="116" y="0" flags="0x4"/>
    </TTGlyph>
    <TTGlyph name="Z" xMin="36" yMin="0" xMax="468" yMax="685">
      <contour>
        <pt x="73" y="685" on="1"/>
        <pt x="468" y="685" on="1"/>
        <pt x="468" y="636" on="1"/>
        <pt x="103" y="52" on="1"/>
        <pt x="461" y="52" on="1"/>
        <pt x="454" y="0" on="1"/>
        <pt x="36" y="0" on="1"/>
        <pt x="36" y="49" on="1"/>
        <pt x="403" y="634" on="1"/>
        <pt x="73" y="634" on="1"/>
      </contour>
    </TTGlyph>
    <TTGlyph name="Zacute" xMin="36" yMin="0" xMax="468" yMax="887">
      <component glyphName="Z" x="0" y="0" flags="0x204"/>
      <component glyphName="acute.case" x="130" y="0" flags="0x4"/>
    </TTGlyph>
    <TTGlyph name="Zacute.loclPLK" xMin="36" yMin="0" xMax="468" yMax="908">
      <component glyphName="Z" x="0" y="0" flags="0x204"/>
      <component glyphName="acute.case.loclPLK" x="130" y="0" flags="0x4"/>
    </TTGlyph>
    <TTGlyph name="Zcaron" xMin="36" yMin="0" xMax="468" yMax="887">
      <component glyphName="Z" x="0" y="0" flags="0x204"/>
      <component glyphName="caron.case" x="88" y="0" flags="0x4"/>
    </TTGlyph>
    <TTGlyph name="Zdotaccent" xMin="36" yMin="0" xMax="468" yMax="878">
      <component glyphName="dotaccent.case" x="190" y="0" flags="0x4"/>
      <component glyphName="Z" x="0" y="0" flags="0x204"/>
    </TTGlyph>
    <TTGlyph name="Zeta" xMin="36" yMin="0" xMax="468" yMax="685">
      <component glyphName="Z" x="0" y="0" flags="0x204"/>
    </TTGlyph>
    <TTGlyph name="a" xMin="56" yMin="-11" xMax="475" yMax="534">
      <contour>
        <pt x="462" y="-11" on="1"/>
        <pt x="428" y="-4" on="0"/>
        <pt x="387" y="36" on="0"/>
        <pt x="381" y="77" on="1"/>
        <pt x="353" y="33" on="0"/>
        <pt x="270" y="-11" on="0"/>
        <pt x="219" y="-11" on="1"/>
        <pt x="143" y="-11" on="0"/>
        <pt x="56" y="76" on="0"/>
        <pt x="56" y="145" on="1"/>
        <pt x="56" y="227" on="0"/>
        <pt x="174" y="315" on="0"/>
        <pt x="273" y="315" on="1"/>
        <pt x="374" y="315" on="1"/>
        <pt x="374" y="365" on="1"/>
        <pt x="374" y="427" on="0"/>
        <pt x="318" y="485" on="0"/>
        <pt x="253" y="485" on="1"/>
        <pt x="221" y="485" on="0"/>
        <pt x="149" y="469" on="0"/>
        <pt x="111" y="455" on="1"/>
        <pt x="95" y="499" on="1"/>
        <pt x="138" y="515" on="0"/>
        <pt x="219" y="534" on="0"/>
        <pt x="260" y="534" on="1"/>
        <pt x="348" y="534" on="0"/>
        <pt x="431" y="448" on="0"/>
        <pt x="431" y="369" on="1"/>
        <pt x="431" y="116" on="1"/>
        <pt x="431" y="72" on="0"/>
        <pt x="453" y="37" on="0"/>
        <pt x="475" y="29" on="1"/>
      </contour>
      <contour>
        <pt x="228" y="35" on="1"/>
        <pt x="279" y="35" on="0"/>
        <pt x="349" y="85" on="0"/>
        <pt x="374" y="130" on="1"/>
        <pt x="374" y="272" on="1"/>
        <pt x="282" y="272" on="1"/>
        <pt x="204" y="272" on="0"/>
        <pt x="117" y="210" on="0"/>
        <pt x="117" y="147" on="1"/>
        <pt x="117" y="93" on="0"/>
        <pt x="176" y="35" on="0"/>
      </contour>
    </TTGlyph>
    <TTGlyph name="a.sc" xMin="17" yMin="0" xMax="481" yMax="562">
      <contour>
        <pt x="248" y="515" on="1"/>
        <pt x="142" y="198" on="1"/>
        <pt x="354" y="198" on="1"/>
      </contour>
      <contour>
        <pt x="421" y="0" on="1"/>
        <pt x="370" y="151" on="1"/>
        <pt x="126" y="151" on="1"/>
        <pt x="75" y="0" on="1"/>
        <pt x="17" y="0" on="1"/>
        <pt x="214" y="562" on="1"/>
        <pt x="284" y="562" on="1"/>
        <pt x="481" y="0" on="1"/>
      </contour>
    </TTGlyph>
    <TTGlyph name="aacute" xMin="56" yMin="-11" xMax="475" yMax="782">
      <component glyphName="a" x="0" y="0" flags="0x204"/>
      <component glyphName="acute" x="111" y="0" flags="0x4"/>
    </TTGlyph>
    <TTGlyph name="aacute.sc" xMin="17" yMin="0" xMax="481" yMax="812">
      <component glyphName="a.sc" x="0" y="0" flags="0x204"/>
      <component glyphName="acute.sc" x="106" y="0" flags="0x4"/>
    </TTGlyph>
    <TTGlyph name="abreve" xMin="56" yMin="-11" xMax="475" yMax="772">
      <component glyphName="a" x="0" y="0" flags="0x204"/>
      <component glyphName="breve" x="98" y="0" flags="0x4"/>
    </TTGlyph>
    <TTGlyph name="abreve.sc" xMin="17" yMin="0" xMax="481" yMax="802">
      <component glyphName="breve.sc" x="89" y="0" flags="0x4"/>
      <component glyphName="a.sc" x="0" y="0" flags="0x204"/>
    </TTGlyph>
    <TTGlyph name="acircumflex" xMin="56" yMin="-11" xMax="475" yMax="779">
      <component glyphName="a" x="0" y="0" flags="0x204"/>
      <component glyphName="circumflex" x="83" y="0" flags="0x4"/>
    </TTGlyph>
    <TTGlyph name="acircumflex.sc" xMin="17" yMin="0" xMax="481" yMax="809">
      <component glyphName="a.sc" x="0" y="0" flags="0x204"/>
      <component glyphName="circumflex.sc" x="72" y="0" flags="0x4"/>
    </TTGlyph>
    <TTGlyph name="acute" xMin="30" yMin="645" xMax="243" yMax="782">
      <contour>
        <pt x="30" y="679" on="1"/>
        <pt x="218" y="782" on="1"/>
        <pt x="243" y="730" on="1"/>
        <pt x="48" y="645" on="1"/>
      </contour>
    </TTGlyph>
    <TTGlyph name="acute.case" xMin="30" yMin="758" xMax="243" yMax="887">
      <contour>
        <pt x="30" y="792" on="1"/>
        <pt x="217" y="887" on="1"/>
        <pt x="243" y="836" on="1"/>
        <pt x="46" y="758" on="1"/>
      </contour>
    </TTGlyph>
    <TTGlyph name="acute.case.loclPLK" xMin="93" yMin="732" xMax="242" yMax="908">
      <contour>
        <pt x="93" y="751" on="1"/>
        <pt x="194" y="908" on="1"/>
        <pt x="242" y="877" on="1"/>
        <pt x="123" y="732" on="1"/>
      </contour>
    </TTGlyph>
    <TTGlyph name="acute.loclPLK" xMin="93" yMin="578" xMax="243" yMax="762">
      <contour>
        <pt x="93" y="597" on="1"/>
        <pt x="195" y="762" on="1"/>
        <pt x="243" y="731" on="1"/>
        <pt x="123" y="578" on="1"/>
      </contour>
    </TTGlyph>
    <TTGlyph name="acute.sc" xMin="30" yMin="675" xMax="243" yMax="812">
      <component glyphName="acute" x="0" y="30" flags="0x4"/>
    </TTGlyph>
    <TTGlyph name="acute.sc.loclPLK" xMin="93" yMin="618" xMax="243" yMax="803">
      <contour>
        <pt x="93" y="637" on="1"/>
        <pt x="195" y="803" on="1"/>
        <pt x="243" y="772" on="1"/>
        <pt x="123" y="618" on="1"/>
      </contour>
    </TTGlyph>
    <TTGlyph name="acutecomb" xMin="39" yMin="632" xMax="252" yMax="761">
      <contour>
        <pt x="39" y="666" on="1"/>
        <pt x="226" y="761" on="1"/>
        <pt x="252" y="710" on="1"/>
        <pt x="55" y="632" on="1"/>
      </contour>
    </TTGlyph>
    <TTGlyph name="acutecombcomb" xMin="39" yMin="632" xMax="252" yMax="761">
      <component glyphName="acutecomb" x="0" y="0" flags="0x204"/>
    </TTGlyph>
    <TTGlyph name="adieresis" xMin="56" yMin="-11" xMax="475" yMax="741">
      <component glyphName="a" x="0" y="0" flags="0x204"/>
      <component glyphName="dieresis" x="94" y="0" flags="0x4"/>
    </TTGlyph>
    <TTGlyph name="adieresis.sc" xMin="17" yMin="0" xMax="481" yMax="771">
      <component glyphName="a.sc" x="0" y="0" flags="0x204"/>
      <component glyphName="dieresis.sc" x="85" y="0" flags="0x4"/>
    </TTGlyph>
    <TTGlyph name="ae" xMin="56" yMin="-11" xMax="787" yMax="534">
      <contour>
        <pt x="588" y="486" on="1"/>
        <pt x="525" y="486" on="0"/>
        <pt x="439" y="390" on="0"/>
        <pt x="435" y="283" on="1"/>
        <pt x="731" y="283" on="1"/>
        <pt x="731" y="299" on="1"/>
        <pt x="731" y="384" on="0"/>
        <pt x="660" y="486" on="0"/>
      </contour>
      <contour>
        <pt x="229" y="35" on="1"/>
        <pt x="279" y="35" on="0"/>
        <pt x="355" y="87" on="0"/>
        <pt x="391" y="141" on="1"/>
        <pt x="384" y="166" on="0"/>
        <pt x="375" y="224" on="0"/>
        <pt x="375" y="256" on="1"/>
        <pt x="375" y="258" on="1"/>
        <pt x="375" y="258" on="1"/>
        <pt x="375" y="272" on="1"/>
        <pt x="283" y="272" on="1"/>
        <pt x="205" y="272" on="0"/>
        <pt x="118" y="210" on="0"/>
        <pt x="118" y="147" on="1"/>
        <pt x="118" y="93" on="0"/>
        <pt x="178" y="35" on="0"/>
      </contour>
      <contour>
        <pt x="767" y="53" on="1"/>
        <pt x="731" y="23" on="0"/>
        <pt x="648" y="-11" on="0"/>
        <pt x="596" y="-11" on="1"/>
        <pt x="533" y="-11" on="0"/>
        <pt x="438" y="45" on="0"/>
        <pt x="410" y="97" on="1"/>
        <pt x="369" y="39" on="0"/>
        <pt x="278" y="-11" on="0"/>
        <pt x="220" y="-11" on="1"/>
        <pt x="144" y="-11" on="0"/>
        <pt x="56" y="76" on="0"/>
        <pt x="56" y="145" on="1"/>
        <pt x="56" y="227" on="0"/>
        <pt x="175" y="315" on="0"/>
        <pt x="274" y="315" on="1"/>
        <pt x="375" y="315" on="1"/>
        <pt x="375" y="365" on="1"/>
        <pt x="375" y="427" on="0"/>
        <pt x="319" y="485" on="0"/>
        <pt x="254" y="485" on="1"/>
        <pt x="222" y="485" on="0"/>
        <pt x="151" y="469" on="0"/>
        <pt x="112" y="455" on="1"/>
        <pt x="97" y="499" on="1"/>
        <pt x="140" y="515" on="0"/>
        <pt x="220" y="534" on="0"/>
        <pt x="261" y="534" on="1"/>
        <pt x="330" y="534" on="0"/>
        <pt x="406" y="481" on="0"/>
        <pt x="421" y="433" on="1"/>
        <pt x="447" y="482" on="0"/>
        <pt x="530" y="534" on="0"/>
        <pt x="587" y="534" on="1"/>
        <pt x="686" y="534" on="0"/>
        <pt x="787" y="396" on="0"/>
        <pt x="787" y="281" on="1"/>
        <pt x="787" y="269" on="0"/>
        <pt x="786" y="246" on="0"/>
        <pt x="785" y="239" on="1"/>
        <pt x="436" y="239" on="1"/>
        <pt x="441" y="133" on="0"/>
        <pt x="532" y="38" on="0"/>
        <pt x="599" y="38" on="1"/>
        <pt x="642" y="38" on="0"/>
        <pt x="706" y="64" on="0"/>
        <pt x="740" y="89" on="1"/>
      </contour>
    </TTGlyph>
    <TTGlyph name="ae.sc" xMin="0" yMin="0" xMax="643" yMax="562">
      <contour>
        <pt x="265" y="516" on="1"/>
        <pt x="137" y="195" on="1"/>
        <pt x="349" y="195" on="1"/>
      </contour>
      <contour>
        <pt x="400" y="0" on="1"/>
        <pt x="361" y="148" on="1"/>
        <pt x="118" y="148" on="1"/>
        <pt x="59" y="0" on="1"/>
        <pt x="0" y="0" on="1"/>
        <pt x="232" y="562" on="1"/>
        <pt x="602" y="562" on="1"/>
        <pt x="595" y="515" on="1"/>
        <pt x="320" y="515" on="1"/>
        <pt x="373" y="314" on="1"/>
        <pt x="595" y="314" on="1"/>
        <pt x="595" y="268" on="1"/>
        <pt x="385" y="268" on="1"/>
        <pt x="443" y="47" on="1"/>
        <pt x="643" y="47" on="1"/>
        <pt x="643" y="0" on="1"/>
      </contour>
    </TTGlyph>
    <TTGlyph name="aeacute" xMin="56" yMin="-11" xMax="787" yMax="782">
      <component glyphName="acute" x="276" y="0" flags="0x4"/>
      <component glyphName="ae" x="0" y="0" flags="0x204"/>
    </TTGlyph>
    <TTGlyph name="aeacute.sc" xMin="0" yMin="0" xMax="643" yMax="812">
      <component glyphName="ae.sc" x="0" y="0" flags="0x204"/>
      <component glyphName="acute.sc" x="256" y="0" flags="0x4"/>
    </TTGlyph>
    <TTGlyph name="agrave" xMin="56" yMin="-11" xMax="475" yMax="782">
      <component glyphName="a" x="0" y="0" flags="0x204"/>
      <component glyphName="grave" x="128" y="0" flags="0x4"/>
    </TTGlyph>
    <TTGlyph name="agrave.sc" xMin="17" yMin="0" xMax="481" yMax="812">
      <component glyphName="grave.sc" x="115" y="0" flags="0x4"/>
      <component glyphName="a.sc" x="0" y="0" flags="0x204"/>
    </TTGlyph>
    <TTGlyph name="alpha" xMin="65" yMin="-11" xMax="535" yMax="534">
      <contour>
        <pt x="412" y="268" on="1"/>
        <pt x="387" y="396" on="0"/>
        <pt x="316" y="487" on="0"/>
        <pt x="259" y="487" on="1"/>
        <pt x="202" y="487" on="0"/>
        <pt x="126" y="371" on="0"/>
        <pt x="126" y="261" on="1"/>
        <pt x="126" y="145" on="0"/>
        <pt x="194" y="37" on="0"/>
        <pt x="254" y="37" on="1"/>
        <pt x="301" y="37" on="0"/>
        <pt x="387" y="129" on="0"/>
      </contour>
      <contour>
        <pt x="65" y="261" on="1"/>
        <pt x="65" y="380" on="0"/>
        <pt x="166" y="534" on="0"/>
        <pt x="255" y="534" on="1"/>
        <pt x="326" y="534" on="0"/>
        <pt x="410" y="452" on="0"/>
        <pt x="429" y="340" on="1"/>
        <pt x="468" y="523" on="1"/>
        <pt x="522" y="523" on="1"/>
        <pt x="463" y="262" on="1"/>
        <pt x="493" y="91" on="1"/>
        <pt x="497" y="68" on="0"/>
        <pt x="519" y="46" on="0"/>
        <pt x="535" y="40" on="1"/>
        <pt x="515" y="-8" on="1"/>
        <pt x="490" y="-3" on="0"/>
        <pt x="447" y="33" on="0"/>
        <pt x="442" y="71" on="1"/>
        <pt x="425" y="179" on="1"/>
        <pt x="404" y="86" on="0"/>
        <pt x="317" y="-11" on="0"/>
        <pt x="248" y="-11" on="1"/>
        <pt x="163" y="-11" on="0"/>
        <pt x="65" y="125" on="0"/>
      </contour>
    </TTGlyph>
    <TTGlyph name="alpha.sc" xMin="17" yMin="0" xMax="481" yMax="562">
      <component glyphName="a.sc" x="0" y="0" flags="0x204"/>
    </TTGlyph>
    <TTGlyph name="alphatonos" xMin="65" yMin="-11" xMax="535" yMax="773">
      <component glyphName="tonos" x="229" y="0" flags="0x4"/>
      <component glyphName="alpha" x="0" y="0" flags="0x204"/>
    </TTGlyph>
    <TTGlyph name="alphatonos.sc" xMin="17" yMin="0" xMax="481" yMax="562">
      <component glyphName="a.sc" x="0" y="0" flags="0x204"/>
    </TTGlyph>
    <TTGlyph name="amacron" xMin="56" yMin="-11" xMax="475" yMax="722">
      <component glyphName="a" x="0" y="0" flags="0x204"/>
      <component glyphName="macron" x="108" y="0" flags="0x4"/>
    </TTGlyph>
    <TTGlyph name="amacron.sc" xMin="17" yMin="0" xMax="481" yMax="752">
      <component glyphName="a.sc" x="0" y="0" flags="0x204"/>
      <component glyphName="macron.sc" x="99" y="0" flags="0x4"/>
    </TTGlyph>
    <TTGlyph name="ampersand" xMin="91" yMin="-11" xMax="679" yMax="696">
      <contour>
        <pt x="134" y="544" on="1"/>
        <pt x="134" y="608" on="0"/>
        <pt x="224" y="696" on="0"/>
        <pt x="301" y="696" on="1"/>
        <pt x="374" y="696" on="0"/>
        <pt x="467" y="612" on="0"/>
        <pt x="467" y="548" on="1"/>
        <pt x="467" y="488" on="0"/>
        <pt x="384" y="404" on="0"/>
        <pt x="314" y="364" on="1"/>
        <pt x="519" y="171" on="1"/>
        <pt x="540" y="214" on="0"/>
        <pt x="573" y="307" on="0"/>
        <pt x="585" y="362" on="1"/>
        <pt x="639" y="346" on="1"/>
        <pt x="623" y="284" on="0"/>
        <pt x="581" y="180" on="0"/>
        <pt x="554" y="137" on="1"/>
        <pt x="679" y="22" on="1"/>
        <pt x="636" y="-11" on="1"/>
        <pt x="524" y="94" on="1"/>
        <pt x="484" y="47" on="0"/>
        <pt x="378" y="-11" on="0"/>
        <pt x="300" y="-11" on="1"/>
        <pt x="211" y="-11" on="0"/>
        <pt x="91" y="89" on="0"/>
        <pt x="91" y="171" on="1"/>
        <pt x="91" y="238" on="0"/>
        <pt x="168" y="331" on="0"/>
        <pt x="234" y="370" on="1"/>
        <pt x="185" y="416" on="0"/>
        <pt x="134" y="492" on="0"/>
      </contour>
      <contour>
        <pt x="410" y="546" on="1"/>
        <pt x="410" y="597" on="0"/>
        <pt x="348" y="651" on="0"/>
        <pt x="301" y="651" on="1"/>
        <pt x="250" y="651" on="0"/>
        <pt x="190" y="588" on="0"/>
        <pt x="190" y="545" on="1"/>
        <pt x="190" y="507" on="0"/>
        <pt x="226" y="446" on="0"/>
        <pt x="280" y="396" on="1"/>
        <pt x="344" y="431" on="0"/>
        <pt x="410" y="500" on="0"/>
      </contour>
      <contour>
        <pt x="489" y="127" on="1"/>
        <pt x="268" y="338" on="1"/>
        <pt x="211" y="304" on="0"/>
        <pt x="149" y="225" on="0"/>
        <pt x="149" y="172" on="1"/>
        <pt x="149" y="112" on="0"/>
        <pt x="237" y="37" on="0"/>
        <pt x="304" y="37" on="1"/>
        <pt x="367" y="37" on="0"/>
        <pt x="454" y="85" on="0"/>
      </contour>
    </TTGlyph>
    <TTGlyph name="aogonek" xMin="56" yMin="-228" xMax="475" yMax="534">
      <component glyphName="a" x="0" y="0" flags="0x204"/>
      <component glyphName="ogonek" x="290" y="-11" flags="0x4"/>
    </TTGlyph>
    <TTGlyph name="aogonek.sc" xMin="17" yMin="-217" xMax="481" yMax="562">
      <component glyphName="ogonek.sc" x="296" y="0" flags="0x4"/>
      <component glyphName="a.sc" x="0" y="0" flags="0x204"/>
    </TTGlyph>
    <TTGlyph name="approxequal" xMin="94" yMin="185" xMax="461" yMax="459">
      <component glyphName="approxequal.lf" x="42" y="0" flags="0x4"/>
    </TTGlyph>
    <TTGlyph name="approxequal.lf" xMin="52" yMin="185" xMax="419" yMax="459">
      <component glyphName="asciitilde.lf" x="0" y="-79" flags="0x4"/>
      <component glyphName="asciitilde.lf" x="0" y="89" flags="0x4"/>
    </TTGlyph>
    <TTGlyph name="approxequal.osf" xMin="52" yMin="185" xMax="419" yMax="459">
      <component glyphName="approxequal.lf" x="0" y="0" flags="0x204"/>
    </TTGlyph>
    <TTGlyph name="approxequal.tosf" xMin="94" yMin="185" xMax="461" yMax="459">
      <component glyphName="approxequal.lf" x="42" y="0" flags="0x4"/>
    </TTGlyph>
    <TTGlyph name="aring" xMin="56" yMin="-11" xMax="475" yMax="820">
      <component glyphName="a" x="0" y="0" flags="0x204"/>
      <component glyphName="ring" x="130" y="0" flags="0x4"/>
    </TTGlyph>
    <TTGlyph name="aring.sc" xMin="17" yMin="0" xMax="481" yMax="850">
      <component glyphName="ring.sc" x="121" y="0" flags="0x4"/>
      <component glyphName="a.sc" x="0" y="0" flags="0x204"/>
    </TTGlyph>
    <TTGlyph name="arrowdown" xMin="152" yMin="-24" xMax="748" yMax="623">
      <contour>
        <pt x="422" y="623" on="1"/>
        <pt x="478" y="623" on="1"/>
        <pt x="478" y="58" on="1"/>
        <pt x="490" y="77" on="0"/>
        <pt x="525" y="113" on="0"/>
        <pt x="547" y="132" on="1"/>
        <pt x="713" y="280" on="1"/>
        <pt x="748" y="241" on="1"/>
        <pt x="450" y="-24" on="1"/>
        <pt x="152" y="241" on="1"/>
        <pt x="187" y="280" on="1"/>
        <pt x="353" y="132" on="1"/>
        <pt x="375" y="113" on="0"/>
        <pt x="410" y="77" on="0"/>
        <pt x="422" y="58" on="1"/>
      </contour>
    </TTGlyph>
    <TTGlyph name="arrowdownwhite" xMin="60" yMin="-94" xMax="660" yMax="750">
      <contour>
        <pt x="279" y="750" on="1"/>
        <pt x="441" y="750" on="1"/>
        <pt x="463" y="750" on="0"/>
        <pt x="491" y="722" on="0"/>
        <pt x="491" y="700" on="1"/>
        <pt x="491" y="204" on="1"/>
        <pt x="660" y="204" on="1"/>
        <pt x="360" y="-94" on="1"/>
        <pt x="60" y="204" on="1"/>
        <pt x="229" y="204" on="1"/>
        <pt x="229" y="700" on="1"/>
        <pt x="229" y="722" on="0"/>
        <pt x="257" y="750" on="0"/>
      </contour>
      <contour>
        <pt x="444" y="706" on="1"/>
        <pt x="276" y="706" on="1"/>
        <pt x="276" y="159" on="1"/>
        <pt x="169" y="159" on="1"/>
        <pt x="360" y="-30" on="1"/>
        <pt x="551" y="159" on="1"/>
        <pt x="444" y="159" on="1"/>
      </contour>
    </TTGlyph>
    <TTGlyph name="arrowleft" xMin="137" yMin="43" xMax="758" yMax="615">
      <contour>
        <pt x="137" y="329" on="1"/>
        <pt x="394" y="615" on="1"/>
        <pt x="436" y="579" on="1"/>
        <pt x="296" y="424" on="1"/>
        <pt x="275" y="400" on="0"/>
        <pt x="241" y="367" on="0"/>
        <pt x="222" y="354" on="1"/>
        <pt x="758" y="354" on="1"/>
        <pt x="758" y="304" on="1"/>
        <pt x="222" y="304" on="1"/>
        <pt x="239" y="291" on="0"/>
        <pt x="277" y="256" on="0"/>
        <pt x="296" y="234" on="1"/>
        <pt x="436" y="79" on="1"/>
        <pt x="394" y="43" on="1"/>
      </contour>
    </TTGlyph>
    <TTGlyph name="arrowleftwhite" xMin="40" yMin="13" xMax="920" yMax="613">
      <contour>
        <pt x="920" y="387" on="1"/>
        <pt x="920" y="239" on="1"/>
        <pt x="920" y="217" on="0"/>
        <pt x="892" y="189" on="0"/>
        <pt x="870" y="189" on="1"/>
        <pt x="338" y="189" on="1"/>
        <pt x="338" y="13" on="1"/>
        <pt x="40" y="313" on="1"/>
        <pt x="338" y="613" on="1"/>
        <pt x="338" y="437" on="1"/>
        <pt x="870" y="437" on="1"/>
        <pt x="892" y="437" on="0"/>
        <pt x="920" y="409" on="0"/>
      </contour>
      <contour>
        <pt x="876" y="233" on="1"/>
        <pt x="876" y="393" on="1"/>
        <pt x="293" y="393" on="1"/>
        <pt x="293" y="504" on="1"/>
        <pt x="104" y="313" on="1"/>
        <pt x="293" y="122" on="1"/>
        <pt x="293" y="233" on="1"/>
      </contour>
    </TTGlyph>
    <TTGlyph name="arrowright" xMin="142" yMin="43" xMax="763" yMax="615">
      <contour>
        <pt x="506" y="615" on="1"/>
        <pt x="763" y="329" on="1"/>
        <pt x="506" y="43" on="1"/>
        <pt x="464" y="79" on="1"/>
        <pt x="604" y="234" on="1"/>
        <pt x="623" y="256" on="0"/>
        <pt x="661" y="291" on="0"/>
        <pt x="678" y="304" on="1"/>
        <pt x="142" y="304" on="1"/>
        <pt x="142" y="354" on="1"/>
        <pt x="678" y="354" on="1"/>
        <pt x="659" y="367" on="0"/>
        <pt x="625" y="400" on="0"/>
        <pt x="604" y="424" on="1"/>
        <pt x="464" y="579" on="1"/>
      </contour>
    </TTGlyph>
    <TTGlyph name="arrowrightwhite" xMin="40" yMin="13" xMax="920" yMax="613">
      <contour>
        <pt x="40" y="239" on="1"/>
        <pt x="40" y="387" on="1"/>
        <pt x="40" y="409" on="0"/>
        <pt x="68" y="437" on="0"/>
        <pt x="90" y="437" on="1"/>
        <pt x="622" y="437" on="1"/>
        <pt x="622" y="613" on="1"/>
        <pt x="920" y="313" on="1"/>
        <pt x="622" y="13" on="1"/>
        <pt x="622" y="189" on="1"/>
        <pt x="90" y="189" on="1"/>
        <pt x="68" y="189" on="0"/>
        <pt x="40" y="217" on="0"/>
      </contour>
      <contour>
        <pt x="84" y="393" on="1"/>
        <pt x="84" y="233" on="1"/>
        <pt x="667" y="233" on="1"/>
        <pt x="667" y="122" on="1"/>
        <pt x="856" y="313" on="1"/>
        <pt x="667" y="504" on="1"/>
        <pt x="667" y="393" on="1"/>
      </contour>
    </TTGlyph>
    <TTGlyph name="arrowup" xMin="152" yMin="0" xMax="748" yMax="647">
      <contour>
        <pt x="478" y="0" on="1"/>
        <pt x="422" y="0" on="1"/>
        <pt x="422" y="565" on="1"/>
        <pt x="410" y="546" on="0"/>
        <pt x="375" y="510" on="0"/>
        <pt x="353" y="491" on="1"/>
        <pt x="187" y="343" on="1"/>
        <pt x="152" y="382" on="1"/>
        <pt x="450" y="647" on="1"/>
        <pt x="748" y="382" on="1"/>
        <pt x="713" y="343" on="1"/>
        <pt x="547" y="491" on="1"/>
        <pt x="525" y="510" on="0"/>
        <pt x="490" y="546" on="0"/>
        <pt x="478" y="565" on="1"/>
      </contour>
    </TTGlyph>
    <TTGlyph name="arrowupdn" xMin="152" yMin="-171" xMax="748" yMax="851">
      <contour>
        <pt x="152" y="585" on="1"/>
        <pt x="450" y="851" on="1"/>
        <pt x="748" y="585" on="1"/>
        <pt x="713" y="547" on="1"/>
        <pt x="547" y="694" on="1"/>
        <pt x="525" y="713" on="0"/>
        <pt x="490" y="750" on="0"/>
        <pt x="478" y="769" on="1"/>
        <pt x="478" y="-89" on="1"/>
        <pt x="490" y="-71" on="0"/>
        <pt x="525" y="-34" on="0"/>
        <pt x="547" y="-15" on="1"/>
        <pt x="713" y="133" on="1"/>
        <pt x="748" y="94" on="1"/>
        <pt x="450" y="-171" on="1"/>
        <pt x="152" y="94" on="1"/>
        <pt x="187" y="133" on="1"/>
        <pt x="353" y="-15" on="1"/>
        <pt x="375" y="-34" on="0"/>
        <pt x="410" y="-71" on="0"/>
        <pt x="422" y="-89" on="1"/>
        <pt x="422" y="769" on="1"/>
        <pt x="410" y="750" on="0"/>
        <pt x="375" y="713" on="0"/>
        <pt x="353" y="694" on="1"/>
        <pt x="187" y="547" on="1"/>
      </contour>
    </TTGlyph>
    <TTGlyph name="arrowupwhite" xMin="60" yMin="-12" xMax="660" yMax="832">
      <contour>
        <pt x="441" y="-12" on="1"/>
        <pt x="279" y="-12" on="1"/>
        <pt x="257" y="-12" on="0"/>
        <pt x="229" y="16" on="0"/>
        <pt x="229" y="38" on="1"/>
        <pt x="229" y="534" on="1"/>
        <pt x="60" y="534" on="1"/>
        <pt x="360" y="832" on="1"/>
        <pt x="660" y="534" on="1"/>
        <pt x="491" y="534" on="1"/>
        <pt x="491" y="38" on="1"/>
        <pt x="491" y="16" on="0"/>
        <pt x="463" y="-12" on="0"/>
      </contour>
      <contour>
        <pt x="276" y="32" on="1"/>
        <pt x="444" y="32" on="1"/>
        <pt x="444" y="579" on="1"/>
        <pt x="551" y="579" on="1"/>
        <pt x="360" y="768" on="1"/>
        <pt x="169" y="579" on="1"/>
        <pt x="276" y="579" on="1"/>
      </contour>
    </TTGlyph>
    <TTGlyph name="asciicircum" xMin="57" yMin="527" xMax="473" yMax="832">
      <contour>
        <pt x="241" y="832" on="1"/>
        <pt x="289" y="832" on="1"/>
        <pt x="473" y="527" on="1"/>
        <pt x="409" y="527" on="1"/>
        <pt x="265" y="776" on="1"/>
        <pt x="121" y="527" on="1"/>
        <pt x="57" y="527" on="1"/>
      </contour>
    </TTGlyph>
    <TTGlyph name="asciitilde" xMin="94" yMin="264" xMax="461" yMax="370">
      <component glyphName="asciitilde.lf" x="42" y="0" flags="0x4"/>
    </TTGlyph>
    <TTGlyph name="asciitilde.lf" xMin="52" yMin="264" xMax="419" yMax="370">
      <contour>
        <pt x="52" y="295" on="1"/>
        <pt x="69" y="323" on="0"/>
        <pt x="119" y="370" on="0"/>
        <pt x="162" y="370" on="1"/>
        <pt x="187" y="370" on="0"/>
        <pt x="228" y="352" on="0"/>
        <pt x="264" y="331" on="0"/>
        <pt x="298" y="313" on="0"/>
        <pt x="315" y="313" on="1"/>
        <pt x="339" y="313" on="0"/>
        <pt x="367" y="338" on="0"/>
        <pt x="381" y="358" on="1"/>
        <pt x="419" y="337" on="1"/>
        <pt x="402" y="309" on="0"/>
        <pt x="353" y="264" on="0"/>
        <pt x="312" y="264" on="1"/>
        <pt x="288" y="264" on="0"/>
        <pt x="246" y="282" on="0"/>
        <pt x="209" y="304" on="0"/>
        <pt x="175" y="322" on="0"/>
        <pt x="159" y="322" on="1"/>
        <pt x="133" y="322" on="0"/>
        <pt x="104" y="294" on="0"/>
        <pt x="90" y="275" on="1"/>
      </contour>
    </TTGlyph>
    <TTGlyph name="asciitilde.osf" xMin="52" yMin="264" xMax="419" yMax="370">
      <component glyphName="asciitilde.lf" x="0" y="0" flags="0x204"/>
    </TTGlyph>
    <TTGlyph name="asciitilde.tosf" xMin="94" yMin="264" xMax="461" yMax="370">
      <component glyphName="asciitilde.lf" x="42" y="0" flags="0x4"/>
    </TTGlyph>
    <TTGlyph name="asterisk" xMin="34" yMin="387" xMax="402" yMax="736">
      <contour>
        <pt x="303" y="387" on="1"/>
        <pt x="219" y="519" on="1"/>
        <pt x="133" y="387" on="1"/>
        <pt x="87" y="419" on="1"/>
        <pt x="187" y="542" on="1"/>
        <pt x="34" y="582" on="1"/>
        <pt x="51" y="633" on="1"/>
        <pt x="198" y="577" on="1"/>
        <pt x="190" y="736" on="1"/>
        <pt x="246" y="736" on="1"/>
        <pt x="238" y="577" on="1"/>
        <pt x="384" y="634" on="1"/>
        <pt x="402" y="582" on="1"/>
        <pt x="249" y="542" on="1"/>
        <pt x="349" y="420" on="1"/>
      </contour>
    </TTGlyph>
    <TTGlyph name="at" xMin="85" yMin="-205" xMax="935" yMax="696">
      <contour>
        <pt x="524" y="-205" on="1"/>
        <pt x="428" y="-205" on="0"/>
        <pt x="267" y="-143" on="0"/>
        <pt x="150" y="-28" on="0"/>
        <pt x="85" y="138" on="0"/>
        <pt x="85" y="242" on="1"/>
        <pt x="85" y="336" on="0"/>
        <pt x="149" y="502" on="0"/>
        <pt x="264" y="624" on="0"/>
        <pt x="427" y="696" on="0"/>
        <pt x="526" y="696" on="1"/>
        <pt x="627" y="696" on="0"/>
        <pt x="781" y="632" on="0"/>
        <pt x="883" y="526" on="0"/>
        <pt x="935" y="385" on="0"/>
        <pt x="935" y="308" on="1"/>
        <pt x="935" y="159" on="0"/>
        <pt x="831" y="12" on="0"/>
        <pt x="754" y="12" on="1"/>
        <pt x="700" y="12" on="0"/>
        <pt x="641" y="78" on="0"/>
        <pt x="632" y="122" on="1"/>
        <pt x="612" y="75" on="0"/>
        <pt x="539" y="14" on="0"/>
        <pt x="484" y="14" on="1"/>
        <pt x="413" y="14" on="0"/>
        <pt x="316" y="128" on="0"/>
        <pt x="316" y="232" on="1"/>
        <pt x="316" y="360" on="0"/>
        <pt x="438" y="484" on="0"/>
        <pt x="525" y="484" on="1"/>
        <pt x="564" y="484" on="0"/>
        <pt x="636" y="465" on="0"/>
        <pt x="670" y="447" on="1"/>
        <pt x="670" y="190" on="1"/>
        <pt x="670" y="121" on="0"/>
        <pt x="715" y="58" on="0"/>
        <pt x="753" y="58" on="1"/>
        <pt x="804" y="58" on="0"/>
        <pt x="877" y="167" on="0"/>
        <pt x="877" y="306" on="1"/>
        <pt x="877" y="378" on="0"/>
        <pt x="831" y="504" on="0"/>
        <pt x="743" y="595" on="0"/>
        <pt x="611" y="647" on="0"/>
        <pt x="526" y="647" on="1"/>
        <pt x="439" y="647" on="0"/>
        <pt x="297" y="583" on="0"/>
        <pt x="198" y="474" on="0"/>
        <pt x="143" y="326" on="0"/>
        <pt x="143" y="242" on="1"/>
        <pt x="143" y="61" on="0"/>
        <pt x="351" y="-156" on="0"/>
        <pt x="525" y="-156" on="1"/>
        <pt x="582" y="-156" on="0"/>
        <pt x="673" y="-138" on="0"/>
        <pt x="714" y="-123" on="1"/>
        <pt x="729" y="-169" on="1"/>
        <pt x="685" y="-185" on="0"/>
        <pt x="591" y="-205" on="0"/>
      </contour>
      <contour>
        <pt x="490" y="59" on="1"/>
        <pt x="542" y="59" on="0"/>
        <pt x="605" y="130" on="0"/>
        <pt x="617" y="166" on="1"/>
        <pt x="617" y="419" on="1"/>
        <pt x="596" y="429" on="0"/>
        <pt x="553" y="440" on="0"/>
        <pt x="527" y="440" on="1"/>
        <pt x="455" y="440" on="0"/>
        <pt x="373" y="332" on="0"/>
        <pt x="373" y="232" on="1"/>
        <pt x="373" y="146" on="0"/>
        <pt x="437" y="59" on="0"/>
      </contour>
    </TTGlyph>
    <TTGlyph name="atilde" xMin="56" yMin="-11" xMax="475" yMax="758">
      <component glyphName="a" x="0" y="0" flags="0x204"/>
      <component glyphName="tilde" x="78" y="0" flags="0x4"/>
    </TTGlyph>
    <TTGlyph name="atilde.sc" xMin="17" yMin="0" xMax="481" yMax="788">
      <component glyphName="tilde.sc" x="69" y="0" flags="0x4"/>
      <component glyphName="a.sc" x="0" y="0" flags="0x204"/>
    </TTGlyph>
    <TTGlyph name="b" xMin="106" yMin="-11" xMax="511" yMax="743">
      <contour>
        <pt x="313" y="-11" on="1"/>
        <pt x="264" y="-11" on="0"/>
        <pt x="186" y="33" on="0"/>
        <pt x="161" y="66" on="1"/>
        <pt x="156" y="0" on="1"/>
        <pt x="106" y="0" on="1"/>
        <pt x="106" y="736" on="1"/>
        <pt x="163" y="743" on="1"/>
        <pt x="163" y="449" on="1"/>
        <pt x="191" y="487" on="0"/>
        <pt x="270" y="534" on="0"/>
        <pt x="321" y="534" on="1"/>
        <pt x="410" y="534" on="0"/>
        <pt x="511" y="394" on="0"/>
        <pt x="511" y="264" on="1"/>
        <pt x="511" y="139" on="0"/>
        <pt x="407" y="-11" on="0"/>
      </contour>
      <contour>
        <pt x="302" y="37" on="1"/>
        <pt x="371" y="37" on="0"/>
        <pt x="450" y="151" on="0"/>
        <pt x="450" y="264" on="1"/>
        <pt x="450" y="380" on="0"/>
        <pt x="376" y="486" on="0"/>
        <pt x="309" y="486" on="1"/>
        <pt x="258" y="486" on="0"/>
        <pt x="190" y="433" on="0"/>
        <pt x="163" y="396" on="1"/>
        <pt x="163" y="120" on="1"/>
        <pt x="188" y="83" on="0"/>
        <pt x="257" y="37" on="0"/>
      </contour>
    </TTGlyph>
    <TTGlyph name="b.sc" xMin="111" yMin="0" xMax="491" yMax="562">
      <contour>
        <pt x="111" y="562" on="1"/>
        <pt x="245" y="562" on="1"/>
        <pt x="348" y="562" on="0"/>
        <pt x="464" y="493" on="0"/>
        <pt x="464" y="421" on="1"/>
        <pt x="464" y="368" on="0"/>
        <pt x="402" y="307" on="0"/>
        <pt x="357" y="298" on="1"/>
        <pt x="408" y="292" on="0"/>
        <pt x="491" y="228" on="0"/>
        <pt x="491" y="156" on="1"/>
        <pt x="491" y="77" on="0"/>
        <pt x="375" y="0" on="0"/>
        <pt x="277" y="0" on="1"/>
        <pt x="111" y="0" on="1"/>
      </contour>
      <contour>
        <pt x="168" y="516" on="1"/>
        <pt x="168" y="318" on="1"/>
        <pt x="285" y="318" on="1"/>
        <pt x="338" y="318" on="0"/>
        <pt x="405" y="369" on="0"/>
        <pt x="405" y="417" on="1"/>
        <pt x="405" y="471" on="0"/>
        <pt x="324" y="516" on="0"/>
        <pt x="252" y="516" on="1"/>
      </contour>
      <contour>
        <pt x="168" y="47" on="1"/>
        <pt x="277" y="47" on="1"/>
        <pt x="348" y="47" on="0"/>
        <pt x="432" y="99" on="0"/>
        <pt x="432" y="157" on="1"/>
        <pt x="432" y="219" on="0"/>
        <pt x="351" y="273" on="0"/>
        <pt x="291" y="273" on="1"/>
        <pt x="168" y="273" on="1"/>
      </contour>
    </TTGlyph>
    <TTGlyph name="backslash" xMin="119" yMin="-99" xMax="400" yMax="802">
      <contour>
        <pt x="119" y="791" on="1"/>
        <pt x="168" y="802" on="1"/>
        <pt x="400" y="-87" on="1"/>
        <pt x="351" y="-99" on="1"/>
      </contour>
    </TTGlyph>
    <TTGlyph name="bar" xMin="177" yMin="-100" xMax="230" yMax="804">
      <contour>
        <pt x="177" y="804" on="1"/>
        <pt x="230" y="804" on="1"/>
        <pt x="230" y="-100" on="1"/>
        <pt x="177" y="-100" on="1"/>
      </contour>
    </TTGlyph>
    <TTGlyph name="beta" xMin="106" yMin="-206" xMax="537" yMax="743">
      <contour>
        <pt x="322" y="37" on="1"/>
        <pt x="387" y="37" on="0"/>
        <pt x="479" y="124" on="0"/>
        <pt x="478" y="201" on="1"/>
        <pt x="478" y="286" on="0"/>
        <pt x="368" y="375" on="0"/>
        <pt x="274" y="375" on="1"/>
        <pt x="227" y="375" on="1"/>
        <pt x="233" y="421" on="1"/>
        <pt x="278" y="421" on="1"/>
        <pt x="303" y="421" on="0"/>
        <pt x="357" y="434" on="0"/>
        <pt x="402" y="467" on="0"/>
        <pt x="431" y="523" on="0"/>
        <pt x="431" y="565" on="1"/>
        <pt x="431" y="637" on="0"/>
        <pt x="350" y="696" on="0"/>
        <pt x="298" y="696" on="1"/>
        <pt x="238" y="696" on="0"/>
        <pt x="164" y="620" on="0"/>
        <pt x="164" y="540" on="1"/>
        <pt x="164" y="106" on="1"/>
        <pt x="198" y="69" on="0"/>
        <pt x="271" y="37" on="0"/>
      </contour>
      <contour>
        <pt x="164" y="-196" on="1"/>
        <pt x="106" y="-206" on="1"/>
        <pt x="106" y="541" on="1"/>
        <pt x="106" y="637" on="0"/>
        <pt x="213" y="743" on="0"/>
        <pt x="298" y="743" on="1"/>
        <pt x="371" y="743" on="0"/>
        <pt x="486" y="655" on="0"/>
        <pt x="487" y="570" on="1"/>
        <pt x="487" y="492" on="0"/>
        <pt x="399" y="408" on="0"/>
        <pt x="329" y="401" on="1"/>
        <pt x="410" y="397" on="0"/>
        <pt x="537" y="304" on="0"/>
        <pt x="537" y="200" on="1"/>
        <pt x="536" y="101" on="0"/>
        <pt x="410" y="-11" on="0"/>
        <pt x="328" y="-11" on="1"/>
        <pt x="280" y="-11" on="0"/>
        <pt x="199" y="21" on="0"/>
        <pt x="164" y="55" on="1"/>
      </contour>
    </TTGlyph>
    <TTGlyph name="beta.sc" xMin="111" yMin="0" xMax="491" yMax="562">
      <component glyphName="b.sc" x="0" y="0" flags="0x204"/>
    </TTGlyph>
    <TTGlyph name="beta.ss10" xMin="66" yMin="-11" xMax="511" yMax="743">
      <contour>
        <pt x="66" y="349" on="1"/>
        <pt x="66" y="448" on="0"/>
        <pt x="113" y="597" on="0"/>
        <pt x="188" y="694" on="0"/>
        <pt x="285" y="743" on="0"/>
        <pt x="335" y="743" on="1"/>
        <pt x="405" y="743" on="0"/>
        <pt x="473" y="669" on="0"/>
        <pt x="473" y="623" on="1"/>
        <pt x="473" y="556" on="0"/>
        <pt x="381" y="458" on="0"/>
        <pt x="276" y="422" on="1"/>
        <pt x="292" y="426" on="0"/>
        <pt x="316" y="429" on="0"/>
        <pt x="326" y="429" on="1"/>
        <pt x="425" y="429" on="0"/>
        <pt x="511" y="311" on="0"/>
        <pt x="511" y="223" on="1"/>
        <pt x="511" y="126" on="0"/>
        <pt x="393" y="-11" on="0"/>
        <pt x="292" y="-11" on="1"/>
        <pt x="173" y="-11" on="0"/>
        <pt x="66" y="174" on="0"/>
      </contour>
      <contour>
        <pt x="333" y="697" on="1"/>
        <pt x="299" y="697" on="0"/>
        <pt x="229" y="665" on="0"/>
        <pt x="172" y="593" on="0"/>
        <pt x="132" y="475" on="0"/>
        <pt x="128" y="389" on="1"/>
        <pt x="176" y="409" on="1"/>
        <pt x="251" y="438" on="0"/>
        <pt x="344" y="489" on="0"/>
        <pt x="396" y="538" on="0"/>
        <pt x="414" y="589" on="0"/>
        <pt x="414" y="619" on="1"/>
        <pt x="414" y="653" on="0"/>
        <pt x="372" y="697" on="0"/>
      </contour>
      <contour>
        <pt x="293" y="37" on="1"/>
        <pt x="365" y="37" on="0"/>
        <pt x="449" y="138" on="0"/>
        <pt x="449" y="221" on="1"/>
        <pt x="449" y="297" on="0"/>
        <pt x="380" y="393" on="0"/>
        <pt x="304" y="393" on="1"/>
        <pt x="269" y="393" on="0"/>
        <pt x="210" y="376" on="0"/>
        <pt x="175" y="361" on="1"/>
        <pt x="127" y="341" on="1"/>
        <pt x="128" y="192" on="0"/>
        <pt x="203" y="37" on="0"/>
      </contour>
    </TTGlyph>
    <TTGlyph name="braceleft" xMin="45" yMin="-129" xMax="261" yMax="828">
      <contour>
        <pt x="121" y="703" on="1"/>
        <pt x="121" y="769" on="0"/>
        <pt x="189" y="828" on="0"/>
        <pt x="261" y="828" on="1"/>
        <pt x="261" y="784" on="1"/>
        <pt x="214" y="784" on="0"/>
        <pt x="174" y="746" on="0"/>
        <pt x="174" y="705" on="1"/>
        <pt x="174" y="451" on="1"/>
        <pt x="174" y="400" on="0"/>
        <pt x="136" y="359" on="0"/>
        <pt x="99" y="349" on="1"/>
        <pt x="136" y="339" on="0"/>
        <pt x="174" y="299" on="0"/>
        <pt x="174" y="248" on="1"/>
        <pt x="174" y="-6" on="1"/>
        <pt x="174" y="-47" on="0"/>
        <pt x="214" y="-85" on="0"/>
        <pt x="261" y="-85" on="1"/>
        <pt x="261" y="-129" on="1"/>
        <pt x="189" y="-129" on="0"/>
        <pt x="121" y="-70" on="0"/>
        <pt x="121" y="-4" on="1"/>
        <pt x="121" y="251" on="1"/>
        <pt x="121" y="291" on="0"/>
        <pt x="82" y="325" on="0"/>
        <pt x="45" y="325" on="1"/>
        <pt x="45" y="373" on="1"/>
        <pt x="82" y="373" on="0"/>
        <pt x="121" y="408" on="0"/>
        <pt x="121" y="448" on="1"/>
      </contour>
    </TTGlyph>
    <TTGlyph name="braceleft.case" xMin="45" yMin="-139" xMax="261" yMax="818">
      <component glyphName="braceleft" x="0" y="-10" flags="0x4"/>
    </TTGlyph>
    <TTGlyph name="braceright" xMin="65" yMin="-129" xMax="281" yMax="828">
      <contour>
        <pt x="65" y="784" on="1"/>
        <pt x="65" y="828" on="1"/>
        <pt x="137" y="828" on="0"/>
        <pt x="205" y="769" on="0"/>
        <pt x="205" y="703" on="1"/>
        <pt x="205" y="448" on="1"/>
        <pt x="205" y="408" on="0"/>
        <pt x="244" y="373" on="0"/>
        <pt x="281" y="373" on="1"/>
        <pt x="281" y="325" on="1"/>
        <pt x="244" y="325" on="0"/>
        <pt x="205" y="291" on="0"/>
        <pt x="205" y="251" on="1"/>
        <pt x="205" y="-4" on="1"/>
        <pt x="205" y="-70" on="0"/>
        <pt x="137" y="-129" on="0"/>
        <pt x="65" y="-129" on="1"/>
        <pt x="65" y="-85" on="1"/>
        <pt x="112" y="-85" on="0"/>
        <pt x="152" y="-47" on="0"/>
        <pt x="152" y="-6" on="1"/>
        <pt x="152" y="248" on="1"/>
        <pt x="152" y="299" on="0"/>
        <pt x="190" y="339" on="0"/>
        <pt x="227" y="349" on="1"/>
        <pt x="190" y="359" on="0"/>
        <pt x="152" y="400" on="0"/>
        <pt x="152" y="451" on="1"/>
        <pt x="152" y="705" on="1"/>
        <pt x="152" y="746" on="0"/>
        <pt x="112" y="784" on="0"/>
      </contour>
    </TTGlyph>
    <TTGlyph name="braceright.case" xMin="65" yMin="-139" xMax="281" yMax="818">
      <component glyphName="braceright" x="0" y="-10" flags="0x4"/>
    </TTGlyph>
    <TTGlyph name="bracketleft" xMin="85" yMin="-112" xMax="250" yMax="806">
      <contour>
        <pt x="85" y="806" on="1"/>
        <pt x="250" y="806" on="1"/>
        <pt x="250" y="760" on="1"/>
        <pt x="138" y="760" on="1"/>
        <pt x="138" y="-66" on="1"/>
        <pt x="250" y="-66" on="1"/>
        <pt x="250" y="-112" on="1"/>
        <pt x="85" y="-112" on="1"/>
      </contour>
    </TTGlyph>
    <TTGlyph name="bracketleft.case" xMin="85" yMin="-122" xMax="250" yMax="796">
      <component glyphName="bracketleft" x="0" y="-10" flags="0x4"/>
    </TTGlyph>
    <TTGlyph name="bracketright" xMin="67" yMin="-112" xMax="232" yMax="806">
      <contour>
        <pt x="67" y="806" on="1"/>
        <pt x="232" y="806" on="1"/>
        <pt x="232" y="-112" on="1"/>
        <pt x="67" y="-112" on="1"/>
        <pt x="67" y="-66" on="1"/>
        <pt x="179" y="-66" on="1"/>
        <pt x="179" y="760" on="1"/>
        <pt x="67" y="760" on="1"/>
      </contour>
    </TTGlyph>
    <TTGlyph name="bracketright.case" xMin="67" yMin="-122" xMax="232" yMax="796">
      <component glyphName="bracketright" x="0" y="-10" flags="0x4"/>
    </TTGlyph>
    <TTGlyph name="breve" xMin="30" yMin="653" xMax="290" yMax="772">
      <contour>
        <pt x="290" y="763" on="1"/>
        <pt x="283" y="713" on="0"/>
        <pt x="210" y="653" on="0"/>
        <pt x="159" y="653" on="1"/>
        <pt x="108" y="653" on="0"/>
        <pt x="37" y="713" on="0"/>
        <pt x="30" y="763" on="1"/>
        <pt x="69" y="772" on="1"/>
        <pt x="79" y="737" on="0"/>
        <pt x="124" y="700" on="0"/>
        <pt x="159" y="700" on="1"/>
        <pt x="194" y="700" on="0"/>
        <pt x="241" y="737" on="0"/>
        <pt x="251" y="772" on="1"/>
      </contour>
    </TTGlyph>
    <TTGlyph name="breve-cy" xMin="30" yMin="653" xMax="290" yMax="754">
      <contour>
        <pt x="290" y="745" on="1"/>
        <pt x="283" y="702" on="0"/>
        <pt x="210" y="653" on="0"/>
        <pt x="159" y="653" on="1"/>
        <pt x="108" y="653" on="0"/>
        <pt x="37" y="702" on="0"/>
        <pt x="30" y="745" on="1"/>
        <pt x="69" y="754" on="1"/>
        <pt x="79" y="726" on="0"/>
        <pt x="124" y="700" on="0"/>
        <pt x="159" y="700" on="1"/>
        <pt x="194" y="700" on="0"/>
        <pt x="241" y="726" on="0"/>
        <pt x="251" y="754" on="1"/>
      </contour>
    </TTGlyph>
    <TTGlyph name="breve-cy.case" xMin="30" yMin="779" xMax="290" yMax="880">
      <component glyphName="breve-cy" x="0" y="126" flags="0x4"/>
    </TTGlyph>
    <TTGlyph name="breve-cy.sc" xMin="30" yMin="683" xMax="290" yMax="784">
      <component glyphName="breve-cy" x="0" y="30" flags="0x4"/>
    </TTGlyph>
    <TTGlyph name="breve.case" xMin="30" yMin="765" xMax="290" yMax="873">
      <contour>
        <pt x="290" y="865" on="1"/>
        <pt x="283" y="822" on="0"/>
        <pt x="210" y="765" on="0"/>
        <pt x="159" y="765" on="1"/>
        <pt x="108" y="765" on="0"/>
        <pt x="37" y="822" on="0"/>
        <pt x="30" y="865" on="1"/>
        <pt x="69" y="873" on="1"/>
        <pt x="79" y="846" on="0"/>
        <pt x="124" y="812" on="0"/>
        <pt x="159" y="812" on="1"/>
        <pt x="194" y="812" on="0"/>
        <pt x="241" y="846" on="0"/>
        <pt x="251" y="873" on="1"/>
      </contour>
    </TTGlyph>
    <TTGlyph name="breve.sc" xMin="30" yMin="683" xMax="290" yMax="802">
      <component glyphName="breve" x="0" y="30" flags="0x4"/>
    </TTGlyph>
    <TTGlyph name="brevecombcomb" xMin="39" yMin="639" xMax="299" yMax="747">
      <component glyphName="uni0306" x="0" y="0" flags="0x204"/>
    </TTGlyph>
    <TTGlyph name="brokenbar" xMin="177" yMin="-100" xMax="230" yMax="804">
      <contour>
        <pt x="177" y="804" on="1"/>
        <pt x="230" y="804" on="1"/>
        <pt x="230" y="443" on="1"/>
        <pt x="177" y="443" on="1"/>
      </contour>
      <contour>
        <pt x="177" y="262" on="1"/>
        <pt x="230" y="262" on="1"/>
        <pt x="230" y="-100" on="1"/>
        <pt x="177" y="-100" on="1"/>
      </contour>
    </TTGlyph>
    <TTGlyph name="bullet" xMin="70" yMin="273" xMax="216" yMax="419">
      <contour>
        <pt x="70" y="346" on="1"/>
        <pt x="70" y="377" on="0"/>
        <pt x="111" y="419" on="0"/>
        <pt x="143" y="419" on="1"/>
        <pt x="175" y="419" on="0"/>
        <pt x="216" y="377" on="0"/>
        <pt x="216" y="346" on="1"/>
        <pt x="216" y="315" on="0"/>
        <pt x="175" y="273" on="0"/>
        <pt x="143" y="273" on="1"/>
        <pt x="111" y="273" on="0"/>
        <pt x="70" y="315" on="0"/>
      </contour>
    </TTGlyph>
    <TTGlyph name="bulletoperator" xMin="56" yMin="272" xMax="150" yMax="366">
      <component glyphName="periodcentered" x="0" y="0" flags="0x204"/>
    </TTGlyph>
    <TTGlyph name="c" xMin="64" yMin="-11" xMax="436" yMax="534">
      <contour>
        <pt x="64" y="258" on="1"/>
        <pt x="64" y="383" on="0"/>
        <pt x="185" y="534" on="0"/>
        <pt x="285" y="534" on="1"/>
        <pt x="329" y="534" on="0"/>
        <pt x="399" y="509" on="0"/>
        <pt x="433" y="481" on="1"/>
        <pt x="404" y="443" on="1"/>
        <pt x="379" y="464" on="0"/>
        <pt x="324" y="485" on="0"/>
        <pt x="288" y="485" on="1"/>
        <pt x="216" y="485" on="0"/>
        <pt x="126" y="372" on="0"/>
        <pt x="126" y="259" on="1"/>
        <pt x="126" y="147" on="0"/>
        <pt x="216" y="39" on="0"/>
        <pt x="287" y="39" on="1"/>
        <pt x="324" y="39" on="0"/>
        <pt x="381" y="63" on="0"/>
        <pt x="407" y="85" on="1"/>
        <pt x="436" y="45" on="1"/>
        <pt x="405" y="19" on="0"/>
        <pt x="330" y="-11" on="0"/>
        <pt x="286" y="-11" on="1"/>
        <pt x="186" y="-11" on="0"/>
        <pt x="64" y="131" on="0"/>
      </contour>
    </TTGlyph>
    <TTGlyph name="c.sc" xMin="66" yMin="-9" xMax="469" yMax="571">
      <contour>
        <pt x="66" y="282" on="1"/>
        <pt x="66" y="424" on="0"/>
        <pt x="209" y="571" on="0"/>
        <pt x="308" y="571" on="1"/>
        <pt x="360" y="571" on="0"/>
        <pt x="431" y="543" on="0"/>
        <pt x="462" y="518" on="1"/>
        <pt x="432" y="481" on="1"/>
        <pt x="402" y="503" on="0"/>
        <pt x="348" y="523" on="0"/>
        <pt x="311" y="523" on="1"/>
        <pt x="236" y="523" on="0"/>
        <pt x="126" y="411" on="0"/>
        <pt x="126" y="282" on="1"/>
        <pt x="126" y="157" on="0"/>
        <pt x="233" y="40" on="0"/>
        <pt x="310" y="40" on="1"/>
        <pt x="354" y="40" on="0"/>
        <pt x="413" y="67" on="0"/>
        <pt x="439" y="87" on="1"/>
        <pt x="469" y="50" on="1"/>
        <pt x="442" y="25" on="0"/>
        <pt x="363" y="-9" on="0"/>
        <pt x="307" y="-9" on="1"/>
        <pt x="204" y="-9" on="0"/>
        <pt x="66" y="140" on="0"/>
      </contour>
    </TTGlyph>
    <TTGlyph name="cacute" xMin="64" yMin="-11" xMax="436" yMax="782">
      <component glyphName="acute" x="138" y="0" flags="0x4"/>
      <component glyphName="c" x="0" y="0" flags="0x204"/>
    </TTGlyph>
    <TTGlyph name="cacute.loclPLK" xMin="64" yMin="-11" xMax="436" yMax="762">
      <component glyphName="c" x="0" y="0" flags="0x204"/>
      <component glyphName="acute.loclPLK" x="152" y="0" flags="0x4"/>
    </TTGlyph>
    <TTGlyph name="cacute.sc" xMin="66" yMin="-9" xMax="469" yMax="812">
      <component glyphName="acute.sc" x="168" y="0" flags="0x4"/>
      <component glyphName="c.sc" x="0" y="0" flags="0x204"/>
    </TTGlyph>
    <TTGlyph name="cacute.sc.loclPLK" xMin="66" yMin="-9" xMax="469" yMax="803">
      <component glyphName="acute.sc.loclPLK" x="178" y="0" flags="0x4"/>
      <component glyphName="c.sc" x="0" y="0" flags="0x204"/>
    </TTGlyph>
    <TTGlyph name="capslock" xMin="60" yMin="-12" xMax="660" yMax="832">
      <contour>
        <pt x="491" y="255" on="1"/>
        <pt x="229" y="255" on="1"/>
        <pt x="229" y="534" on="1"/>
        <pt x="60" y="534" on="1"/>
        <pt x="360" y="832" on="1"/>
        <pt x="660" y="534" on="1"/>
        <pt x="491" y="534" on="1"/>
      </contour>
      <contour>
        <pt x="276" y="297" on="1"/>
        <pt x="444" y="297" on="1"/>
        <pt x="444" y="579" on="1"/>
        <pt x="551" y="579" on="1"/>
        <pt x="360" y="768" on="1"/>
        <pt x="169" y="579" on="1"/>
        <pt x="276" y="579" on="1"/>
      </contour>
      <contour>
        <pt x="229" y="155" on="1"/>
        <pt x="491" y="155" on="1"/>
        <pt x="491" y="38" on="1"/>
        <pt x="491" y="16" on="0"/>
        <pt x="463" y="-12" on="0"/>
        <pt x="441" y="-12" on="1"/>
        <pt x="279" y="-12" on="1"/>
        <pt x="257" y="-12" on="0"/>
        <pt x="229" y="16" on="0"/>
        <pt x="229" y="38" on="1"/>
      </contour>
      <contour>
        <pt x="444" y="113" on="1"/>
        <pt x="276" y="113" on="1"/>
        <pt x="276" y="32" on="1"/>
        <pt x="444" y="32" on="1"/>
      </contour>
    </TTGlyph>
    <TTGlyph name="caron" xMin="30" yMin="633" xMax="324" yMax="769">
      <contour>
        <pt x="177" y="684" on="1"/>
        <pt x="299" y="769" on="1"/>
        <pt x="324" y="739" on="1"/>
        <pt x="195" y="633" on="1"/>
        <pt x="160" y="633" on="1"/>
        <pt x="30" y="739" on="1"/>
        <pt x="56" y="769" on="1"/>
      </contour>
    </TTGlyph>
    <TTGlyph name="caron.alt" xMin="63" yMin="521" xMax="135" yMax="691">
      <contour>
        <pt x="63" y="527" on="1"/>
        <pt x="80" y="691" on="1"/>
        <pt x="135" y="684" on="1"/>
        <pt x="98" y="521" on="1"/>
      </contour>
    </TTGlyph>
    <TTGlyph name="caron.case" xMin="30" yMin="756" xMax="324" yMax="887">
      <contour>
        <pt x="177" y="807" on="1"/>
        <pt x="299" y="887" on="1"/>
        <pt x="324" y="857" on="1"/>
        <pt x="195" y="756" on="1"/>
        <pt x="160" y="756" on="1"/>
        <pt x="30" y="857" on="1"/>
        <pt x="56" y="887" on="1"/>
      </contour>
    </TTGlyph>
    <TTGlyph name="caron.sc" xMin="30" yMin="663" xMax="324" yMax="799">
      <component glyphName="caron" x="0" y="30" flags="0x4"/>
    </TTGlyph>
    <TTGlyph name="caroncombcomb" xMin="39" yMin="630" xMax="333" yMax="761">
      <component glyphName="uni030C" x="0" y="0" flags="0x204"/>
    </TTGlyph>
    <TTGlyph name="ccaron" xMin="64" yMin="-11" xMax="436" yMax="771">
      <component glyphName="caron" x="111" y="2" flags="0x4"/>
      <component glyphName="c" x="0" y="0" flags="0x204"/>
    </TTGlyph>
    <TTGlyph name="ccaron.sc" xMin="66" yMin="-9" xMax="469" yMax="799">
      <component glyphName="caron.sc" x="134" y="0" flags="0x4"/>
      <component glyphName="c.sc" x="0" y="0" flags="0x204"/>
    </TTGlyph>
    <TTGlyph name="ccedilla" xMin="64" yMin="-227" xMax="436" yMax="534">
      <component glyphName="c" x="0" y="0" flags="0x204"/>
      <component glyphName="cedilla" x="176" y="0" flags="0x4"/>
    </TTGlyph>
    <TTGlyph name="ccedilla.sc" xMin="66" yMin="-227" xMax="469" yMax="571">
      <component glyphName="cedilla.sc" x="198" y="0" flags="0x4"/>
      <component glyphName="c.sc" x="0" y="0" flags="0x204"/>
    </TTGlyph>
    <TTGlyph name="ccircumflex" xMin="64" yMin="-11" xMax="436" yMax="779">
      <component glyphName="circumflex" x="110" y="0" flags="0x4"/>
      <component glyphName="c" x="0" y="0" flags="0x204"/>
    </TTGlyph>
    <TTGlyph name="ccircumflex.sc" xMin="66" yMin="-9" xMax="469" yMax="809">
      <component glyphName="c.sc" x="0" y="0" flags="0x204"/>
      <component glyphName="circumflex.sc" x="134" y="0" flags="0x4"/>
    </TTGlyph>
    <TTGlyph name="cdotaccent" xMin="64" yMin="-11" xMax="436" yMax="752">
      <component glyphName="c" x="0" y="0" flags="0x204"/>
      <component glyphName="dotaccent" x="212" y="0" flags="0x4"/>
    </TTGlyph>
    <TTGlyph name="cdotaccent.sc" xMin="66" yMin="-9" xMax="469" yMax="782">
      <component glyphName="dotaccent.sc" x="238" y="0" flags="0x4"/>
      <component glyphName="c.sc" x="0" y="0" flags="0x204"/>
    </TTGlyph>
    <TTGlyph name="cedilla" xMin="30" yMin="-227" xMax="215" yMax="16">
      <contour>
        <pt x="85" y="16" on="1"/>
        <pt x="123" y="16" on="1"/>
        <pt x="123" y="-64" on="1"/>
        <pt x="171" y="-68" on="0"/>
        <pt x="215" y="-109" on="0"/>
        <pt x="215" y="-140" on="1"/>
        <pt x="215" y="-182" on="0"/>
        <pt x="152" y="-227" on="0"/>
        <pt x="110" y="-227" on="1"/>
        <pt x="84" y="-227" on="0"/>
        <pt x="43" y="-215" on="0"/>
        <pt x="30" y="-206" on="1"/>
        <pt x="48" y="-170" on="1"/>
        <pt x="60" y="-177" on="0"/>
        <pt x="89" y="-186" on="0"/>
        <pt x="108" y="-186" on="1"/>
        <pt x="131" y="-186" on="0"/>
        <pt x="163" y="-164" on="0"/>
        <pt x="163" y="-140" on="1"/>
        <pt x="163" y="-118" on="0"/>
        <pt x="121" y="-96" on="0"/>
        <pt x="74" y="-96" on="1"/>
      </contour>
    </TTGlyph>
    <TTGlyph name="cedilla.case" xMin="30" yMin="-227" xMax="215" yMax="16">
      <component glyphName="cedilla" x="0" y="0" flags="0x204"/>
    </TTGlyph>
    <TTGlyph name="cedilla.sc" xMin="30" yMin="-227" xMax="215" yMax="16">
      <component glyphName="cedilla" x="0" y="0" flags="0x204"/>
    </TTGlyph>
    <TTGlyph name="cedillaTcedilla" xMin="30" yMin="-227" xMax="215" yMax="16">
      <contour>
        <pt x="85" y="16" on="1"/>
        <pt x="121" y="16" on="1"/>
        <pt x="121" y="-64" on="1"/>
        <pt x="170" y="-68" on="0"/>
        <pt x="215" y="-109" on="0"/>
        <pt x="215" y="-140" on="1"/>
        <pt x="215" y="-182" on="0"/>
        <pt x="151" y="-227" on="0"/>
        <pt x="108" y="-227" on="1"/>
        <pt x="83" y="-227" on="0"/>
        <pt x="43" y="-215" on="0"/>
        <pt x="30" y="-206" on="1"/>
        <pt x="48" y="-170" on="1"/>
        <pt x="60" y="-177" on="0"/>
        <pt x="88" y="-186" on="0"/>
        <pt x="107" y="-186" on="1"/>
        <pt x="130" y="-186" on="0"/>
        <pt x="163" y="-164" on="0"/>
        <pt x="163" y="-140" on="1"/>
        <pt x="163" y="-118" on="0"/>
        <pt x="121" y="-96" on="0"/>
        <pt x="74" y="-96" on="1"/>
      </contour>
    </TTGlyph>
    <TTGlyph name="cent" xMin="92" yMin="-150" xMax="464" yMax="680">
      <component glyphName="cent.lf" x="28" y="0" flags="0x4"/>
    </TTGlyph>
    <TTGlyph name="cent.lf" xMin="64" yMin="-150" xMax="436" yMax="680">
      <contour>
        <pt x="436" y="45" on="1"/>
        <pt x="410" y="23" on="0"/>
        <pt x="347" y="-6" on="0"/>
        <pt x="310" y="-10" on="1"/>
        <pt x="310" y="-150" on="1"/>
        <pt x="260" y="-150" on="1"/>
        <pt x="260" y="-10" on="1"/>
        <pt x="171" y="-1" on="0"/>
        <pt x="64" y="139" on="0"/>
        <pt x="64" y="258" on="1"/>
        <pt x="64" y="376" on="0"/>
        <pt x="171" y="524" on="0"/>
        <pt x="261" y="533" on="1"/>
        <pt x="261" y="680" on="1"/>
        <pt x="310" y="680" on="1"/>
        <pt x="310" y="533" on="1"/>
        <pt x="345" y="530" on="0"/>
        <pt x="405" y="505" on="0"/>
        <pt x="433" y="481" on="1"/>
        <pt x="404" y="443" on="1"/>
        <pt x="379" y="464" on="0"/>
        <pt x="324" y="485" on="0"/>
        <pt x="288" y="485" on="1"/>
        <pt x="216" y="485" on="0"/>
        <pt x="126" y="372" on="0"/>
        <pt x="126" y="259" on="1"/>
        <pt x="126" y="147" on="0"/>
        <pt x="216" y="39" on="0"/>
        <pt x="287" y="39" on="1"/>
        <pt x="324" y="39" on="0"/>
        <pt x="381" y="63" on="0"/>
        <pt x="407" y="85" on="1"/>
      </contour>
    </TTGlyph>
    <TTGlyph name="cent.osf" xMin="64" yMin="-150" xMax="436" yMax="680">
      <component glyphName="cent.lf" x="0" y="0" flags="0x204"/>
    </TTGlyph>
    <TTGlyph name="cent.tosf" xMin="90" yMin="-150" xMax="462" yMax="680">
      <component glyphName="cent" x="-2" y="0" flags="0x4"/>
    </TTGlyph>
    <TTGlyph name="chi" xMin="3" yMin="-203" xMax="431" yMax="532">
      <contour>
        <pt x="374" y="-203" on="1"/>
        <pt x="221" y="137" on="1"/>
        <pt x="63" y="-202" on="1"/>
        <pt x="6" y="-195" on="1"/>
        <pt x="191" y="185" on="1"/>
        <pt x="160" y="255" on="0"/>
        <pt x="111" y="356" on="0"/>
        <pt x="68" y="430" on="0"/>
        <pt x="26" y="486" on="0"/>
        <pt x="3" y="511" on="1"/>
        <pt x="59" y="532" on="1"/>
        <pt x="99" y="485" on="0"/>
        <pt x="171" y="361" on="0"/>
        <pt x="222" y="234" on="1"/>
        <pt x="352" y="530" on="1"/>
        <pt x="411" y="523" on="1"/>
        <pt x="251" y="184" on="1"/>
        <pt x="431" y="-193" on="1"/>
      </contour>
    </TTGlyph>
    <TTGlyph name="chi.sc" xMin="11" yMin="0" xMax="443" yMax="562">
      <component glyphName="x.sc" x="0" y="0" flags="0x204"/>
    </TTGlyph>
    <TTGlyph name="circumflex" xMin="30" yMin="644" xMax="324" yMax="779">
      <contour>
        <pt x="177" y="728" on="1"/>
        <pt x="55" y="644" on="1"/>
        <pt x="30" y="673" on="1"/>
        <pt x="159" y="779" on="1"/>
        <pt x="194" y="779" on="1"/>
        <pt x="324" y="673" on="1"/>
        <pt x="298" y="644" on="1"/>
      </contour>
    </TTGlyph>
    <TTGlyph name="circumflex.case" xMin="30" yMin="762" xMax="324" yMax="893">
      <contour>
        <pt x="324" y="792" on="1"/>
        <pt x="299" y="762" on="1"/>
        <pt x="177" y="842" on="1"/>
        <pt x="56" y="762" on="1"/>
        <pt x="30" y="792" on="1"/>
        <pt x="160" y="893" on="1"/>
        <pt x="195" y="893" on="1"/>
      </contour>
    </TTGlyph>
    <TTGlyph name="circumflex.sc" xMin="30" yMin="674" xMax="324" yMax="809">
      <component glyphName="circumflex" x="0" y="30" flags="0x4"/>
    </TTGlyph>
    <TTGlyph name="circumflexcombcomb" xMin="39" yMin="636" xMax="333" yMax="767">
      <component glyphName="uni0302" x="0" y="0" flags="0x204"/>
    </TTGlyph>
    <TTGlyph name="clear" xMin="100" yMin="-12" xMax="1140" yMax="713">
      <contour>
        <pt x="1090" y="-12" on="1"/>
        <pt x="150" y="-12" on="1"/>
        <pt x="128" y="-12" on="0"/>
        <pt x="100" y="16" on="0"/>
        <pt x="100" y="38" on="1"/>
        <pt x="100" y="663" on="1"/>
        <pt x="100" y="685" on="0"/>
        <pt x="128" y="713" on="0"/>
        <pt x="150" y="713" on="1"/>
        <pt x="1090" y="713" on="1"/>
        <pt x="1112" y="713" on="0"/>
        <pt x="1140" y="685" on="0"/>
        <pt x="1140" y="663" on="1"/>
        <pt x="1140" y="38" on="1"/>
        <pt x="1140" y="16" on="0"/>
        <pt x="1112" y="-12" on="0"/>
      </contour>
      <contour>
        <pt x="553" y="355" on="1"/>
        <pt x="399" y="201" on="1"/>
        <pt x="466" y="134" on="1"/>
        <pt x="620" y="288" on="1"/>
        <pt x="774" y="134" on="1"/>
        <pt x="841" y="201" on="1"/>
        <pt x="687" y="355" on="1"/>
        <pt x="841" y="508" on="1"/>
        <pt x="774" y="577" on="1"/>
        <pt x="620" y="422" on="1"/>
        <pt x="466" y="577" on="1"/>
        <pt x="399" y="508" on="1"/>
      </contour>
    </TTGlyph>
    <TTGlyph name="colon" xMin="56" yMin="-11" xMax="150" yMax="474">
      <component glyphName="period" x="0" y="0" flags="0x204"/>
      <component glyphName="period" x="0" y="391" flags="0x4"/>
    </TTGlyph>
    <TTGlyph name="comma" xMin="38" yMin="-151" xMax="150" yMax="83">
      <contour>
        <pt x="56" y="36" on="1"/>
        <pt x="56" y="55" on="0"/>
        <pt x="82" y="83" on="0"/>
        <pt x="103" y="83" on="1"/>
        <pt x="124" y="83" on="0"/>
        <pt x="150" y="55" on="0"/>
        <pt x="150" y="36" on="1"/>
        <pt x="150" y="23" on="0"/>
        <pt x="142" y="-3" on="0"/>
        <pt x="135" y="-18" on="1"/>
        <pt x="80" y="-151" on="1"/>
        <pt x="38" y="-151" on="1"/>
        <pt x="78" y="-4" on="1"/>
        <pt x="68" y="2" on="0"/>
        <pt x="56" y="23" on="0"/>
      </contour>
    </TTGlyph>
    <TTGlyph name="copyright" xMin="109" yMin="134" xMax="701" yMax="736">
      <contour>
        <pt x="109" y="435" on="1"/>
        <pt x="109" y="499" on="0"/>
        <pt x="155" y="609" on="0"/>
        <pt x="234" y="690" on="0"/>
        <pt x="343" y="736" on="0"/>
        <pt x="405" y="736" on="1"/>
        <pt x="467" y="736" on="0"/>
        <pt x="576" y="690" on="0"/>
        <pt x="655" y="610" on="0"/>
        <pt x="701" y="499" on="0"/>
        <pt x="701" y="435" on="1"/>
        <pt x="701" y="371" on="0"/>
        <pt x="655" y="260" on="0"/>
        <pt x="576" y="180" on="0"/>
        <pt x="467" y="134" on="0"/>
        <pt x="405" y="134" on="1"/>
        <pt x="343" y="134" on="0"/>
        <pt x="234" y="180" on="0"/>
        <pt x="155" y="260" on="0"/>
        <pt x="109" y="370" on="0"/>
      </contour>
      <contour>
        <pt x="657" y="435" on="1"/>
        <pt x="657" y="548" on="0"/>
        <pt x="514" y="697" on="0"/>
        <pt x="406" y="697" on="1"/>
        <pt x="297" y="697" on="0"/>
        <pt x="153" y="547" on="0"/>
        <pt x="153" y="435" on="1"/>
        <pt x="153" y="322" on="0"/>
        <pt x="297" y="173" on="0"/>
        <pt x="406" y="173" on="1"/>
        <pt x="514" y="173" on="0"/>
        <pt x="657" y="322" on="0"/>
      </contour>
      <contour>
        <pt x="259" y="436" on="1"/>
        <pt x="259" y="527" on="0"/>
        <pt x="353" y="615" on="0"/>
        <pt x="407" y="615" on="1"/>
        <pt x="440" y="615" on="0"/>
        <pt x="487" y="597" on="0"/>
        <pt x="508" y="581" on="1"/>
        <pt x="483" y="548" on="1"/>
        <pt x="467" y="561" on="0"/>
        <pt x="432" y="573" on="0"/>
        <pt x="409" y="573" on="1"/>
        <pt x="374" y="573" on="0"/>
        <pt x="310" y="514" on="0"/>
        <pt x="310" y="436" on="1"/>
        <pt x="310" y="366" on="0"/>
        <pt x="366" y="298" on="0"/>
        <pt x="409" y="298" on="1"/>
        <pt x="437" y="298" on="0"/>
        <pt x="476" y="314" on="0"/>
        <pt x="493" y="327" on="1"/>
        <pt x="514" y="294" on="1"/>
        <pt x="495" y="278" on="0"/>
        <pt x="444" y="255" on="0"/>
        <pt x="407" y="255" on="1"/>
        <pt x="342" y="255" on="0"/>
        <pt x="259" y="352" on="0"/>
      </contour>
    </TTGlyph>
    <TTGlyph name="currency" xMin="48" yMin="102" xMax="508" yMax="579">
      <component glyphName="currency.lf" x="-2" y="0" flags="0x4"/>
    </TTGlyph>
    <TTGlyph name="currency.lf" xMin="50" yMin="102" xMax="510" yMax="579">
      <contour>
        <pt x="475" y="102" on="1"/>
        <pt x="395" y="180" on="1"/>
        <pt x="372" y="164" on="0"/>
        <pt x="314" y="146" on="0"/>
        <pt x="280" y="146" on="1"/>
        <pt x="246" y="146" on="0"/>
        <pt x="188" y="165" on="0"/>
        <pt x="165" y="182" on="1"/>
        <pt x="85" y="102" on="1"/>
        <pt x="50" y="137" on="1"/>
        <pt x="130" y="217" on="1"/>
        <pt x="111" y="242" on="0"/>
        <pt x="90" y="306" on="0"/>
        <pt x="90" y="341" on="1"/>
        <pt x="90" y="375" on="0"/>
        <pt x="111" y="438" on="0"/>
        <pt x="130" y="463" on="1"/>
        <pt x="50" y="543" on="1"/>
        <pt x="85" y="579" on="1"/>
        <pt x="165" y="498" on="1"/>
        <pt x="187" y="515" on="0"/>
        <pt x="246" y="535" on="0"/>
        <pt x="280" y="535" on="1"/>
        <pt x="314" y="535" on="0"/>
        <pt x="373" y="516" on="0"/>
        <pt x="396" y="500" on="1"/>
        <pt x="475" y="579" on="1"/>
        <pt x="510" y="543" on="1"/>
        <pt x="432" y="465" on="1"/>
        <pt x="451" y="440" on="0"/>
        <pt x="472" y="376" on="0"/>
        <pt x="472" y="341" on="1"/>
        <pt x="472" y="305" on="0"/>
        <pt x="451" y="240" on="0"/>
        <pt x="431" y="215" on="1"/>
        <pt x="510" y="137" on="1"/>
      </contour>
      <contour>
        <pt x="417" y="341" on="1"/>
        <pt x="417" y="407" on="0"/>
        <pt x="349" y="489" on="0"/>
        <pt x="281" y="489" on="1"/>
        <pt x="214" y="489" on="0"/>
        <pt x="145" y="407" on="0"/>
        <pt x="145" y="341" on="1"/>
        <pt x="145" y="275" on="0"/>
        <pt x="214" y="193" on="0"/>
        <pt x="281" y="193" on="1"/>
        <pt x="349" y="193" on="0"/>
        <pt x="417" y="275" on="0"/>
      </contour>
    </TTGlyph>
    <TTGlyph name="currency.osf" xMin="50" yMin="102" xMax="510" yMax="579">
      <component glyphName="currency.lf" x="0" y="0" flags="0x204"/>
    </TTGlyph>
    <TTGlyph name="currency.tosf" xMin="48" yMin="102" xMax="508" yMax="579">
      <component glyphName="currency.lf" x="-2" y="0" flags="0x4"/>
    </TTGlyph>
    <TTGlyph name="d" xMin="69" yMin="-11" xMax="479" yMax="743">
      <contour>
        <pt x="274" y="37" on="1"/>
        <pt x="327" y="37" on="0"/>
        <pt x="395" y="88" on="0"/>
        <pt x="422" y="134" on="1"/>
        <pt x="422" y="407" on="1"/>
        <pt x="398" y="440" on="0"/>
        <pt x="332" y="486" on="0"/>
        <pt x="284" y="486" on="1"/>
        <pt x="215" y="486" on="0"/>
        <pt x="129" y="370" on="0"/>
        <pt x="130" y="260" on="1"/>
        <pt x="131" y="151" on="0"/>
        <pt x="208" y="37" on="0"/>
      </contour>
      <contour>
        <pt x="429" y="0" on="1"/>
        <pt x="423" y="81" on="1"/>
        <pt x="401" y="41" on="0"/>
        <pt x="322" y="-11" on="0"/>
        <pt x="265" y="-11" on="1"/>
        <pt x="175" y="-11" on="0"/>
        <pt x="69" y="135" on="0"/>
        <pt x="69" y="259" on="1"/>
        <pt x="69" y="379" on="0"/>
        <pt x="179" y="534" on="0"/>
        <pt x="275" y="534" on="1"/>
        <pt x="329" y="534" on="0"/>
        <pt x="400" y="490" on="0"/>
        <pt x="422" y="462" on="1"/>
        <pt x="422" y="743" on="1"/>
        <pt x="479" y="736" on="1"/>
        <pt x="479" y="0" on="1"/>
      </contour>
    </TTGlyph>
    <TTGlyph name="d.sc" xMin="111" yMin="0" xMax="510" yMax="562">
      <contour>
        <pt x="111" y="562" on="1"/>
        <pt x="234" y="562" on="1"/>
        <pt x="285" y="562" on="0"/>
        <pt x="385" y="540" on="0"/>
        <pt x="462" y="480" on="0"/>
        <pt x="510" y="371" on="0"/>
        <pt x="510" y="285" on="1"/>
        <pt x="510" y="198" on="0"/>
        <pt x="461" y="87" on="0"/>
        <pt x="384" y="24" on="0"/>
        <pt x="288" y="0" on="0"/>
        <pt x="242" y="0" on="1"/>
        <pt x="111" y="0" on="1"/>
      </contour>
      <contour>
        <pt x="450" y="285" on="1"/>
        <pt x="450" y="360" on="0"/>
        <pt x="413" y="451" on="0"/>
        <pt x="354" y="500" on="0"/>
        <pt x="278" y="515" on="0"/>
        <pt x="240" y="515" on="1"/>
        <pt x="168" y="515" on="1"/>
        <pt x="168" y="46" on="1"/>
        <pt x="246" y="46" on="1"/>
        <pt x="284" y="46" on="0"/>
        <pt x="357" y="66" on="0"/>
        <pt x="415" y="118" on="0"/>
        <pt x="450" y="212" on="0"/>
      </contour>
    </TTGlyph>
    <TTGlyph name="dagger" xMin="66" yMin="0" xMax="490" yMax="685">
      <contour>
        <pt x="250" y="685" on="1"/>
        <pt x="306" y="685" on="1"/>
        <pt x="306" y="531" on="1"/>
        <pt x="490" y="531" on="1"/>
        <pt x="490" y="482" on="1"/>
        <pt x="306" y="482" on="1"/>
        <pt x="306" y="0" on="1"/>
        <pt x="250" y="0" on="1"/>
        <pt x="250" y="482" on="1"/>
        <pt x="66" y="482" on="1"/>
        <pt x="66" y="531" on="1"/>
        <pt x="250" y="531" on="1"/>
      </contour>
    </TTGlyph>
    <TTGlyph name="dagger.lf" xMin="51" yMin="0" xMax="455" yMax="665">
      <contour>
        <pt x="225" y="665" on="1"/>
        <pt x="281" y="665" on="1"/>
        <pt x="281" y="511" on="1"/>
        <pt x="455" y="511" on="1"/>
        <pt x="455" y="462" on="1"/>
        <pt x="281" y="462" on="1"/>
        <pt x="281" y="0" on="1"/>
        <pt x="225" y="0" on="1"/>
        <pt x="225" y="462" on="1"/>
        <pt x="51" y="462" on="1"/>
        <pt x="51" y="511" on="1"/>
        <pt x="225" y="511" on="1"/>
      </contour>
    </TTGlyph>
    <TTGlyph name="dagger.osf" xMin="51" yMin="0" xMax="455" yMax="665">
      <component glyphName="dagger.lf" x="0" y="0" flags="0x204"/>
    </TTGlyph>
    <TTGlyph name="dagger.tosf" xMin="76" yMin="0" xMax="480" yMax="665">
      <component glyphName="dagger.lf" x="25" y="0" flags="0x4"/>
    </TTGlyph>
    <TTGlyph name="daggerdbl" xMin="66" yMin="0" xMax="490" yMax="685">
      <contour>
        <pt x="490" y="202" on="1"/>
        <pt x="306" y="202" on="1"/>
        <pt x="306" y="0" on="1"/>
        <pt x="250" y="0" on="1"/>
        <pt x="250" y="202" on="1"/>
        <pt x="66" y="202" on="1"/>
        <pt x="66" y="252" on="1"/>
        <pt x="250" y="252" on="1"/>
        <pt x="250" y="482" on="1"/>
        <pt x="66" y="482" on="1"/>
        <pt x="66" y="531" on="1"/>
        <pt x="250" y="531" on="1"/>
        <pt x="250" y="685" on="1"/>
        <pt x="306" y="685" on="1"/>
        <pt x="306" y="531" on="1"/>
        <pt x="490" y="531" on="1"/>
        <pt x="490" y="482" on="1"/>
        <pt x="306" y="482" on="1"/>
        <pt x="306" y="252" on="1"/>
        <pt x="490" y="252" on="1"/>
      </contour>
    </TTGlyph>
    <TTGlyph name="daggerdbl.lf" xMin="51" yMin="0" xMax="458" yMax="665">
      <contour>
        <pt x="458" y="174" on="1"/>
        <pt x="282" y="174" on="1"/>
        <pt x="282" y="0" on="1"/>
        <pt x="226" y="0" on="1"/>
        <pt x="226" y="174" on="1"/>
        <pt x="51" y="174" on="1"/>
        <pt x="51" y="223" on="1"/>
        <pt x="226" y="223" on="1"/>
        <pt x="226" y="462" on="1"/>
        <pt x="52" y="462" on="1"/>
        <pt x="52" y="511" on="1"/>
        <pt x="226" y="511" on="1"/>
        <pt x="226" y="665" on="1"/>
        <pt x="282" y="665" on="1"/>
        <pt x="282" y="511" on="1"/>
        <pt x="456" y="511" on="1"/>
        <pt x="456" y="462" on="1"/>
        <pt x="282" y="462" on="1"/>
        <pt x="282" y="223" on="1"/>
        <pt x="458" y="223" on="1"/>
      </contour>
    </TTGlyph>
    <TTGlyph name="daggerdbl.osf" xMin="51" yMin="0" xMax="458" yMax="665">
      <component glyphName="daggerdbl.lf" x="0" y="0" flags="0x204"/>
    </TTGlyph>
    <TTGlyph name="daggerdbl.tosf" xMin="75" yMin="0" xMax="482" yMax="665">
      <component glyphName="daggerdbl.lf" x="24" y="0" flags="0x4"/>
    </TTGlyph>
    <TTGlyph name="dcaron" xMin="69" yMin="-11" xMax="613" yMax="743">
      <component glyphName="caron.alt" x="478" y="51" flags="0x4"/>
      <component glyphName="d" x="0" y="0" flags="0x204"/>
    </TTGlyph>
    <TTGlyph name="dcaron.sc" xMin="111" yMin="0" xMax="510" yMax="799">
      <component glyphName="d.sc" x="0" y="0" flags="0x204"/>
      <component glyphName="caron.sc" x="99" y="0" flags="0x4"/>
    </TTGlyph>
    <TTGlyph name="dcroat" xMin="69" yMin="-11" xMax="555" yMax="743">
      <contour>
        <pt x="274" y="37" on="1"/>
        <pt x="327" y="37" on="0"/>
        <pt x="395" y="88" on="0"/>
        <pt x="422" y="134" on="1"/>
        <pt x="422" y="407" on="1"/>
        <pt x="398" y="440" on="0"/>
        <pt x="332" y="486" on="0"/>
        <pt x="284" y="486" on="1"/>
        <pt x="215" y="486" on="0"/>
        <pt x="129" y="370" on="0"/>
        <pt x="130" y="260" on="1"/>
        <pt x="131" y="151" on="0"/>
        <pt x="208" y="37" on="0"/>
      </contour>
      <contour>
        <pt x="429" y="0" on="1"/>
        <pt x="423" y="81" on="1"/>
        <pt x="401" y="41" on="0"/>
        <pt x="322" y="-11" on="0"/>
        <pt x="265" y="-11" on="1"/>
        <pt x="175" y="-11" on="0"/>
        <pt x="69" y="135" on="0"/>
        <pt x="69" y="259" on="1"/>
        <pt x="69" y="379" on="0"/>
        <pt x="179" y="534" on="0"/>
        <pt x="275" y="534" on="1"/>
        <pt x="329" y="534" on="0"/>
        <pt x="400" y="490" on="0"/>
        <pt x="422" y="462" on="1"/>
        <pt x="422" y="617" on="1"/>
        <pt x="261" y="617" on="1"/>
        <pt x="254" y="662" on="1"/>
        <pt x="422" y="662" on="1"/>
        <pt x="422" y="743" on="1"/>
        <pt x="479" y="736" on="1"/>
        <pt x="479" y="662" on="1"/>
        <pt x="555" y="662" on="1"/>
        <pt x="555" y="617" on="1"/>
        <pt x="479" y="617" on="1"/>
        <pt x="479" y="0" on="1"/>
      </contour>
    </TTGlyph>
    <TTGlyph name="dcroat.sc" xMin="23" yMin="0" xMax="478" yMax="562">
      <component glyphName="eth.sc" x="0" y="0" flags="0x204"/>
    </TTGlyph>
    <TTGlyph name="degree" xMin="87" yMin="416" xMax="387" yMax="716">
      <component glyphName="degree.lf" x="18" y="20" flags="0x4"/>
    </TTGlyph>
    <TTGlyph name="degree.lf" xMin="69" yMin="396" xMax="369" yMax="696">
      <contour>
        <pt x="369" y="545" on="1"/>
        <pt x="369" y="476" on="0"/>
        <pt x="279" y="396" on="0"/>
        <pt x="219" y="396" on="1"/>
        <pt x="162" y="396" on="0"/>
        <pt x="69" y="474" on="0"/>
        <pt x="69" y="546" on="1"/>
        <pt x="69" y="615" on="0"/>
        <pt x="162" y="696" on="0"/>
        <pt x="219" y="696" on="1"/>
        <pt x="279" y="696" on="0"/>
        <pt x="369" y="616" on="0"/>
      </contour>
      <contour>
        <pt x="120" y="546" on="1"/>
        <pt x="120" y="497" on="0"/>
        <pt x="179" y="438" on="0"/>
        <pt x="219" y="438" on="1"/>
        <pt x="262" y="438" on="0"/>
        <pt x="318" y="496" on="0"/>
        <pt x="318" y="545" on="1"/>
        <pt x="318" y="595" on="0"/>
        <pt x="262" y="653" on="0"/>
        <pt x="219" y="653" on="1"/>
        <pt x="179" y="653" on="0"/>
        <pt x="120" y="596" on="0"/>
      </contour>
    </TTGlyph>
    <TTGlyph name="degree.osf" xMin="69" yMin="396" xMax="369" yMax="696">
      <component glyphName="degree.lf" x="0" y="0" flags="0x204"/>
    </TTGlyph>
    <TTGlyph name="degree.tosf" xMin="87" yMin="396" xMax="387" yMax="696">
      <component glyphName="degree.lf" x="18" y="0" flags="0x4"/>
    </TTGlyph>
    <TTGlyph name="deleterightKey" xMin="100" yMin="-12" xMax="1360" yMax="713">
      <contour>
        <pt x="980" y="-12" on="1"/>
        <pt x="150" y="-12" on="1"/>
        <pt x="128" y="-12" on="0"/>
        <pt x="100" y="16" on="0"/>
        <pt x="100" y="38" on="1"/>
        <pt x="100" y="663" on="1"/>
        <pt x="100" y="685" on="0"/>
        <pt x="128" y="713" on="0"/>
        <pt x="150" y="713" on="1"/>
        <pt x="980" y="713" on="1"/>
        <pt x="1360" y="352" on="1"/>
      </contour>
      <contour>
        <pt x="503" y="355" on="1"/>
        <pt x="349" y="201" on="1"/>
        <pt x="416" y="134" on="1"/>
        <pt x="570" y="288" on="1"/>
        <pt x="724" y="134" on="1"/>
        <pt x="791" y="201" on="1"/>
        <pt x="637" y="355" on="1"/>
        <pt x="791" y="508" on="1"/>
        <pt x="724" y="577" on="1"/>
        <pt x="570" y="422" on="1"/>
        <pt x="416" y="577" on="1"/>
        <pt x="349" y="508" on="1"/>
      </contour>
    </TTGlyph>
    <TTGlyph name="delta" xMin="64" yMin="-11" xMax="503" yMax="743">
      <contour>
        <pt x="503" y="238" on="1"/>
        <pt x="503" y="126" on="0"/>
        <pt x="388" y="-11" on="0"/>
        <pt x="284" y="-11" on="1"/>
        <pt x="185" y="-11" on="0"/>
        <pt x="64" y="119" on="0"/>
        <pt x="64" y="238" on="1"/>
        <pt x="64" y="328" on="0"/>
        <pt x="152" y="446" on="0"/>
        <pt x="224" y="478" on="1"/>
        <pt x="167" y="504" on="0"/>
        <pt x="119" y="568" on="0"/>
        <pt x="119" y="614" on="1"/>
        <pt x="119" y="666" on="0"/>
        <pt x="206" y="743" on="0"/>
        <pt x="284" y="743" on="1"/>
        <pt x="336" y="743" on="0"/>
        <pt x="414" y="717" on="0"/>
        <pt x="448" y="694" on="1"/>
        <pt x="417" y="658" on="1"/>
        <pt x="386" y="678" on="0"/>
        <pt x="328" y="696" on="0"/>
        <pt x="291" y="696" on="1"/>
        <pt x="235" y="696" on="0"/>
        <pt x="178" y="648" on="0"/>
        <pt x="178" y="612" on="1"/>
        <pt x="178" y="574" on="0"/>
        <pt x="230" y="525" on="0"/>
        <pt x="311" y="494" on="1"/>
        <pt x="407" y="455" on="0"/>
        <pt x="503" y="342" on="0"/>
      </contour>
      <contour>
        <pt x="284" y="37" on="1"/>
        <pt x="361" y="37" on="0"/>
        <pt x="442" y="139" on="0"/>
        <pt x="442" y="238" on="1"/>
        <pt x="442" y="327" on="0"/>
        <pt x="366" y="422" on="0"/>
        <pt x="266" y="461" on="1"/>
        <pt x="206" y="432" on="0"/>
        <pt x="125" y="325" on="0"/>
        <pt x="125" y="238" on="1"/>
        <pt x="125" y="140" on="0"/>
        <pt x="209" y="37" on="0"/>
      </contour>
    </TTGlyph>
    <TTGlyph name="delta.sc" xMin="17" yMin="0" xMax="489" yMax="563">
      <contour>
        <pt x="219" y="563" on="1"/>
        <pt x="289" y="563" on="1"/>
        <pt x="489" y="0" on="1"/>
        <pt x="17" y="0" on="1"/>
      </contour>
      <contour>
        <pt x="415" y="47" on="1"/>
        <pt x="253" y="516" on="1"/>
        <pt x="89" y="47" on="1"/>
      </contour>
    </TTGlyph>
    <TTGlyph name="descRound-cy" xMin="30" yMin="-229" xMax="226" yMax="20">
      <contour>
        <pt x="84" y="0" on="1"/>
        <pt x="97" y="20" on="1"/>
        <pt x="153" y="-3" on="0"/>
        <pt x="226" y="-72" on="0"/>
        <pt x="226" y="-126" on="1"/>
        <pt x="226" y="-172" on="0"/>
        <pt x="167" y="-229" on="0"/>
        <pt x="113" y="-229" on="1"/>
        <pt x="87" y="-229" on="0"/>
        <pt x="44" y="-216" on="0"/>
        <pt x="30" y="-208" on="1"/>
        <pt x="47" y="-170" on="1"/>
        <pt x="59" y="-176" on="0"/>
        <pt x="90" y="-186" on="0"/>
        <pt x="112" y="-186" on="1"/>
        <pt x="140" y="-186" on="0"/>
        <pt x="174" y="-153" on="0"/>
        <pt x="174" y="-125" on="1"/>
        <pt x="174" y="-84" on="0"/>
        <pt x="126" y="-25" on="0"/>
      </contour>
    </TTGlyph>
    <TTGlyph name="descStraight-cy" xMin="25" yMin="-145" xMax="122" yMax="48">
      <contour>
        <pt x="25" y="48" on="1"/>
        <pt x="122" y="48" on="1"/>
        <pt x="122" y="-145" on="1"/>
        <pt x="77" y="-145" on="1"/>
        <pt x="64" y="0" on="1"/>
        <pt x="34" y="0" on="1"/>
      </contour>
    </TTGlyph>
    <TTGlyph name="descStraight-cy.case" xMin="22" yMin="-145" xMax="122" yMax="50">
      <contour>
        <pt x="22" y="50" on="1"/>
        <pt x="122" y="50" on="1"/>
        <pt x="122" y="-145" on="1"/>
        <pt x="77" y="-145" on="1"/>
        <pt x="64" y="0" on="1"/>
        <pt x="31" y="0" on="1"/>
      </contour>
    </TTGlyph>
    <TTGlyph name="dieresis" xMin="30" yMin="663" xMax="297" yMax="741">
      <contour>
        <pt x="30" y="702" on="1"/>
        <pt x="30" y="718" on="0"/>
        <pt x="53" y="741" on="0"/>
        <pt x="69" y="741" on="1"/>
        <pt x="86" y="741" on="0"/>
        <pt x="109" y="718" on="0"/>
        <pt x="109" y="702" on="1"/>
        <pt x="109" y="686" on="0"/>
        <pt x="86" y="663" on="0"/>
        <pt x="69" y="663" on="1"/>
        <pt x="53" y="663" on="0"/>
        <pt x="30" y="686" on="0"/>
      </contour>
      <contour>
        <pt x="219" y="702" on="1"/>
        <pt x="219" y="718" on="0"/>
        <pt x="241" y="741" on="0"/>
        <pt x="258" y="741" on="1"/>
        <pt x="275" y="741" on="0"/>
        <pt x="297" y="718" on="0"/>
        <pt x="297" y="702" on="1"/>
        <pt x="297" y="686" on="0"/>
        <pt x="275" y="663" on="0"/>
        <pt x="258" y="663" on="1"/>
        <pt x="241" y="663" on="0"/>
        <pt x="219" y="686" on="0"/>
      </contour>
    </TTGlyph>
    <TTGlyph name="dieresis.case" xMin="30" yMin="789" xMax="297" yMax="867">
      <component glyphName="dieresis" x="0" y="126" flags="0x4"/>
    </TTGlyph>
    <TTGlyph name="dieresis.sc" xMin="30" yMin="693" xMax="297" yMax="771">
      <component glyphName="dieresis" x="0" y="30" flags="0x4"/>
    </TTGlyph>
    <TTGlyph name="dieresisacutecomb" xMin="-4" yMin="647" xMax="263" yMax="904">
      <contour>
        <pt x="20" y="800" on="1"/>
        <pt x="207" y="904" on="1"/>
        <pt x="233" y="852" on="1"/>
        <pt x="38" y="767" on="1"/>
      </contour>
      <contour>
        <pt x="184" y="686" on="1"/>
        <pt x="184" y="702" on="0"/>
        <pt x="207" y="725" on="0"/>
        <pt x="224" y="725" on="1"/>
        <pt x="240" y="725" on="0"/>
        <pt x="263" y="702" on="0"/>
        <pt x="263" y="686" on="1"/>
        <pt x="263" y="670" on="0"/>
        <pt x="240" y="647" on="0"/>
        <pt x="224" y="647" on="1"/>
        <pt x="207" y="647" on="0"/>
        <pt x="184" y="670" on="0"/>
      </contour>
      <contour>
        <pt x="-4" y="686" on="1"/>
        <pt x="-4" y="702" on="0"/>
        <pt x="18" y="725" on="0"/>
        <pt x="35" y="725" on="1"/>
        <pt x="52" y="725" on="0"/>
        <pt x="74" y="702" on="0"/>
        <pt x="74" y="686" on="1"/>
        <pt x="74" y="670" on="0"/>
        <pt x="52" y="647" on="0"/>
        <pt x="35" y="647" on="1"/>
        <pt x="18" y="647" on="0"/>
        <pt x="-4" y="670" on="0"/>
      </contour>
    </TTGlyph>
    <TTGlyph name="dieresiscombcomb" xMin="39" yMin="663" xMax="306" yMax="741">
      <component glyphName="uni0308" x="0" y="0" flags="0x204"/>
    </TTGlyph>
    <TTGlyph name="dieresisgravecomb" xMin="-4" yMin="647" xMax="263" yMax="904">
      <contour>
        <pt x="26" y="852" on="1"/>
        <pt x="51" y="904" on="1"/>
        <pt x="239" y="800" on="1"/>
        <pt x="221" y="767" on="1"/>
      </contour>
      <contour>
        <pt x="-4" y="686" on="1"/>
        <pt x="-4" y="702" on="0"/>
        <pt x="18" y="725" on="0"/>
        <pt x="35" y="725" on="1"/>
        <pt x="52" y="725" on="0"/>
        <pt x="74" y="702" on="0"/>
        <pt x="74" y="686" on="1"/>
        <pt x="74" y="670" on="0"/>
        <pt x="52" y="647" on="0"/>
        <pt x="35" y="647" on="1"/>
        <pt x="18" y="647" on="0"/>
        <pt x="-4" y="670" on="0"/>
      </contour>
      <contour>
        <pt x="184" y="686" on="1"/>
        <pt x="184" y="702" on="0"/>
        <pt x="207" y="725" on="0"/>
        <pt x="224" y="725" on="1"/>
        <pt x="240" y="725" on="0"/>
        <pt x="263" y="702" on="0"/>
        <pt x="263" y="686" on="1"/>
        <pt x="263" y="670" on="0"/>
        <pt x="240" y="647" on="0"/>
        <pt x="224" y="647" on="1"/>
        <pt x="207" y="647" on="0"/>
        <pt x="184" y="670" on="0"/>
      </contour>
    </TTGlyph>
    <TTGlyph name="dieresistonos" xMin="30" yMin="633" xMax="306" yMax="869">
      <contour>
        <pt x="146" y="723" on="1"/>
        <pt x="175" y="869" on="1"/>
        <pt x="238" y="857" on="1"/>
        <pt x="187" y="716" on="1"/>
      </contour>
      <contour>
        <pt x="227" y="672" on="1"/>
        <pt x="227" y="688" on="0"/>
        <pt x="250" y="710" on="0"/>
        <pt x="267" y="710" on="1"/>
        <pt x="284" y="710" on="0"/>
        <pt x="306" y="688" on="0"/>
        <pt x="306" y="672" on="1"/>
        <pt x="306" y="656" on="0"/>
        <pt x="284" y="633" on="0"/>
        <pt x="267" y="633" on="1"/>
        <pt x="250" y="633" on="0"/>
        <pt x="227" y="656" on="0"/>
      </contour>
      <contour>
        <pt x="30" y="672" on="1"/>
        <pt x="30" y="688" on="0"/>
        <pt x="53" y="710" on="0"/>
        <pt x="69" y="710" on="1"/>
        <pt x="86" y="710" on="0"/>
        <pt x="109" y="688" on="0"/>
        <pt x="109" y="672" on="1"/>
        <pt x="109" y="656" on="0"/>
        <pt x="86" y="633" on="0"/>
        <pt x="69" y="633" on="1"/>
        <pt x="53" y="633" on="0"/>
        <pt x="30" y="656" on="0"/>
      </contour>
    </TTGlyph>
    <TTGlyph name="divide" xMin="100" yMin="66" xMax="455" yMax="597">
      <component glyphName="divide.lf" x="31" y="0" flags="0x4"/>
    </TTGlyph>
    <TTGlyph name="divide.lf" xMin="69" yMin="66" xMax="424" yMax="597">
      <component glyphName="minus.lf" x="0" y="0" flags="0x204"/>
      <component glyphName="period" x="144" y="77" flags="0x4"/>
      <component glyphName="period" x="144" y="514" flags="0x4"/>
    </TTGlyph>
    <TTGlyph name="divide.osf" xMin="69" yMin="66" xMax="424" yMax="597">
      <component glyphName="divide.lf" x="0" y="0" flags="0x204"/>
    </TTGlyph>
    <TTGlyph name="divide.tosf" xMin="100" yMin="66" xMax="455" yMax="597">
      <component glyphName="divide.lf" x="31" y="0" flags="0x4"/>
    </TTGlyph>
    <TTGlyph name="divisionslash" xMin="-167" yMin="-71" xMax="281" yMax="747">
      <component glyphName="fraction" x="0" y="0" flags="0x204"/>
    </TTGlyph>
    <TTGlyph name="dollar" xMin="47" yMin="-150" xMax="486" yMax="843">
      <contour>
        <pt x="300" y="-150" on="1"/>
        <pt x="249" y="-150" on="1"/>
        <pt x="249" y="-7" on="1"/>
        <pt x="185" y="-5" on="0"/>
        <pt x="85" y="40" on="0"/>
        <pt x="47" y="76" on="1"/>
        <pt x="81" y="114" on="1"/>
        <pt x="116" y="82" on="0"/>
        <pt x="202" y="43" on="0"/>
        <pt x="261" y="43" on="1"/>
        <pt x="332" y="43" on="0"/>
        <pt x="426" y="118" on="0"/>
        <pt x="426" y="186" on="1"/>
        <pt x="426" y="247" on="0"/>
        <pt x="356" y="311" on="0"/>
        <pt x="266" y="339" on="1"/>
        <pt x="165" y="370" on="0"/>
        <pt x="74" y="452" on="0"/>
        <pt x="74" y="524" on="1"/>
        <pt x="74" y="590" on="0"/>
        <pt x="171" y="682" on="0"/>
        <pt x="249" y="688" on="1"/>
        <pt x="249" y="843" on="1"/>
        <pt x="300" y="843" on="1"/>
        <pt x="300" y="688" on="1"/>
        <pt x="353" y="684" on="0"/>
        <pt x="430" y="646" on="0"/>
        <pt x="465" y="615" on="1"/>
        <pt x="430" y="577" on="1"/>
        <pt x="394" y="611" on="0"/>
        <pt x="319" y="640" on="0"/>
        <pt x="272" y="640" on="1"/>
        <pt x="211" y="640" on="0"/>
        <pt x="132" y="578" on="0"/>
        <pt x="132" y="525" on="1"/>
        <pt x="132" y="473" on="0"/>
        <pt x="200" y="415" on="0"/>
        <pt x="290" y="387" on="1"/>
        <pt x="382" y="359" on="0"/>
        <pt x="486" y="277" on="0"/>
        <pt x="486" y="188" on="1"/>
        <pt x="486" y="110" on="0"/>
        <pt x="385" y="5" on="0"/>
        <pt x="300" y="-5" on="1"/>
      </contour>
    </TTGlyph>
    <TTGlyph name="dollar.lf" xMin="39" yMin="-150" xMax="471" yMax="818">
      <contour>
        <pt x="289" y="-150" on="1"/>
        <pt x="238" y="-150" on="1"/>
        <pt x="238" y="-11" on="1"/>
        <pt x="175" y="-9" on="0"/>
        <pt x="77" y="35" on="0"/>
        <pt x="39" y="72" on="1"/>
        <pt x="73" y="109" on="1"/>
        <pt x="107" y="77" on="0"/>
        <pt x="193" y="38" on="0"/>
        <pt x="250" y="38" on="1"/>
        <pt x="320" y="38" on="0"/>
        <pt x="413" y="113" on="0"/>
        <pt x="413" y="180" on="1"/>
        <pt x="413" y="240" on="0"/>
        <pt x="343" y="302" on="0"/>
        <pt x="255" y="330" on="1"/>
        <pt x="156" y="361" on="0"/>
        <pt x="66" y="441" on="0"/>
        <pt x="66" y="511" on="1"/>
        <pt x="66" y="577" on="0"/>
        <pt x="161" y="668" on="0"/>
        <pt x="238" y="674" on="1"/>
        <pt x="238" y="818" on="1"/>
        <pt x="289" y="818" on="1"/>
        <pt x="289" y="674" on="1"/>
        <pt x="341" y="670" on="0"/>
        <pt x="417" y="632" on="0"/>
        <pt x="451" y="601" on="1"/>
        <pt x="416" y="564" on="1"/>
        <pt x="381" y="597" on="0"/>
        <pt x="307" y="626" on="0"/>
        <pt x="261" y="626" on="1"/>
        <pt x="201" y="626" on="0"/>
        <pt x="124" y="565" on="0"/>
        <pt x="124" y="513" on="1"/>
        <pt x="124" y="462" on="0"/>
        <pt x="190" y="406" on="0"/>
        <pt x="279" y="378" on="1"/>
        <pt x="369" y="350" on="0"/>
        <pt x="471" y="268" on="0"/>
        <pt x="471" y="181" on="1"/>
        <pt x="471" y="105" on="0"/>
        <pt x="373" y="1" on="0"/>
        <pt x="289" y="-9" on="1"/>
      </contour>
    </TTGlyph>
    <TTGlyph name="dollar.osf" xMin="39" yMin="-150" xMax="471" yMax="818">
      <component glyphName="dollar.lf" x="0" y="0" flags="0x204"/>
    </TTGlyph>
    <TTGlyph name="dollar.tosf" xMin="50" yMin="-150" xMax="479" yMax="823">
      <contour>
        <pt x="297" y="-150" on="1"/>
        <pt x="247" y="-150" on="1"/>
        <pt x="247" y="-10" on="1"/>
        <pt x="187" y="-7" on="0"/>
        <pt x="88" y="38" on="0"/>
        <pt x="50" y="74" on="1"/>
        <pt x="84" y="112" on="1"/>
        <pt x="120" y="79" on="0"/>
        <pt x="205" y="39" on="0"/>
        <pt x="260" y="39" on="1"/>
        <pt x="329" y="39" on="0"/>
        <pt x="420" y="113" on="0"/>
        <pt x="420" y="182" on="1"/>
        <pt x="420" y="243" on="0"/>
        <pt x="348" y="305" on="0"/>
        <pt x="261" y="333" on="1"/>
        <pt x="166" y="364" on="0"/>
        <pt x="78" y="443" on="0"/>
        <pt x="78" y="512" on="1"/>
        <pt x="78" y="578" on="0"/>
        <pt x="173" y="669" on="0"/>
        <pt x="248" y="675" on="1"/>
        <pt x="248" y="823" on="1"/>
        <pt x="298" y="823" on="1"/>
        <pt x="298" y="675" on="1"/>
        <pt x="350" y="671" on="0"/>
        <pt x="427" y="633" on="0"/>
        <pt x="460" y="602" on="1"/>
        <pt x="427" y="565" on="1"/>
        <pt x="392" y="599" on="0"/>
        <pt x="317" y="627" on="0"/>
        <pt x="272" y="627" on="1"/>
        <pt x="212" y="627" on="0"/>
        <pt x="136" y="566" on="0"/>
        <pt x="136" y="514" on="1"/>
        <pt x="136" y="463" on="0"/>
        <pt x="201" y="408" on="0"/>
        <pt x="285" y="381" on="1"/>
        <pt x="370" y="353" on="0"/>
        <pt x="479" y="273" on="0"/>
        <pt x="479" y="184" on="1"/>
        <pt x="479" y="106" on="0"/>
        <pt x="380" y="2" on="0"/>
        <pt x="297" y="-8" on="1"/>
      </contour>
    </TTGlyph>
    <TTGlyph name="dotaccent" xMin="30" yMin="670" xMax="116" yMax="752">
      <contour>
        <pt x="30" y="711" on="1"/>
        <pt x="30" y="728" on="0"/>
        <pt x="54" y="752" on="0"/>
        <pt x="73" y="752" on="1"/>
        <pt x="92" y="752" on="0"/>
        <pt x="116" y="728" on="0"/>
        <pt x="116" y="711" on="1"/>
        <pt x="116" y="694" on="0"/>
        <pt x="92" y="670" on="0"/>
        <pt x="73" y="670" on="1"/>
        <pt x="54" y="670" on="0"/>
        <pt x="30" y="694" on="0"/>
      </contour>
    </TTGlyph>
    <TTGlyph name="dotaccent.case" xMin="30" yMin="796" xMax="116" yMax="878">
      <component glyphName="dotaccent" x="0" y="126" flags="0x4"/>
    </TTGlyph>
    <TTGlyph name="dotaccent.sc" xMin="30" yMin="700" xMax="116" yMax="782">
      <component glyphName="dotaccent" x="0" y="30" flags="0x4"/>
    </TTGlyph>
    <TTGlyph name="dotaccentcombcomb" xMin="39" yMin="670" xMax="125" yMax="752">
      <component glyphName="uni0307" x="0" y="0" flags="0x204"/>
    </TTGlyph>
    <TTGlyph name="dotlessi" xMin="106" yMin="0" xMax="163" yMax="523">
      <contour>
        <pt x="106" y="523" on="1"/>
        <pt x="163" y="523" on="1"/>
        <pt x="163" y="0" on="1"/>
        <pt x="106" y="0" on="1"/>
      </contour>
    </TTGlyph>
    <TTGlyph name="dotlessi.sc" xMin="111" yMin="0" xMax="169" yMax="562">
      <component glyphName="i.sc" x="0" y="0" flags="0x204"/>
    </TTGlyph>
    <TTGlyph name="dotlessj.sc" xMin="13" yMin="-101" xMax="167" yMax="562">
      <component glyphName="j.sc" x="0" y="0" flags="0x204"/>
    </TTGlyph>
    <TTGlyph name="dotmath" xMin="56" yMin="272" xMax="150" yMax="366">
      <component glyphName="periodcentered" x="0" y="0" flags="0x204"/>
    </TTGlyph>
    <TTGlyph name="e" xMin="64" yMin="-11" xMax="477" yMax="534">
      <contour>
        <pt x="275" y="486" on="1"/>
        <pt x="214" y="486" on="0"/>
        <pt x="129" y="390" on="0"/>
        <pt x="124" y="283" on="1"/>
        <pt x="420" y="283" on="1"/>
        <pt x="420" y="299" on="1"/>
        <pt x="420" y="384" on="0"/>
        <pt x="349" y="486" on="0"/>
      </contour>
      <contour>
        <pt x="457" y="53" on="1"/>
        <pt x="420" y="23" on="0"/>
        <pt x="337" y="-11" on="0"/>
        <pt x="285" y="-11" on="1"/>
        <pt x="184" y="-11" on="0"/>
        <pt x="64" y="132" on="0"/>
        <pt x="64" y="257" on="1"/>
        <pt x="64" y="382" on="0"/>
        <pt x="178" y="534" on="0"/>
        <pt x="273" y="534" on="1"/>
        <pt x="374" y="534" on="0"/>
        <pt x="477" y="396" on="0"/>
        <pt x="477" y="281" on="1"/>
        <pt x="477" y="269" on="0"/>
        <pt x="476" y="246" on="0"/>
        <pt x="475" y="239" on="1"/>
        <pt x="125" y="239" on="1"/>
        <pt x="130" y="133" on="0"/>
        <pt x="221" y="38" on="0"/>
        <pt x="289" y="38" on="1"/>
        <pt x="332" y="38" on="0"/>
        <pt x="395" y="64" on="0"/>
        <pt x="429" y="89" on="1"/>
      </contour>
    </TTGlyph>
    <TTGlyph name="e.sc" xMin="111" yMin="0" xMax="421" yMax="562">
      <contour>
        <pt x="111" y="562" on="1"/>
        <pt x="416" y="562" on="1"/>
        <pt x="410" y="515" on="1"/>
        <pt x="168" y="515" on="1"/>
        <pt x="168" y="315" on="1"/>
        <pt x="377" y="315" on="1"/>
        <pt x="377" y="268" on="1"/>
        <pt x="168" y="268" on="1"/>
        <pt x="168" y="47" on="1"/>
        <pt x="421" y="47" on="1"/>
        <pt x="421" y="0" on="1"/>
        <pt x="111" y="0" on="1"/>
      </contour>
    </TTGlyph>
    <TTGlyph name="eacute" xMin="64" yMin="-11" xMax="477" yMax="782">
      <component glyphName="acute" x="129" y="0" flags="0x4"/>
      <component glyphName="e" x="0" y="0" flags="0x204"/>
    </TTGlyph>
    <TTGlyph name="eacute.sc" xMin="111" yMin="0" xMax="421" yMax="812">
      <component glyphName="acute.sc" x="123" y="0" flags="0x4"/>
      <component glyphName="e.sc" x="0" y="0" flags="0x204"/>
    </TTGlyph>
    <TTGlyph name="ebreve" xMin="64" yMin="-11" xMax="477" yMax="772">
      <component glyphName="e" x="0" y="0" flags="0x204"/>
      <component glyphName="breve" x="116" y="0" flags="0x4"/>
    </TTGlyph>
    <TTGlyph name="ebreve.sc" xMin="111" yMin="0" xMax="421" yMax="802">
      <component glyphName="breve.sc" x="105" y="0" flags="0x4"/>
      <component glyphName="e.sc" x="0" y="0" flags="0x204"/>
    </TTGlyph>
    <TTGlyph name="ecaron" xMin="64" yMin="-11" xMax="477" yMax="771">
      <component glyphName="caron" x="102" y="2" flags="0x4"/>
      <component glyphName="e" x="0" y="0" flags="0x204"/>
    </TTGlyph>
    <TTGlyph name="ecaron.sc" xMin="111" yMin="0" xMax="421" yMax="799">
      <component glyphName="caron.sc" x="88" y="0" flags="0x4"/>
      <component glyphName="e.sc" x="0" y="0" flags="0x204"/>
    </TTGlyph>
    <TTGlyph name="ecircumflex" xMin="64" yMin="-11" xMax="477" yMax="779">
      <component glyphName="circumflex" x="101" y="0" flags="0x4"/>
      <component glyphName="e" x="0" y="0" flags="0x204"/>
    </TTGlyph>
    <TTGlyph name="ecircumflex.sc" xMin="111" yMin="0" xMax="421" yMax="809">
      <component glyphName="e.sc" x="0" y="0" flags="0x204"/>
      <component glyphName="circumflex.sc" x="88" y="0" flags="0x4"/>
    </TTGlyph>
    <TTGlyph name="edieresis" xMin="64" yMin="-11" xMax="477" yMax="741">
      <component glyphName="dieresis" x="112" y="0" flags="0x4"/>
      <component glyphName="e" x="0" y="0" flags="0x204"/>
    </TTGlyph>
    <TTGlyph name="edieresis.sc" xMin="111" yMin="0" xMax="421" yMax="771">
      <component glyphName="dieresis.sc" x="101" y="0" flags="0x4"/>
      <component glyphName="e.sc" x="0" y="0" flags="0x204"/>
    </TTGlyph>
    <TTGlyph name="edotaccent" xMin="64" yMin="-11" xMax="477" yMax="752">
      <component glyphName="e" x="0" y="0" flags="0x204"/>
      <component glyphName="dotaccent" x="203" y="0" flags="0x4"/>
    </TTGlyph>
    <TTGlyph name="edotaccent.sc" xMin="111" yMin="0" xMax="421" yMax="782">
      <component glyphName="dotaccent.sc" x="192" y="0" flags="0x4"/>
      <component glyphName="e.sc" x="0" y="0" flags="0x204"/>
    </TTGlyph>
    <TTGlyph name="egrave" xMin="64" yMin="-11" xMax="477" yMax="782">
      <component glyphName="e" x="0" y="0" flags="0x204"/>
      <component glyphName="grave" x="146" y="0" flags="0x4"/>
    </TTGlyph>
    <TTGlyph name="egrave.sc" xMin="111" yMin="0" xMax="421" yMax="812">
      <component glyphName="grave.sc" x="131" y="0" flags="0x4"/>
      <component glyphName="e.sc" x="0" y="0" flags="0x204"/>
    </TTGlyph>
    <TTGlyph name="eight" xMin="59" yMin="-11" xMax="496" yMax="696">
      <contour>
        <pt x="276" y="-11" on="1"/>
        <pt x="178" y="-11" on="0"/>
        <pt x="59" y="92" on="0"/>
        <pt x="59" y="176" on="1"/>
        <pt x="59" y="245" on="0"/>
        <pt x="135" y="339" on="0"/>
        <pt x="204" y="366" on="1"/>
        <pt x="144" y="393" on="0"/>
        <pt x="88" y="467" on="0"/>
        <pt x="88" y="524" on="1"/>
        <pt x="88" y="608" on="0"/>
        <pt x="205" y="696" on="0"/>
        <pt x="278" y="696" on="1"/>
        <pt x="350" y="696" on="0"/>
        <pt x="468" y="612" on="0"/>
        <pt x="468" y="526" on="1"/>
        <pt x="468" y="471" on="0"/>
        <pt x="408" y="393" on="0"/>
        <pt x="347" y="362" on="1"/>
        <pt x="422" y="333" on="0"/>
        <pt x="496" y="248" on="0"/>
        <pt x="496" y="178" on="1"/>
        <pt x="496" y="91" on="0"/>
        <pt x="372" y="-11" on="0"/>
      </contour>
      <contour>
        <pt x="274" y="388" on="1"/>
        <pt x="305" y="378" on="1"/>
        <pt x="361" y="406" on="0"/>
        <pt x="411" y="474" on="0"/>
        <pt x="411" y="523" on="1"/>
        <pt x="411" y="585" on="0"/>
        <pt x="336" y="650" on="0"/>
        <pt x="278" y="650" on="1"/>
        <pt x="221" y="650" on="0"/>
        <pt x="145" y="586" on="0"/>
        <pt x="145" y="523" on="1"/>
        <pt x="145" y="472" on="0"/>
        <pt x="203" y="414" on="0"/>
      </contour>
      <contour>
        <pt x="277" y="37" on="1"/>
        <pt x="347" y="37" on="0"/>
        <pt x="437" y="110" on="0"/>
        <pt x="437" y="176" on="1"/>
        <pt x="437" y="242" on="0"/>
        <pt x="365" y="308" on="0"/>
        <pt x="286" y="336" on="1"/>
        <pt x="251" y="349" on="1"/>
        <pt x="182" y="323" on="0"/>
        <pt x="118" y="240" on="0"/>
        <pt x="118" y="176" on="1"/>
        <pt x="118" y="108" on="0"/>
        <pt x="207" y="37" on="0"/>
      </contour>
    </TTGlyph>
    <TTGlyph name="eight.dnom" xMin="54" yMin="-8" xMax="346" yMax="421">
      <contour>
        <pt x="198" y="-8" on="1"/>
        <pt x="132" y="-8" on="0"/>
        <pt x="54" y="57" on="0"/>
        <pt x="54" y="106" on="1"/>
        <pt x="54" y="146" on="0"/>
        <pt x="102" y="205" on="0"/>
        <pt x="146" y="220" on="1"/>
        <pt x="110" y="236" on="0"/>
        <pt x="73" y="281" on="0"/>
        <pt x="73" y="316" on="1"/>
        <pt x="73" y="366" on="0"/>
        <pt x="149" y="421" on="0"/>
        <pt x="200" y="421" on="1"/>
        <pt x="249" y="421" on="0"/>
        <pt x="327" y="368" on="0"/>
        <pt x="327" y="317" on="1"/>
        <pt x="327" y="286" on="0"/>
        <pt x="289" y="240" on="0"/>
        <pt x="250" y="221" on="1"/>
        <pt x="299" y="202" on="0"/>
        <pt x="346" y="151" on="0"/>
        <pt x="346" y="109" on="1"/>
        <pt x="346" y="56" on="0"/>
        <pt x="263" y="-8" on="0"/>
      </contour>
      <contour>
        <pt x="195" y="242" on="1"/>
        <pt x="214" y="235" on="1"/>
        <pt x="248" y="252" on="0"/>
        <pt x="277" y="291" on="0"/>
        <pt x="277" y="316" on="1"/>
        <pt x="277" y="348" on="0"/>
        <pt x="234" y="383" on="0"/>
        <pt x="200" y="383" on="1"/>
        <pt x="166" y="383" on="0"/>
        <pt x="122" y="349" on="0"/>
        <pt x="122" y="317" on="1"/>
        <pt x="122" y="289" on="0"/>
        <pt x="154" y="255" on="0"/>
      </contour>
      <contour>
        <pt x="199" y="32" on="1"/>
        <pt x="240" y="32" on="0"/>
        <pt x="294" y="70" on="0"/>
        <pt x="294" y="109" on="1"/>
        <pt x="294" y="143" on="0"/>
        <pt x="254" y="179" on="0"/>
        <pt x="209" y="195" on="1"/>
        <pt x="185" y="204" on="1"/>
        <pt x="142" y="189" on="0"/>
        <pt x="106" y="142" on="0"/>
        <pt x="106" y="107" on="1"/>
        <pt x="106" y="70" on="0"/>
        <pt x="159" y="32" on="0"/>
      </contour>
    </TTGlyph>
    <TTGlyph name="eight.lf" xMin="53" yMin="-11" xMax="484" yMax="676">
      <contour>
        <pt x="267" y="-11" on="1"/>
        <pt x="170" y="-11" on="0"/>
        <pt x="53" y="91" on="0"/>
        <pt x="53" y="171" on="1"/>
        <pt x="53" y="237" on="0"/>
        <pt x="128" y="329" on="0"/>
        <pt x="197" y="356" on="1"/>
        <pt x="138" y="382" on="0"/>
        <pt x="83" y="455" on="0"/>
        <pt x="83" y="510" on="1"/>
        <pt x="83" y="590" on="0"/>
        <pt x="197" y="676" on="0"/>
        <pt x="269" y="676" on="1"/>
        <pt x="340" y="676" on="0"/>
        <pt x="456" y="593" on="0"/>
        <pt x="456" y="511" on="1"/>
        <pt x="456" y="458" on="0"/>
        <pt x="397" y="383" on="0"/>
        <pt x="336" y="352" on="1"/>
        <pt x="411" y="322" on="0"/>
        <pt x="484" y="239" on="0"/>
        <pt x="484" y="173" on="1"/>
        <pt x="484" y="90" on="0"/>
        <pt x="363" y="-11" on="0"/>
      </contour>
      <contour>
        <pt x="262" y="380" on="1"/>
        <pt x="295" y="368" on="1"/>
        <pt x="349" y="397" on="0"/>
        <pt x="399" y="463" on="0"/>
        <pt x="399" y="509" on="1"/>
        <pt x="399" y="567" on="0"/>
        <pt x="326" y="630" on="0"/>
        <pt x="269" y="630" on="1"/>
        <pt x="214" y="630" on="0"/>
        <pt x="139" y="567" on="0"/>
        <pt x="139" y="509" on="1"/>
        <pt x="139" y="460" on="0"/>
        <pt x="196" y="405" on="0"/>
      </contour>
      <contour>
        <pt x="268" y="37" on="1"/>
        <pt x="337" y="37" on="0"/>
        <pt x="425" y="108" on="0"/>
        <pt x="425" y="172" on="1"/>
        <pt x="425" y="233" on="0"/>
        <pt x="355" y="297" on="0"/>
        <pt x="276" y="326" on="1"/>
        <pt x="242" y="339" on="1"/>
        <pt x="175" y="313" on="0"/>
        <pt x="113" y="231" on="0"/>
        <pt x="113" y="171" on="1"/>
        <pt x="113" y="107" on="0"/>
        <pt x="199" y="37" on="0"/>
      </contour>
    </TTGlyph>
    <TTGlyph name="eight.numr" xMin="54" yMin="263" xMax="346" yMax="692">
      <component glyphName="eight.dnom" x="0" y="271" flags="0x4"/>
    </TTGlyph>
    <TTGlyph name="eight.osf" xMin="53" yMin="-11" xMax="484" yMax="676">
      <contour>
        <pt x="267" y="-11" on="1"/>
        <pt x="170" y="-11" on="0"/>
        <pt x="53" y="91" on="0"/>
        <pt x="53" y="171" on="1"/>
        <pt x="53" y="237" on="0"/>
        <pt x="128" y="329" on="0"/>
        <pt x="197" y="356" on="1"/>
        <pt x="138" y="382" on="0"/>
        <pt x="83" y="455" on="0"/>
        <pt x="83" y="510" on="1"/>
        <pt x="83" y="590" on="0"/>
        <pt x="197" y="676" on="0"/>
        <pt x="269" y="676" on="1"/>
        <pt x="340" y="676" on="0"/>
        <pt x="456" y="593" on="0"/>
        <pt x="456" y="511" on="1"/>
        <pt x="456" y="458" on="0"/>
        <pt x="397" y="383" on="0"/>
        <pt x="336" y="352" on="1"/>
        <pt x="411" y="322" on="0"/>
        <pt x="484" y="239" on="0"/>
        <pt x="484" y="173" on="1"/>
        <pt x="484" y="90" on="0"/>
        <pt x="363" y="-11" on="0"/>
      </contour>
      <contour>
        <pt x="262" y="380" on="1"/>
        <pt x="295" y="368" on="1"/>
        <pt x="349" y="397" on="0"/>
        <pt x="399" y="463" on="0"/>
        <pt x="399" y="509" on="1"/>
        <pt x="399" y="567" on="0"/>
        <pt x="326" y="630" on="0"/>
        <pt x="269" y="630" on="1"/>
        <pt x="214" y="630" on="0"/>
        <pt x="139" y="567" on="0"/>
        <pt x="139" y="509" on="1"/>
        <pt x="139" y="460" on="0"/>
        <pt x="196" y="405" on="0"/>
      </contour>
      <contour>
        <pt x="268" y="37" on="1"/>
        <pt x="337" y="37" on="0"/>
        <pt x="425" y="108" on="0"/>
        <pt x="425" y="172" on="1"/>
        <pt x="425" y="233" on="0"/>
        <pt x="355" y="297" on="0"/>
        <pt x="276" y="326" on="1"/>
        <pt x="242" y="339" on="1"/>
        <pt x="175" y="313" on="0"/>
        <pt x="113" y="231" on="0"/>
        <pt x="113" y="171" on="1"/>
        <pt x="113" y="107" on="0"/>
        <pt x="199" y="37" on="0"/>
      </contour>
    </TTGlyph>
    <TTGlyph name="eight.tosf" xMin="61" yMin="-11" xMax="498" yMax="676">
      <contour>
        <pt x="278" y="-11" on="1"/>
        <pt x="179" y="-11" on="0"/>
        <pt x="61" y="92" on="0"/>
        <pt x="61" y="171" on="1"/>
        <pt x="61" y="237" on="0"/>
        <pt x="136" y="331" on="0"/>
        <pt x="206" y="358" on="1"/>
        <pt x="146" y="384" on="0"/>
        <pt x="90" y="456" on="0"/>
        <pt x="90" y="510" on="1"/>
        <pt x="90" y="588" on="0"/>
        <pt x="206" y="676" on="0"/>
        <pt x="280" y="676" on="1"/>
        <pt x="352" y="676" on="0"/>
        <pt x="470" y="592" on="0"/>
        <pt x="470" y="511" on="1"/>
        <pt x="470" y="459" on="0"/>
        <pt x="410" y="384" on="0"/>
        <pt x="350" y="353" on="1"/>
        <pt x="425" y="323" on="0"/>
        <pt x="498" y="239" on="0"/>
        <pt x="498" y="173" on="1"/>
        <pt x="498" y="90" on="0"/>
        <pt x="374" y="-11" on="0"/>
      </contour>
      <contour>
        <pt x="273" y="381" on="1"/>
        <pt x="307" y="369" on="1"/>
        <pt x="362" y="398" on="0"/>
        <pt x="413" y="463" on="0"/>
        <pt x="413" y="509" on="1"/>
        <pt x="413" y="566" on="0"/>
        <pt x="339" y="630" on="0"/>
        <pt x="280" y="630" on="1"/>
        <pt x="223" y="630" on="0"/>
        <pt x="147" y="566" on="0"/>
        <pt x="147" y="509" on="1"/>
        <pt x="147" y="460" on="0"/>
        <pt x="204" y="405" on="0"/>
      </contour>
      <contour>
        <pt x="279" y="37" on="1"/>
        <pt x="349" y="37" on="0"/>
        <pt x="438" y="109" on="0"/>
        <pt x="438" y="172" on="1"/>
        <pt x="438" y="233" on="0"/>
        <pt x="366" y="298" on="0"/>
        <pt x="289" y="326" on="1"/>
        <pt x="252" y="340" on="1"/>
        <pt x="183" y="314" on="0"/>
        <pt x="120" y="232" on="0"/>
        <pt x="120" y="171" on="1"/>
        <pt x="120" y="107" on="0"/>
        <pt x="208" y="37" on="0"/>
      </contour>
    </TTGlyph>
    <TTGlyph name="eightinferior" xMin="54" yMin="-205" xMax="346" yMax="224">
      <component glyphName="eight.dnom" x="0" y="-197" flags="0x4"/>
    </TTGlyph>
    <TTGlyph name="eightsuperior" xMin="54" yMin="315" xMax="346" yMax="744">
      <component glyphName="eight.dnom" x="0" y="323" flags="0x4"/>
    </TTGlyph>
    <TTGlyph name="ellipsis" xMin="56" yMin="-11" xMax="570" yMax="83">
      <component glyphName="period" x="210" y="0" flags="0x4"/>
      <component glyphName="period" x="420" y="0" flags="0x4"/>
      <component glyphName="period" x="0" y="0" flags="0x204"/>
    </TTGlyph>
    <TTGlyph name="emacron" xMin="64" yMin="-11" xMax="477" yMax="722">
      <component glyphName="e" x="0" y="0" flags="0x204"/>
      <component glyphName="macron" x="126" y="0" flags="0x4"/>
    </TTGlyph>
    <TTGlyph name="emacron.sc" xMin="111" yMin="0" xMax="421" yMax="752">
      <component glyphName="macron.sc" x="115" y="0" flags="0x4"/>
      <component glyphName="e.sc" x="0" y="0" flags="0x204"/>
    </TTGlyph>
    <TTGlyph name="emdash" xMin="40" yMin="289" xMax="743" yMax="338">
      <contour>
        <pt x="743" y="289" on="1"/>
        <pt x="40" y="289" on="1"/>
        <pt x="40" y="338" on="1"/>
        <pt x="743" y="338" on="1"/>
      </contour>
    </TTGlyph>
    <TTGlyph name="emdash.case" xMin="40" yMin="334" xMax="743" yMax="383">
      <component glyphName="emdash" x="0" y="45" flags="0x4"/>
    </TTGlyph>
    <TTGlyph name="emptyset" xMin="84" yMin="-16" xMax="816" yMax="716">
      <contour>
        <pt x="451" y="-16" on="1"/>
        <pt x="394" y="-16" on="0"/>
        <pt x="287" y="17" on="0"/>
        <pt x="243" y="47" on="1"/>
        <pt x="199" y="-12" on="1"/>
        <pt x="148" y="-12" on="1"/>
        <pt x="210" y="72" on="1"/>
        <pt x="153" y="122" on="0"/>
        <pt x="84" y="265" on="0"/>
        <pt x="84" y="349" on="1"/>
        <pt x="84" y="425" on="0"/>
        <pt x="142" y="560" on="0"/>
        <pt x="241" y="659" on="0"/>
        <pt x="375" y="716" on="0"/>
        <pt x="451" y="716" on="1"/>
        <pt x="504" y="716" on="0"/>
        <pt x="602" y="687" on="0"/>
        <pt x="644" y="662" on="1"/>
        <pt x="681" y="712" on="1"/>
        <pt x="732" y="712" on="1"/>
        <pt x="678" y="638" on="1"/>
        <pt x="741" y="588" on="0"/>
        <pt x="816" y="437" on="0"/>
        <pt x="816" y="349" on="1"/>
        <pt x="816" y="273" on="0"/>
        <pt x="759" y="139" on="0"/>
        <pt x="660" y="41" on="0"/>
        <pt x="527" y="-16" on="0"/>
      </contour>
      <contour>
        <pt x="130" y="349" on="1"/>
        <pt x="130" y="277" on="0"/>
        <pt x="187" y="151" on="0"/>
        <pt x="236" y="108" on="1"/>
        <pt x="619" y="628" on="1"/>
        <pt x="582" y="650" on="0"/>
        <pt x="497" y="675" on="0"/>
        <pt x="451" y="675" on="1"/>
        <pt x="384" y="675" on="0"/>
        <pt x="266" y="624" on="0"/>
        <pt x="180" y="535" on="0"/>
        <pt x="130" y="416" on="0"/>
      </contour>
      <contour>
        <pt x="451" y="26" on="1"/>
        <pt x="518" y="26" on="0"/>
        <pt x="636" y="77" on="0"/>
        <pt x="721" y="163" on="0"/>
        <pt x="771" y="282" on="0"/>
        <pt x="771" y="349" on="1"/>
        <pt x="771" y="426" on="0"/>
        <pt x="706" y="559" on="0"/>
        <pt x="652" y="604" on="1"/>
        <pt x="268" y="82" on="1"/>
        <pt x="307" y="56" on="0"/>
        <pt x="400" y="26" on="0"/>
      </contour>
    </TTGlyph>
    <TTGlyph name="endash" xMin="40" yMin="288" xMax="480" yMax="338">
      <contour>
        <pt x="480" y="288" on="1"/>
        <pt x="40" y="288" on="1"/>
        <pt x="40" y="338" on="1"/>
        <pt x="480" y="338" on="1"/>
      </contour>
    </TTGlyph>
    <TTGlyph name="endash.case" xMin="40" yMin="333" xMax="480" yMax="383">
      <component glyphName="endash" x="0" y="45" flags="0x4"/>
    </TTGlyph>
    <TTGlyph name="eng" xMin="106" yMin="-203" xMax="482" yMax="534">
      <contour>
        <pt x="482" y="18" on="1"/>
        <pt x="482" y="-86" on="0"/>
        <pt x="413" y="-170" on="0"/>
        <pt x="343" y="-203" on="1"/>
        <pt x="326" y="-161" on="1"/>
        <pt x="377" y="-136" on="0"/>
        <pt x="425" y="-70" on="0"/>
        <pt x="425" y="16" on="1"/>
        <pt x="425" y="366" on="1"/>
        <pt x="425" y="429" on="0"/>
        <pt x="374" y="487" on="0"/>
        <pt x="326" y="487" on="1"/>
        <pt x="273" y="487" on="0"/>
        <pt x="195" y="427" on="0"/>
        <pt x="163" y="379" on="1"/>
        <pt x="163" y="0" on="1"/>
        <pt x="106" y="0" on="1"/>
        <pt x="106" y="523" on="1"/>
        <pt x="155" y="523" on="1"/>
        <pt x="161" y="434" on="1"/>
        <pt x="192" y="479" on="0"/>
        <pt x="280" y="534" on="0"/>
        <pt x="337" y="534" on="1"/>
        <pt x="407" y="534" on="0"/>
        <pt x="482" y="448" on="0"/>
        <pt x="482" y="373" on="1"/>
      </contour>
    </TTGlyph>
    <TTGlyph name="eng.sc" xMin="111" yMin="-203" xMax="505" yMax="562">
      <contour>
        <pt x="505" y="0" on="1"/>
        <pt x="505" y="-90" on="0"/>
        <pt x="436" y="-170" on="0"/>
        <pt x="366" y="-203" on="1"/>
        <pt x="350" y="-166" on="1"/>
        <pt x="404" y="-139" on="0"/>
        <pt x="455" y="-75" on="0"/>
        <pt x="455" y="0" on="1"/>
        <pt x="430" y="0" on="1"/>
        <pt x="157" y="506" on="1"/>
        <pt x="160" y="470" on="0"/>
        <pt x="165" y="378" on="0"/>
        <pt x="165" y="298" on="1"/>
        <pt x="165" y="0" on="1"/>
        <pt x="111" y="0" on="1"/>
        <pt x="111" y="562" on="1"/>
        <pt x="186" y="562" on="1"/>
        <pt x="460" y="55" on="1"/>
        <pt x="458" y="77" on="0"/>
        <pt x="452" y="177" on="0"/>
        <pt x="452" y="236" on="1"/>
        <pt x="452" y="562" on="1"/>
        <pt x="505" y="562" on="1"/>
      </contour>
    </TTGlyph>
    <TTGlyph name="eogonek" xMin="64" yMin="-212" xMax="477" yMax="534">
      <component glyphName="e" x="0" y="0" flags="0x204"/>
      <component glyphName="ogonek.thin" x="203" y="5" flags="0x4"/>
    </TTGlyph>
    <TTGlyph name="eogonek.sc" xMin="111" yMin="-217" xMax="421" yMax="562">
      <component glyphName="ogonek.thin.sc" x="219" y="0" flags="0x4"/>
      <component glyphName="e.sc" x="0" y="0" flags="0x204"/>
    </TTGlyph>
    <TTGlyph name="epsilon" xMin="64" yMin="-11" xMax="436" yMax="534">
      <contour>
        <pt x="85" y="397" on="1"/>
        <pt x="85" y="462" on="0"/>
        <pt x="183" y="534" on="0"/>
        <pt x="260" y="534" on="1"/>
        <pt x="314" y="534" on="0"/>
        <pt x="391" y="507" on="0"/>
        <pt x="420" y="487" on="1"/>
        <pt x="390" y="450" on="1"/>
        <pt x="365" y="468" on="0"/>
        <pt x="305" y="487" on="0"/>
        <pt x="265" y="487" on="1"/>
        <pt x="207" y="487" on="0"/>
        <pt x="144" y="436" on="0"/>
        <pt x="144" y="392" on="1"/>
        <pt x="144" y="350" on="0"/>
        <pt x="211" y="297" on="0"/>
        <pt x="268" y="297" on="1"/>
        <pt x="327" y="297" on="1"/>
        <pt x="320" y="250" on="1"/>
        <pt x="264" y="250" on="1"/>
        <pt x="194" y="250" on="0"/>
        <pt x="126" y="203" on="0"/>
        <pt x="126" y="143" on="1"/>
        <pt x="126" y="94" on="0"/>
        <pt x="199" y="37" on="0"/>
        <pt x="260" y="37" on="1"/>
        <pt x="309" y="37" on="0"/>
        <pt x="374" y="65" on="0"/>
        <pt x="407" y="89" on="1"/>
        <pt x="436" y="52" on="1"/>
        <pt x="402" y="24" on="0"/>
        <pt x="314" y="-11" on="0"/>
        <pt x="257" y="-11" on="1"/>
        <pt x="173" y="-11" on="0"/>
        <pt x="64" y="69" on="0"/>
        <pt x="64" y="141" on="1"/>
        <pt x="64" y="209" on="0"/>
        <pt x="136" y="272" on="0"/>
        <pt x="196" y="277" on="1"/>
        <pt x="142" y="287" on="0"/>
        <pt x="85" y="351" on="0"/>
      </contour>
    </TTGlyph>
    <TTGlyph name="epsilon.sc" xMin="111" yMin="0" xMax="421" yMax="562">
      <component glyphName="e.sc" x="0" y="0" flags="0x204"/>
    </TTGlyph>
    <TTGlyph name="epsilontonos" xMin="64" yMin="-11" xMax="436" yMax="773">
      <component glyphName="tonos" x="207" y="0" flags="0x4"/>
      <component glyphName="epsilon" x="0" y="0" flags="0x204"/>
    </TTGlyph>
    <TTGlyph name="epsilontonos.sc" xMin="111" yMin="0" xMax="421" yMax="562">
      <component glyphName="e.sc" x="0" y="0" flags="0x204"/>
    </TTGlyph>
    <TTGlyph name="equal" xMin="100" yMin="218" xMax="455" yMax="443">
      <component glyphName="equal.lf" x="31" y="0" flags="0x4"/>
    </TTGlyph>
    <TTGlyph name="equal.dnom" xMin="81" yMin="131" xMax="319" yMax="278">
      <contour>
        <pt x="319" y="236" on="1"/>
        <pt x="81" y="236" on="1"/>
        <pt x="81" y="278" on="1"/>
        <pt x="319" y="278" on="1"/>
      </contour>
      <contour>
        <pt x="319" y="131" on="1"/>
        <pt x="81" y="131" on="1"/>
        <pt x="81" y="173" on="1"/>
        <pt x="319" y="173" on="1"/>
      </contour>
    </TTGlyph>
    <TTGlyph name="equal.lf" xMin="69" yMin="218" xMax="424" yMax="443">
      <component glyphName="minus.lf" x="0" y="87" flags="0x4"/>
      <component glyphName="minus.lf" x="0" y="-88" flags="0x4"/>
    </TTGlyph>
    <TTGlyph name="equal.numr" xMin="81" yMin="408" xMax="319" yMax="555">
      <component glyphName="equal.dnom" x="0" y="277" flags="0x4"/>
    </TTGlyph>
    <TTGlyph name="equal.osf" xMin="69" yMin="218" xMax="424" yMax="443">
      <component glyphName="equal.lf" x="0" y="0" flags="0x204"/>
    </TTGlyph>
    <TTGlyph name="equal.tosf" xMin="100" yMin="218" xMax="455" yMax="443">
      <component glyphName="equal.lf" x="31" y="0" flags="0x4"/>
    </TTGlyph>
    <TTGlyph name="equalsuperior" xMin="81" yMin="446" xMax="319" yMax="593">
      <component glyphName="equal.dnom" x="0" y="315" flags="0x4"/>
    </TTGlyph>
    <TTGlyph name="estimated" xMin="70" yMin="-15" xMax="875" yMax="715">
      <contour>
        <pt x="875" y="339" on="1"/>
        <pt x="218" y="339" on="1"/>
        <pt x="218" y="121" on="1"/>
        <pt x="234" y="97" on="0"/>
        <pt x="291" y="61" on="0"/>
        <pt x="361" y="37" on="0"/>
        <pt x="438" y="24" on="0"/>
        <pt x="473" y="24" on="1"/>
        <pt x="543" y="24" on="0"/>
        <pt x="691" y="73" on="0"/>
        <pt x="733" y="122" on="1"/>
        <pt x="791" y="122" on="1"/>
        <pt x="737" y="59" on="0"/>
        <pt x="576" y="-15" on="0"/>
        <pt x="472" y="-15" on="1"/>
        <pt x="387" y="-15" on="0"/>
        <pt x="239" y="39" on="0"/>
        <pt x="131" y="135" on="0"/>
        <pt x="70" y="269" on="0"/>
        <pt x="70" y="347" on="1"/>
        <pt x="70" y="425" on="0"/>
        <pt x="134" y="561" on="0"/>
        <pt x="243" y="659" on="0"/>
        <pt x="390" y="715" on="0"/>
        <pt x="472" y="715" on="1"/>
        <pt x="552" y="715" on="0"/>
        <pt x="699" y="660" on="0"/>
        <pt x="809" y="561" on="0"/>
        <pt x="875" y="422" on="0"/>
      </contour>
      <contour>
        <pt x="727" y="379" on="1"/>
        <pt x="727" y="574" on="1"/>
        <pt x="685" y="620" on="0"/>
        <pt x="560" y="676" on="0"/>
        <pt x="473" y="676" on="1"/>
        <pt x="386" y="676" on="0"/>
        <pt x="256" y="621" on="0"/>
        <pt x="218" y="575" on="1"/>
        <pt x="218" y="379" on="1"/>
      </contour>
    </TTGlyph>
    <TTGlyph name="eta" xMin="86" yMin="-205" xMax="486" yMax="534">
      <contour>
        <pt x="486" y="-205" on="1"/>
        <pt x="429" y="-197" on="1"/>
        <pt x="429" y="366" on="1"/>
        <pt x="429" y="430" on="0"/>
        <pt x="378" y="487" on="0"/>
        <pt x="330" y="487" on="1"/>
        <pt x="276" y="487" on="0"/>
        <pt x="199" y="427" on="0"/>
        <pt x="167" y="379" on="1"/>
        <pt x="167" y="0" on="1"/>
        <pt x="110" y="0" on="1"/>
        <pt x="110" y="355" on="1"/>
        <pt x="110" y="413" on="0"/>
        <pt x="96" y="493" on="0"/>
        <pt x="86" y="524" on="1"/>
        <pt x="139" y="531" on="1"/>
        <pt x="146" y="511" on="0"/>
        <pt x="159" y="461" on="0"/>
        <pt x="162" y="430" on="1"/>
        <pt x="193" y="476" on="0"/>
        <pt x="284" y="534" on="0"/>
        <pt x="341" y="534" on="1"/>
        <pt x="412" y="534" on="0"/>
        <pt x="486" y="449" on="0"/>
        <pt x="486" y="373" on="1"/>
      </contour>
    </TTGlyph>
    <TTGlyph name="eta.sc" xMin="111" yMin="0" xMax="504" yMax="562">
      <component glyphName="h.sc" x="0" y="0" flags="0x204"/>
    </TTGlyph>
    <TTGlyph name="etatonos" xMin="86" yMin="-205" xMax="486" yMax="773">
      <component glyphName="tonos" x="235" y="0" flags="0x4"/>
      <component glyphName="eta" x="0" y="0" flags="0x204"/>
    </TTGlyph>
    <TTGlyph name="etatonos.sc" xMin="111" yMin="0" xMax="504" yMax="562">
      <component glyphName="h.sc" x="0" y="0" flags="0x204"/>
    </TTGlyph>
    <TTGlyph name="eth" xMin="64" yMin="-11" xMax="486" yMax="761">
      <contour>
        <pt x="273" y="-11" on="1"/>
        <pt x="179" y="-11" on="0"/>
        <pt x="64" y="120" on="0"/>
        <pt x="64" y="233" on="1"/>
        <pt x="64" y="278" on="0"/>
        <pt x="89" y="363" on="0"/>
        <pt x="138" y="428" on="0"/>
        <pt x="211" y="468" on="0"/>
        <pt x="259" y="468" on="1"/>
        <pt x="310" y="468" on="0"/>
        <pt x="391" y="424" on="0"/>
        <pt x="422" y="387" on="1"/>
        <pt x="412" y="462" on="0"/>
        <pt x="347" y="582" on="0"/>
        <pt x="288" y="628" on="1"/>
        <pt x="212" y="552" on="1"/>
        <pt x="170" y="571" on="1"/>
        <pt x="251" y="653" on="1"/>
        <pt x="223" y="669" on="0"/>
        <pt x="161" y="693" on="0"/>
        <pt x="128" y="699" on="1"/>
        <pt x="141" y="744" on="1"/>
        <pt x="179" y="737" on="0"/>
        <pt x="252" y="709" on="0"/>
        <pt x="286" y="689" on="1"/>
        <pt x="355" y="761" on="1"/>
        <pt x="390" y="731" on="1"/>
        <pt x="324" y="664" on="1"/>
        <pt x="407" y="601" on="0"/>
        <pt x="486" y="418" on="0"/>
        <pt x="486" y="280" on="1"/>
        <pt x="486" y="138" on="0"/>
        <pt x="367" y="-11" on="0"/>
      </contour>
      <contour>
        <pt x="272" y="37" on="1"/>
        <pt x="344" y="37" on="0"/>
        <pt x="428" y="162" on="0"/>
        <pt x="428" y="282" on="1"/>
        <pt x="428" y="297" on="0"/>
        <pt x="427" y="320" on="0"/>
        <pt x="427" y="330" on="1"/>
        <pt x="396" y="373" on="0"/>
        <pt x="315" y="421" on="0"/>
        <pt x="266" y="421" on="1"/>
        <pt x="193" y="421" on="0"/>
        <pt x="123" y="311" on="0"/>
        <pt x="123" y="233" on="1"/>
        <pt x="123" y="140" on="0"/>
        <pt x="203" y="37" on="0"/>
      </contour>
    </TTGlyph>
    <TTGlyph name="eth.sc" xMin="23" yMin="0" xMax="478" yMax="562">
      <contour>
        <pt x="210" y="0" on="1"/>
        <pt x="80" y="0" on="1"/>
        <pt x="80" y="269" on="1"/>
        <pt x="23" y="269" on="1"/>
        <pt x="23" y="314" on="1"/>
        <pt x="80" y="314" on="1"/>
        <pt x="80" y="562" on="1"/>
        <pt x="202" y="562" on="1"/>
        <pt x="253" y="562" on="0"/>
        <pt x="353" y="540" on="0"/>
        <pt x="430" y="480" on="0"/>
        <pt x="478" y="371" on="0"/>
        <pt x="478" y="285" on="1"/>
        <pt x="478" y="198" on="0"/>
        <pt x="429" y="87" on="0"/>
        <pt x="352" y="24" on="0"/>
        <pt x="256" y="0" on="0"/>
      </contour>
      <contour>
        <pt x="137" y="46" on="1"/>
        <pt x="214" y="46" on="1"/>
        <pt x="252" y="46" on="0"/>
        <pt x="325" y="66" on="0"/>
        <pt x="383" y="118" on="0"/>
        <pt x="418" y="212" on="0"/>
        <pt x="418" y="285" on="1"/>
        <pt x="418" y="360" on="0"/>
        <pt x="381" y="451" on="0"/>
        <pt x="322" y="500" on="0"/>
        <pt x="246" y="515" on="0"/>
        <pt x="208" y="515" on="1"/>
        <pt x="137" y="515" on="1"/>
        <pt x="137" y="314" on="1"/>
        <pt x="266" y="314" on="1"/>
        <pt x="266" y="269" on="1"/>
        <pt x="137" y="269" on="1"/>
      </contour>
    </TTGlyph>
    <TTGlyph name="exclam" xMin="73" yMin="-11" xMax="167" yMax="685">
      <contour>
        <pt x="89" y="685" on="1"/>
        <pt x="150" y="685" on="1"/>
        <pt x="145" y="218" on="1"/>
        <pt x="94" y="218" on="1"/>
      </contour>
      <contour>
        <pt x="73" y="36" on="1"/>
        <pt x="73" y="55" on="0"/>
        <pt x="100" y="83" on="0"/>
        <pt x="120" y="83" on="1"/>
        <pt x="141" y="83" on="0"/>
        <pt x="167" y="55" on="0"/>
        <pt x="167" y="36" on="1"/>
        <pt x="167" y="17" on="0"/>
        <pt x="141" y="-11" on="0"/>
        <pt x="120" y="-11" on="1"/>
        <pt x="100" y="-11" on="0"/>
        <pt x="73" y="17" on="0"/>
      </contour>
    </TTGlyph>
    <TTGlyph name="exclamdown" xMin="73" yMin="-197" xMax="167" yMax="474">
      <contour>
        <pt x="73" y="427" on="1"/>
        <pt x="73" y="446" on="0"/>
        <pt x="99" y="474" on="0"/>
        <pt x="120" y="474" on="1"/>
        <pt x="141" y="474" on="0"/>
        <pt x="167" y="446" on="0"/>
        <pt x="167" y="427" on="1"/>
        <pt x="167" y="408" on="0"/>
        <pt x="141" y="380" on="0"/>
        <pt x="120" y="380" on="1"/>
        <pt x="99" y="380" on="0"/>
        <pt x="73" y="408" on="0"/>
      </contour>
      <contour>
        <pt x="95" y="249" on="1"/>
        <pt x="147" y="249" on="1"/>
        <pt x="152" y="-197" on="1"/>
        <pt x="91" y="-197" on="1"/>
      </contour>
    </TTGlyph>
    <TTGlyph name="exclamdown.case" xMin="73" yMin="0" xMax="167" yMax="696">
      <contour>
        <pt x="167" y="649" on="1"/>
        <pt x="167" y="630" on="0"/>
        <pt x="140" y="602" on="0"/>
        <pt x="120" y="602" on="1"/>
        <pt x="99" y="602" on="0"/>
        <pt x="73" y="630" on="0"/>
        <pt x="73" y="649" on="1"/>
        <pt x="73" y="668" on="0"/>
        <pt x="99" y="696" on="0"/>
        <pt x="120" y="696" on="1"/>
        <pt x="140" y="696" on="0"/>
        <pt x="167" y="668" on="0"/>
      </contour>
      <contour>
        <pt x="151" y="0" on="1"/>
        <pt x="90" y="0" on="1"/>
        <pt x="95" y="467" on="1"/>
        <pt x="146" y="467" on="1"/>
      </contour>
    </TTGlyph>
    <TTGlyph name="f" xMin="21" yMin="0" xMax="378" yMax="743">
      <contour>
        <pt x="300" y="477" on="1"/>
        <pt x="169" y="477" on="1"/>
        <pt x="169" y="0" on="1"/>
        <pt x="112" y="0" on="1"/>
        <pt x="112" y="477" on="1"/>
        <pt x="21" y="477" on="1"/>
        <pt x="21" y="523" on="1"/>
        <pt x="112" y="523" on="1"/>
        <pt x="112" y="609" on="1"/>
        <pt x="112" y="671" on="0"/>
        <pt x="190" y="743" on="0"/>
        <pt x="257" y="743" on="1"/>
        <pt x="291" y="743" on="0"/>
        <pt x="350" y="728" on="0"/>
        <pt x="378" y="715" on="1"/>
        <pt x="359" y="672" on="1"/>
        <pt x="334" y="684" on="0"/>
        <pt x="285" y="695" on="0"/>
        <pt x="260" y="695" on="1"/>
        <pt x="215" y="695" on="0"/>
        <pt x="169" y="653" on="0"/>
        <pt x="169" y="607" on="1"/>
        <pt x="169" y="523" on="1"/>
        <pt x="307" y="523" on="1"/>
      </contour>
    </TTGlyph>
    <TTGlyph name="f.sc" xMin="111" yMin="0" xMax="411" yMax="562">
      <contour>
        <pt x="111" y="562" on="1"/>
        <pt x="411" y="562" on="1"/>
        <pt x="405" y="515" on="1"/>
        <pt x="168" y="515" on="1"/>
        <pt x="168" y="303" on="1"/>
        <pt x="372" y="303" on="1"/>
        <pt x="372" y="258" on="1"/>
        <pt x="168" y="258" on="1"/>
        <pt x="168" y="0" on="1"/>
        <pt x="111" y="0" on="1"/>
      </contour>
    </TTGlyph>
    <TTGlyph name="f_i" xMin="26" yMin="0" xMax="461" yMax="743">
      <component glyphName="fi" x="0" y="0" flags="0x204"/>
    </TTGlyph>
    <TTGlyph name="f_i.sc" xMin="111" yMin="0" xMax="608" yMax="562">
      <component glyphName="f.sc" x="0" y="0" flags="0x204"/>
      <component glyphName="i.sc" x="439" y="0" flags="0x4"/>
    </TTGlyph>
    <TTGlyph name="f_l" xMin="26" yMin="-11" xMax="556" yMax="743">
      <component glyphName="fl" x="0" y="0" flags="0x204"/>
    </TTGlyph>
    <TTGlyph name="f_l.sc" xMin="111" yMin="0" xMax="855" yMax="562">
      <component glyphName="l.sc" x="439" y="0" flags="0x4"/>
      <component glyphName="f.sc" x="0" y="0" flags="0x204"/>
    </TTGlyph>
    <TTGlyph name="fi" xMin="26" yMin="0" xMax="461" yMax="743">
      <contour>
        <pt x="112" y="608" on="1"/>
        <pt x="112" y="671" on="0"/>
        <pt x="189" y="743" on="0"/>
        <pt x="264" y="743" on="1"/>
        <pt x="307" y="743" on="0"/>
        <pt x="380" y="722" on="0"/>
        <pt x="411" y="706" on="1"/>
        <pt x="390" y="664" on="1"/>
        <pt x="363" y="677" on="0"/>
        <pt x="302" y="695" on="0"/>
        <pt x="266" y="695" on="1"/>
        <pt x="217" y="695" on="0"/>
        <pt x="169" y="654" on="0"/>
        <pt x="169" y="605" on="1"/>
        <pt x="169" y="523" on="1"/>
        <pt x="461" y="523" on="1"/>
        <pt x="461" y="0" on="1"/>
        <pt x="404" y="0" on="1"/>
        <pt x="404" y="477" on="1"/>
        <pt x="169" y="477" on="1"/>
        <pt x="169" y="0" on="1"/>
        <pt x="112" y="0" on="1"/>
        <pt x="112" y="477" on="1"/>
        <pt x="26" y="477" on="1"/>
        <pt x="26" y="523" on="1"/>
        <pt x="112" y="523" on="1"/>
      </contour>
    </TTGlyph>
    <TTGlyph name="fi.sc" xMin="111" yMin="0" xMax="608" yMax="562">
      <component glyphName="f.sc" x="0" y="0" flags="0x204"/>
      <component glyphName="i.sc" x="439" y="0" flags="0x4"/>
    </TTGlyph>
    <TTGlyph name="figuredash" xMin="33" yMin="309" xMax="523" yMax="358">
      <component glyphName="figuredash.lf" x="-2" y="0" flags="0x4"/>
    </TTGlyph>
    <TTGlyph name="figuredash.lf" xMin="35" yMin="309" xMax="525" yMax="358">
      <contour>
        <pt x="525" y="309" on="1"/>
        <pt x="35" y="309" on="1"/>
        <pt x="35" y="358" on="1"/>
        <pt x="525" y="358" on="1"/>
      </contour>
    </TTGlyph>
    <TTGlyph name="figuredash.osf" xMin="35" yMin="309" xMax="525" yMax="358">
      <component glyphName="figuredash.lf" x="0" y="0" flags="0x204"/>
    </TTGlyph>
    <TTGlyph name="figuredash.tosf" xMin="33" yMin="309" xMax="523" yMax="358">
      <component glyphName="figuredash.lf" x="-2" y="0" flags="0x4"/>
    </TTGlyph>
</ttFont>
